{"glyphs":{"0":{"ha":958,"x_min":26,"x_max":932,"o":"m 479 -22 q 146 112 265 -22 q 26 486 26 246 q 146 860 26 726 q 479 994 265 994 q 813 860 693 994 q 932 486 932 726 q 813 112 932 246 q 479 -22 693 -22 m 379 486 q 479 283 379 283 q 579 486 579 283 q 479 689 579 689 q 379 486 379 689 z "},"1":{"ha":668,"x_min":-1,"x_max":607,"o":"m 263 400 l 271 571 l 268 572 l 144 493 l -1 718 l 332 972 l 607 972 l 607 0 l 263 0 l 263 400 z "},"2":{"ha":861,"x_min":40,"x_max":817,"o":"m 40 218 l 415 554 q 464 606 450 586 q 478 649 478 626 q 463 685 478 672 q 425 697 447 697 q 365 625 365 697 l 40 625 q 88 819 40 736 q 224 949 136 903 q 426 994 311 994 q 628 953 540 994 q 765 838 717 913 q 813 669 813 764 q 773 499 813 574 q 638 347 733 425 l 543 271 l 544 268 l 661 276 l 817 276 l 817 0 l 40 0 l 40 218 z "},"3":{"ha":858,"x_min":22,"x_max":833,"o":"m 419 -22 q 129 65 236 -22 q 22 311 22 151 l 349 311 q 365 262 349 279 q 413 244 382 244 q 460 262 443 244 q 476 311 476 279 q 403 378 476 378 l 321 378 l 321 619 l 403 619 q 453 635 435 619 q 471 682 471 651 q 455 728 471 713 q 411 744 439 744 q 367 728 383 744 q 351 681 351 711 l 38 681 q 88 849 38 778 q 224 957 138 919 q 417 994 310 994 q 604 961 518 994 q 742 866 690 928 q 793 721 793 804 q 767 604 793 658 q 693 514 740 550 q 797 415 760 478 q 833 271 833 351 q 776 109 833 175 q 625 10 719 43 q 419 -22 531 -22 z "},"4":{"ha":911,"x_min":28,"x_max":883,"o":"m 467 142 l 28 142 l 28 400 l 397 972 l 789 972 l 789 432 l 883 432 l 883 142 l 790 142 l 790 0 l 467 0 l 467 142 m 474 421 l 474 486 l 486 657 l 481 658 l 332 421 l 474 421 z "},"5":{"ha":867,"x_min":38,"x_max":840,"o":"m 439 -22 q 225 17 315 -22 q 86 131 135 57 q 38 307 38 206 l 368 307 q 392 267 374 282 q 439 251 411 251 q 492 273 474 251 q 510 335 510 294 q 492 391 510 371 q 439 411 474 411 q 371 383 399 411 l 50 383 l 104 972 l 772 972 l 772 711 l 374 711 l 367 650 l 358 600 l 361 597 q 525 635 440 635 q 755 551 669 635 q 840 324 840 467 q 736 67 840 157 q 439 -22 632 -22 z "},"6":{"ha":900,"x_min":29,"x_max":874,"o":"m 451 -22 q 141 74 253 -22 q 29 342 29 171 q 57 478 29 408 q 154 657 85 549 l 357 972 l 728 972 l 728 933 l 536 651 q 714 612 638 651 q 832 501 790 572 q 874 335 874 429 q 822 146 874 226 q 676 22 771 65 q 451 -22 581 -22 m 364 342 q 388 276 364 301 q 453 251 413 251 q 517 276 493 251 q 542 342 542 301 q 517 407 542 382 q 453 432 493 432 q 388 407 413 432 q 364 342 364 382 z "},"7":{"ha":847,"x_min":43,"x_max":807,"o":"m 86 26 l 396 682 l 394 685 l 315 682 l 43 682 l 43 972 l 807 972 l 807 779 l 453 0 l 86 0 l 86 26 z "},"8":{"ha":892,"x_min":25,"x_max":867,"o":"m 446 -22 q 222 13 317 -22 q 76 115 126 49 q 25 269 25 181 q 61 413 25 350 q 165 514 97 476 q 93 604 118 550 q 68 722 68 658 q 117 863 68 801 q 251 960 165 925 q 446 994 336 994 q 641 960 556 994 q 775 863 726 925 q 824 722 824 801 q 799 605 824 658 q 726 514 774 551 q 831 413 794 475 q 867 269 867 350 q 816 115 867 181 q 670 13 765 49 q 446 -22 575 -22 m 364 311 q 385 248 364 271 q 446 225 407 225 q 506 248 485 225 q 528 311 528 271 q 506 374 528 351 q 446 397 485 397 q 385 374 407 397 q 364 311 364 351 m 375 692 q 394 636 375 657 q 446 615 414 615 q 497 636 478 615 q 517 692 517 657 q 497 747 517 726 q 446 768 478 768 q 394 747 414 768 q 375 692 375 726 z "},"9":{"ha":908,"x_min":31,"x_max":875,"o":"m 453 994 q 763 898 651 994 q 875 631 875 801 q 847 494 875 564 q 750 315 819 424 l 547 0 l 176 0 l 176 39 l 368 321 q 190 360 267 321 q 72 472 114 400 q 31 638 31 543 q 82 826 31 746 q 228 951 133 907 q 453 994 324 994 m 363 631 q 387 565 363 590 q 451 540 411 540 q 516 565 492 540 q 540 631 540 590 q 516 696 540 671 q 451 721 492 721 q 387 696 411 721 q 363 631 363 671 z "},"\r":{"ha":347,"x_min":0,"x_max":0,"o":""}," ":{"ha":347,"x_min":0,"x_max":0,"o":""},"A":{"ha":1067,"x_min":7,"x_max":1060,"o":"m 7 38 l 329 972 l 738 972 l 1060 38 l 1060 0 l 689 0 l 664 113 l 403 113 l 374 0 l 7 0 l 7 38 m 610 364 l 538 603 l 529 603 l 458 364 l 610 364 z "},"Á":{"ha":436,"x_min":139,"x_max":297,"o":"m 174 -183 l 293 -183 l 293 -217 l 174 -217 l 174 -258 l 143 -258 l 143 -142 l 174 -142 l 174 -183 m 139 588 q 162 530 139 553 q 218 507 185 507 q 274 530 251 507 q 297 588 297 553 q 274 645 297 622 q 218 668 251 668 q 162 645 185 668 q 139 588 139 622 m 293 -119 l 293 -87 l 242 -87 l 242 -65 l 293 -36 l 293 0 l 236 -33 q 193 -6 222 -6 q 157 -20 171 -6 q 143 -58 143 -35 l 143 -119 l 293 -119 m 143 56 l 293 56 l 293 22 l 143 22 l 143 56 m 293 75 l 293 110 l 265 119 l 265 179 l 293 190 l 293 226 l 143 165 l 143 133 l 293 75 m 293 244 l 293 336 l 264 336 l 264 278 l 143 278 l 143 244 l 293 244 m 293 403 l 293 435 l 236 435 l 236 488 l 206 488 l 206 435 l 174 435 l 174 493 l 143 493 l 143 403 l 293 403 m 293 693 l 293 725 l 199 725 l 293 794 l 293 821 l 143 821 l 143 789 l 235 789 l 143 724 l 143 693 l 293 693 m 174 843 l 174 885 l 293 885 l 293 918 l 174 918 l 174 960 l 143 960 l 143 843 l 174 843 m 171 588 q 184 622 171 608 q 218 635 197 635 q 253 622 239 635 q 267 588 267 608 q 253 554 267 568 q 218 540 239 540 q 184 554 197 540 q 171 588 171 568 m 172 -61 q 178 -45 172 -51 q 192 -39 183 -39 q 207 -45 201 -39 q 213 -61 213 -51 l 213 -87 l 172 -87 l 172 -61 m 236 169 l 236 131 l 182 150 l 236 169 z "},"Ă":{"ha":436,"x_min":139,"x_max":297,"o":"m 174 -183 l 293 -183 l 293 -217 l 174 -217 l 174 -258 l 143 -258 l 143 -142 l 174 -142 l 174 -183 m 139 588 q 162 530 139 553 q 218 507 185 507 q 274 530 251 507 q 297 588 297 553 q 274 645 297 622 q 218 668 251 668 q 162 645 185 668 q 139 588 139 622 m 293 -119 l 293 -87 l 242 -87 l 242 -65 l 293 -36 l 293 0 l 236 -33 q 193 -6 222 -6 q 157 -20 171 -6 q 143 -58 143 -35 l 143 -119 l 293 -119 m 143 56 l 293 56 l 293 22 l 143 22 l 143 56 m 293 75 l 293 110 l 265 119 l 265 179 l 293 190 l 293 226 l 143 165 l 143 133 l 293 75 m 293 244 l 293 336 l 264 336 l 264 278 l 143 278 l 143 244 l 293 244 m 293 403 l 293 435 l 236 435 l 236 488 l 206 488 l 206 435 l 174 435 l 174 493 l 143 493 l 143 403 l 293 403 m 293 693 l 293 725 l 199 725 l 293 794 l 293 821 l 143 821 l 143 789 l 235 789 l 143 724 l 143 693 l 293 693 m 174 843 l 174 885 l 293 885 l 293 918 l 174 918 l 174 960 l 143 960 l 143 843 l 174 843 m 171 588 q 184 622 171 608 q 218 635 197 635 q 253 622 239 635 q 267 588 267 608 q 253 554 267 568 q 218 540 239 540 q 184 554 197 540 q 171 588 171 568 m 172 -61 q 178 -45 172 -51 q 192 -39 183 -39 q 207 -45 201 -39 q 213 -61 213 -51 l 213 -87 l 172 -87 l 172 -61 m 236 169 l 236 131 l 182 150 l 236 169 z "},"Â":{"ha":436,"x_min":139,"x_max":297,"o":"m 174 -183 l 293 -183 l 293 -217 l 174 -217 l 174 -258 l 143 -258 l 143 -142 l 174 -142 l 174 -183 m 139 588 q 162 530 139 553 q 218 507 185 507 q 274 530 251 507 q 297 588 297 553 q 274 645 297 622 q 218 668 251 668 q 162 645 185 668 q 139 588 139 622 m 293 -119 l 293 -87 l 242 -87 l 242 -65 l 293 -36 l 293 0 l 236 -33 q 193 -6 222 -6 q 157 -20 171 -6 q 143 -58 143 -35 l 143 -119 l 293 -119 m 143 56 l 293 56 l 293 22 l 143 22 l 143 56 m 293 75 l 293 110 l 265 119 l 265 179 l 293 190 l 293 226 l 143 165 l 143 133 l 293 75 m 293 244 l 293 336 l 264 336 l 264 278 l 143 278 l 143 244 l 293 244 m 293 403 l 293 435 l 236 435 l 236 488 l 206 488 l 206 435 l 174 435 l 174 493 l 143 493 l 143 403 l 293 403 m 293 693 l 293 725 l 199 725 l 293 794 l 293 821 l 143 821 l 143 789 l 235 789 l 143 724 l 143 693 l 293 693 m 174 843 l 174 885 l 293 885 l 293 918 l 174 918 l 174 960 l 143 960 l 143 843 l 174 843 m 171 588 q 184 622 171 608 q 218 635 197 635 q 253 622 239 635 q 267 588 267 608 q 253 554 267 568 q 218 540 239 540 q 184 554 197 540 q 171 588 171 568 m 172 -61 q 178 -45 172 -51 q 192 -39 183 -39 q 207 -45 201 -39 q 213 -61 213 -51 l 213 -87 l 172 -87 l 172 -61 m 236 169 l 236 131 l 182 150 l 236 169 z "},"Ä":{"ha":436,"x_min":139,"x_max":297,"o":"m 174 -183 l 293 -183 l 293 -217 l 174 -217 l 174 -258 l 143 -258 l 143 -142 l 174 -142 l 174 -183 m 139 588 q 162 530 139 553 q 218 507 185 507 q 274 530 251 507 q 297 588 297 553 q 274 645 297 622 q 218 668 251 668 q 162 645 185 668 q 139 588 139 622 m 293 -119 l 293 -87 l 242 -87 l 242 -65 l 293 -36 l 293 0 l 236 -33 q 193 -6 222 -6 q 157 -20 171 -6 q 143 -58 143 -35 l 143 -119 l 293 -119 m 143 56 l 293 56 l 293 22 l 143 22 l 143 56 m 293 75 l 293 110 l 265 119 l 265 179 l 293 190 l 293 226 l 143 165 l 143 133 l 293 75 m 293 244 l 293 336 l 264 336 l 264 278 l 143 278 l 143 244 l 293 244 m 293 403 l 293 435 l 236 435 l 236 488 l 206 488 l 206 435 l 174 435 l 174 493 l 143 493 l 143 403 l 293 403 m 293 693 l 293 725 l 199 725 l 293 794 l 293 821 l 143 821 l 143 789 l 235 789 l 143 724 l 143 693 l 293 693 m 174 843 l 174 885 l 293 885 l 293 918 l 174 918 l 174 960 l 143 960 l 143 843 l 174 843 m 171 588 q 184 622 171 608 q 218 635 197 635 q 253 622 239 635 q 267 588 267 608 q 253 554 267 568 q 218 540 239 540 q 184 554 197 540 q 171 588 171 568 m 172 -61 q 178 -45 172 -51 q 192 -39 183 -39 q 207 -45 201 -39 q 213 -61 213 -51 l 213 -87 l 172 -87 l 172 -61 m 236 169 l 236 131 l 182 150 l 236 169 z "},"À":{"ha":436,"x_min":139,"x_max":297,"o":"m 174 -183 l 293 -183 l 293 -217 l 174 -217 l 174 -258 l 143 -258 l 143 -142 l 174 -142 l 174 -183 m 139 588 q 162 530 139 553 q 218 507 185 507 q 274 530 251 507 q 297 588 297 553 q 274 645 297 622 q 218 668 251 668 q 162 645 185 668 q 139 588 139 622 m 293 -119 l 293 -87 l 242 -87 l 242 -65 l 293 -36 l 293 0 l 236 -33 q 193 -6 222 -6 q 157 -20 171 -6 q 143 -58 143 -35 l 143 -119 l 293 -119 m 143 56 l 293 56 l 293 22 l 143 22 l 143 56 m 293 75 l 293 110 l 265 119 l 265 179 l 293 190 l 293 226 l 143 165 l 143 133 l 293 75 m 293 244 l 293 336 l 264 336 l 264 278 l 143 278 l 143 244 l 293 244 m 293 403 l 293 435 l 236 435 l 236 488 l 206 488 l 206 435 l 174 435 l 174 493 l 143 493 l 143 403 l 293 403 m 293 693 l 293 725 l 199 725 l 293 794 l 293 821 l 143 821 l 143 789 l 235 789 l 143 724 l 143 693 l 293 693 m 174 843 l 174 885 l 293 885 l 293 918 l 174 918 l 174 960 l 143 960 l 143 843 l 174 843 m 171 588 q 184 622 171 608 q 218 635 197 635 q 253 622 239 635 q 267 588 267 608 q 253 554 267 568 q 218 540 239 540 q 184 554 197 540 q 171 588 171 568 m 172 -61 q 178 -45 172 -51 q 192 -39 183 -39 q 207 -45 201 -39 q 213 -61 213 -51 l 213 -87 l 172 -87 l 172 -61 m 236 169 l 236 131 l 182 150 l 236 169 z "},"Ā":{"ha":436,"x_min":139,"x_max":297,"o":"m 174 -183 l 293 -183 l 293 -217 l 174 -217 l 174 -258 l 143 -258 l 143 -142 l 174 -142 l 174 -183 m 139 588 q 162 530 139 553 q 218 507 185 507 q 274 530 251 507 q 297 588 297 553 q 274 645 297 622 q 218 668 251 668 q 162 645 185 668 q 139 588 139 622 m 293 -119 l 293 -87 l 242 -87 l 242 -65 l 293 -36 l 293 0 l 236 -33 q 193 -6 222 -6 q 157 -20 171 -6 q 143 -58 143 -35 l 143 -119 l 293 -119 m 143 56 l 293 56 l 293 22 l 143 22 l 143 56 m 293 75 l 293 110 l 265 119 l 265 179 l 293 190 l 293 226 l 143 165 l 143 133 l 293 75 m 293 244 l 293 336 l 264 336 l 264 278 l 143 278 l 143 244 l 293 244 m 293 403 l 293 435 l 236 435 l 236 488 l 206 488 l 206 435 l 174 435 l 174 493 l 143 493 l 143 403 l 293 403 m 293 693 l 293 725 l 199 725 l 293 794 l 293 821 l 143 821 l 143 789 l 235 789 l 143 724 l 143 693 l 293 693 m 174 843 l 174 885 l 293 885 l 293 918 l 174 918 l 174 960 l 143 960 l 143 843 l 174 843 m 171 588 q 184 622 171 608 q 218 635 197 635 q 253 622 239 635 q 267 588 267 608 q 253 554 267 568 q 218 540 239 540 q 184 554 197 540 q 171 588 171 568 m 172 -61 q 178 -45 172 -51 q 192 -39 183 -39 q 207 -45 201 -39 q 213 -61 213 -51 l 213 -87 l 172 -87 l 172 -61 m 236 169 l 236 131 l 182 150 l 236 169 z "},"Ą":{"ha":436,"x_min":139,"x_max":297,"o":"m 174 -183 l 293 -183 l 293 -217 l 174 -217 l 174 -258 l 143 -258 l 143 -142 l 174 -142 l 174 -183 m 139 588 q 162 530 139 553 q 218 507 185 507 q 274 530 251 507 q 297 588 297 553 q 274 645 297 622 q 218 668 251 668 q 162 645 185 668 q 139 588 139 622 m 293 -119 l 293 -87 l 242 -87 l 242 -65 l 293 -36 l 293 0 l 236 -33 q 193 -6 222 -6 q 157 -20 171 -6 q 143 -58 143 -35 l 143 -119 l 293 -119 m 143 56 l 293 56 l 293 22 l 143 22 l 143 56 m 293 75 l 293 110 l 265 119 l 265 179 l 293 190 l 293 226 l 143 165 l 143 133 l 293 75 m 293 244 l 293 336 l 264 336 l 264 278 l 143 278 l 143 244 l 293 244 m 293 403 l 293 435 l 236 435 l 236 488 l 206 488 l 206 435 l 174 435 l 174 493 l 143 493 l 143 403 l 293 403 m 293 693 l 293 725 l 199 725 l 293 794 l 293 821 l 143 821 l 143 789 l 235 789 l 143 724 l 143 693 l 293 693 m 174 843 l 174 885 l 293 885 l 293 918 l 174 918 l 174 960 l 143 960 l 143 843 l 174 843 m 171 588 q 184 622 171 608 q 218 635 197 635 q 253 622 239 635 q 267 588 267 608 q 253 554 267 568 q 218 540 239 540 q 184 554 197 540 q 171 588 171 568 m 172 -61 q 178 -45 172 -51 q 192 -39 183 -39 q 207 -45 201 -39 q 213 -61 213 -51 l 213 -87 l 172 -87 l 172 -61 m 236 169 l 236 131 l 182 150 l 236 169 z "},"Å":{"ha":436,"x_min":139,"x_max":297,"o":"m 174 -183 l 293 -183 l 293 -217 l 174 -217 l 174 -258 l 143 -258 l 143 -142 l 174 -142 l 174 -183 m 139 588 q 162 530 139 553 q 218 507 185 507 q 274 530 251 507 q 297 588 297 553 q 274 645 297 622 q 218 668 251 668 q 162 645 185 668 q 139 588 139 622 m 293 -119 l 293 -87 l 242 -87 l 242 -65 l 293 -36 l 293 0 l 236 -33 q 193 -6 222 -6 q 157 -20 171 -6 q 143 -58 143 -35 l 143 -119 l 293 -119 m 143 56 l 293 56 l 293 22 l 143 22 l 143 56 m 293 75 l 293 110 l 265 119 l 265 179 l 293 190 l 293 226 l 143 165 l 143 133 l 293 75 m 293 244 l 293 336 l 264 336 l 264 278 l 143 278 l 143 244 l 293 244 m 293 403 l 293 435 l 236 435 l 236 488 l 206 488 l 206 435 l 174 435 l 174 493 l 143 493 l 143 403 l 293 403 m 293 693 l 293 725 l 199 725 l 293 794 l 293 821 l 143 821 l 143 789 l 235 789 l 143 724 l 143 693 l 293 693 m 174 843 l 174 885 l 293 885 l 293 918 l 174 918 l 174 960 l 143 960 l 143 843 l 174 843 m 171 588 q 184 622 171 608 q 218 635 197 635 q 253 622 239 635 q 267 588 267 608 q 253 554 267 568 q 218 540 239 540 q 184 554 197 540 q 171 588 171 568 m 172 -61 q 178 -45 172 -51 q 192 -39 183 -39 q 207 -45 201 -39 q 213 -61 213 -51 l 213 -87 l 172 -87 l 172 -61 m 236 169 l 236 131 l 182 150 l 236 169 z "},"Ã":{"ha":436,"x_min":139,"x_max":297,"o":"m 174 -183 l 293 -183 l 293 -217 l 174 -217 l 174 -258 l 143 -258 l 143 -142 l 174 -142 l 174 -183 m 139 588 q 162 530 139 553 q 218 507 185 507 q 274 530 251 507 q 297 588 297 553 q 274 645 297 622 q 218 668 251 668 q 162 645 185 668 q 139 588 139 622 m 293 -119 l 293 -87 l 242 -87 l 242 -65 l 293 -36 l 293 0 l 236 -33 q 193 -6 222 -6 q 157 -20 171 -6 q 143 -58 143 -35 l 143 -119 l 293 -119 m 143 56 l 293 56 l 293 22 l 143 22 l 143 56 m 293 75 l 293 110 l 265 119 l 265 179 l 293 190 l 293 226 l 143 165 l 143 133 l 293 75 m 293 244 l 293 336 l 264 336 l 264 278 l 143 278 l 143 244 l 293 244 m 293 403 l 293 435 l 236 435 l 236 488 l 206 488 l 206 435 l 174 435 l 174 493 l 143 493 l 143 403 l 293 403 m 293 693 l 293 725 l 199 725 l 293 794 l 293 821 l 143 821 l 143 789 l 235 789 l 143 724 l 143 693 l 293 693 m 174 843 l 174 885 l 293 885 l 293 918 l 174 918 l 174 960 l 143 960 l 143 843 l 174 843 m 171 588 q 184 622 171 608 q 218 635 197 635 q 253 622 239 635 q 267 588 267 608 q 253 554 267 568 q 218 540 239 540 q 184 554 197 540 q 171 588 171 568 m 172 -61 q 178 -45 172 -51 q 192 -39 183 -39 q 207 -45 201 -39 q 213 -61 213 -51 l 213 -87 l 172 -87 l 172 -61 m 236 169 l 236 131 l 182 150 l 236 169 z "},"Æ":{"ha":436,"x_min":139,"x_max":297,"o":"m 174 -183 l 293 -183 l 293 -217 l 174 -217 l 174 -258 l 143 -258 l 143 -142 l 174 -142 l 174 -183 m 139 588 q 162 530 139 553 q 218 507 185 507 q 274 530 251 507 q 297 588 297 553 q 274 645 297 622 q 218 668 251 668 q 162 645 185 668 q 139 588 139 622 m 293 -119 l 293 -87 l 242 -87 l 242 -65 l 293 -36 l 293 0 l 236 -33 q 193 -6 222 -6 q 157 -20 171 -6 q 143 -58 143 -35 l 143 -119 l 293 -119 m 143 56 l 293 56 l 293 22 l 143 22 l 143 56 m 293 75 l 293 110 l 265 119 l 265 179 l 293 190 l 293 226 l 143 165 l 143 133 l 293 75 m 293 244 l 293 336 l 264 336 l 264 278 l 143 278 l 143 244 l 293 244 m 293 403 l 293 435 l 236 435 l 236 488 l 206 488 l 206 435 l 174 435 l 174 493 l 143 493 l 143 403 l 293 403 m 293 693 l 293 725 l 199 725 l 293 794 l 293 821 l 143 821 l 143 789 l 235 789 l 143 724 l 143 693 l 293 693 m 174 843 l 174 885 l 293 885 l 293 918 l 174 918 l 174 960 l 143 960 l 143 843 l 174 843 m 171 588 q 184 622 171 608 q 218 635 197 635 q 253 622 239 635 q 267 588 267 608 q 253 554 267 568 q 218 540 239 540 q 184 554 197 540 q 171 588 171 568 m 172 -61 q 178 -45 172 -51 q 192 -39 183 -39 q 207 -45 201 -39 q 213 -61 213 -51 l 213 -87 l 172 -87 l 172 -61 m 236 169 l 236 131 l 182 150 l 236 169 z "},"Ǽ":{"ha":436,"x_min":139,"x_max":297,"o":"m 174 -183 l 293 -183 l 293 -217 l 174 -217 l 174 -258 l 143 -258 l 143 -142 l 174 -142 l 174 -183 m 139 588 q 162 530 139 553 q 218 507 185 507 q 274 530 251 507 q 297 588 297 553 q 274 645 297 622 q 218 668 251 668 q 162 645 185 668 q 139 588 139 622 m 293 -119 l 293 -87 l 242 -87 l 242 -65 l 293 -36 l 293 0 l 236 -33 q 193 -6 222 -6 q 157 -20 171 -6 q 143 -58 143 -35 l 143 -119 l 293 -119 m 143 56 l 293 56 l 293 22 l 143 22 l 143 56 m 293 75 l 293 110 l 265 119 l 265 179 l 293 190 l 293 226 l 143 165 l 143 133 l 293 75 m 293 244 l 293 336 l 264 336 l 264 278 l 143 278 l 143 244 l 293 244 m 293 403 l 293 435 l 236 435 l 236 488 l 206 488 l 206 435 l 174 435 l 174 493 l 143 493 l 143 403 l 293 403 m 293 693 l 293 725 l 199 725 l 293 794 l 293 821 l 143 821 l 143 789 l 235 789 l 143 724 l 143 693 l 293 693 m 174 843 l 174 885 l 293 885 l 293 918 l 174 918 l 174 960 l 143 960 l 143 843 l 174 843 m 171 588 q 184 622 171 608 q 218 635 197 635 q 253 622 239 635 q 267 588 267 608 q 253 554 267 568 q 218 540 239 540 q 184 554 197 540 q 171 588 171 568 m 172 -61 q 178 -45 172 -51 q 192 -39 183 -39 q 207 -45 201 -39 q 213 -61 213 -51 l 213 -87 l 172 -87 l 172 -61 m 236 169 l 236 131 l 182 150 l 236 169 z "},"B":{"ha":940,"x_min":61,"x_max":915,"o":"m 61 972 l 556 972 q 788 903 701 972 q 874 710 874 835 q 847 594 874 647 q 769 506 819 542 q 876 411 838 471 q 915 279 915 351 q 824 74 915 149 q 561 0 733 0 l 61 0 l 61 972 m 488 256 q 535 274 518 256 q 553 321 553 292 q 535 368 553 350 q 488 386 518 386 l 407 386 l 407 256 l 488 256 m 478 613 q 524 630 507 613 q 540 675 540 647 q 524 720 540 703 q 478 738 507 738 l 407 738 l 407 613 l 478 613 z "},"C":{"ha":1090,"x_min":22,"x_max":1072,"o":"m 549 -22 q 275 42 394 -22 q 89 222 156 106 q 22 486 22 338 q 89 751 22 635 q 275 931 156 867 q 549 994 394 994 q 803 940 690 994 q 985 786 915 886 q 1071 553 1054 686 l 721 553 q 661 633 704 604 q 561 661 618 661 q 440 614 485 661 q 394 486 394 567 q 440 358 394 406 q 561 311 485 311 q 664 342 621 311 q 724 426 707 372 l 1072 426 q 988 190 1057 292 q 805 33 918 89 q 549 -22 692 -22 z "},"Ć":{"ha":436,"x_min":139,"x_max":297,"o":"m 174 -183 l 293 -183 l 293 -217 l 174 -217 l 174 -258 l 143 -258 l 143 -142 l 174 -142 l 174 -183 m 139 588 q 162 530 139 553 q 218 507 185 507 q 274 530 251 507 q 297 588 297 553 q 274 645 297 622 q 218 668 251 668 q 162 645 185 668 q 139 588 139 622 m 293 -119 l 293 -87 l 242 -87 l 242 -65 l 293 -36 l 293 0 l 236 -33 q 193 -6 222 -6 q 157 -20 171 -6 q 143 -58 143 -35 l 143 -119 l 293 -119 m 143 56 l 293 56 l 293 22 l 143 22 l 143 56 m 293 75 l 293 110 l 265 119 l 265 179 l 293 190 l 293 226 l 143 165 l 143 133 l 293 75 m 293 244 l 293 336 l 264 336 l 264 278 l 143 278 l 143 244 l 293 244 m 293 403 l 293 435 l 236 435 l 236 488 l 206 488 l 206 435 l 174 435 l 174 493 l 143 493 l 143 403 l 293 403 m 293 693 l 293 725 l 199 725 l 293 794 l 293 821 l 143 821 l 143 789 l 235 789 l 143 724 l 143 693 l 293 693 m 174 843 l 174 885 l 293 885 l 293 918 l 174 918 l 174 960 l 143 960 l 143 843 l 174 843 m 171 588 q 184 622 171 608 q 218 635 197 635 q 253 622 239 635 q 267 588 267 608 q 253 554 267 568 q 218 540 239 540 q 184 554 197 540 q 171 588 171 568 m 172 -61 q 178 -45 172 -51 q 192 -39 183 -39 q 207 -45 201 -39 q 213 -61 213 -51 l 213 -87 l 172 -87 l 172 -61 m 236 169 l 236 131 l 182 150 l 236 169 z "},"Č":{"ha":436,"x_min":139,"x_max":297,"o":"m 174 -183 l 293 -183 l 293 -217 l 174 -217 l 174 -258 l 143 -258 l 143 -142 l 174 -142 l 174 -183 m 139 588 q 162 530 139 553 q 218 507 185 507 q 274 530 251 507 q 297 588 297 553 q 274 645 297 622 q 218 668 251 668 q 162 645 185 668 q 139 588 139 622 m 293 -119 l 293 -87 l 242 -87 l 242 -65 l 293 -36 l 293 0 l 236 -33 q 193 -6 222 -6 q 157 -20 171 -6 q 143 -58 143 -35 l 143 -119 l 293 -119 m 143 56 l 293 56 l 293 22 l 143 22 l 143 56 m 293 75 l 293 110 l 265 119 l 265 179 l 293 190 l 293 226 l 143 165 l 143 133 l 293 75 m 293 244 l 293 336 l 264 336 l 264 278 l 143 278 l 143 244 l 293 244 m 293 403 l 293 435 l 236 435 l 236 488 l 206 488 l 206 435 l 174 435 l 174 493 l 143 493 l 143 403 l 293 403 m 293 693 l 293 725 l 199 725 l 293 794 l 293 821 l 143 821 l 143 789 l 235 789 l 143 724 l 143 693 l 293 693 m 174 843 l 174 885 l 293 885 l 293 918 l 174 918 l 174 960 l 143 960 l 143 843 l 174 843 m 171 588 q 184 622 171 608 q 218 635 197 635 q 253 622 239 635 q 267 588 267 608 q 253 554 267 568 q 218 540 239 540 q 184 554 197 540 q 171 588 171 568 m 172 -61 q 178 -45 172 -51 q 192 -39 183 -39 q 207 -45 201 -39 q 213 -61 213 -51 l 213 -87 l 172 -87 l 172 -61 m 236 169 l 236 131 l 182 150 l 236 169 z "},"Ç":{"ha":436,"x_min":139,"x_max":297,"o":"m 174 -183 l 293 -183 l 293 -217 l 174 -217 l 174 -258 l 143 -258 l 143 -142 l 174 -142 l 174 -183 m 139 588 q 162 530 139 553 q 218 507 185 507 q 274 530 251 507 q 297 588 297 553 q 274 645 297 622 q 218 668 251 668 q 162 645 185 668 q 139 588 139 622 m 293 -119 l 293 -87 l 242 -87 l 242 -65 l 293 -36 l 293 0 l 236 -33 q 193 -6 222 -6 q 157 -20 171 -6 q 143 -58 143 -35 l 143 -119 l 293 -119 m 143 56 l 293 56 l 293 22 l 143 22 l 143 56 m 293 75 l 293 110 l 265 119 l 265 179 l 293 190 l 293 226 l 143 165 l 143 133 l 293 75 m 293 244 l 293 336 l 264 336 l 264 278 l 143 278 l 143 244 l 293 244 m 293 403 l 293 435 l 236 435 l 236 488 l 206 488 l 206 435 l 174 435 l 174 493 l 143 493 l 143 403 l 293 403 m 293 693 l 293 725 l 199 725 l 293 794 l 293 821 l 143 821 l 143 789 l 235 789 l 143 724 l 143 693 l 293 693 m 174 843 l 174 885 l 293 885 l 293 918 l 174 918 l 174 960 l 143 960 l 143 843 l 174 843 m 171 588 q 184 622 171 608 q 218 635 197 635 q 253 622 239 635 q 267 588 267 608 q 253 554 267 568 q 218 540 239 540 q 184 554 197 540 q 171 588 171 568 m 172 -61 q 178 -45 172 -51 q 192 -39 183 -39 q 207 -45 201 -39 q 213 -61 213 -51 l 213 -87 l 172 -87 l 172 -61 m 236 169 l 236 131 l 182 150 l 236 169 z "},"Ĉ":{"ha":436,"x_min":139,"x_max":297,"o":"m 174 -183 l 293 -183 l 293 -217 l 174 -217 l 174 -258 l 143 -258 l 143 -142 l 174 -142 l 174 -183 m 139 588 q 162 530 139 553 q 218 507 185 507 q 274 530 251 507 q 297 588 297 553 q 274 645 297 622 q 218 668 251 668 q 162 645 185 668 q 139 588 139 622 m 293 -119 l 293 -87 l 242 -87 l 242 -65 l 293 -36 l 293 0 l 236 -33 q 193 -6 222 -6 q 157 -20 171 -6 q 143 -58 143 -35 l 143 -119 l 293 -119 m 143 56 l 293 56 l 293 22 l 143 22 l 143 56 m 293 75 l 293 110 l 265 119 l 265 179 l 293 190 l 293 226 l 143 165 l 143 133 l 293 75 m 293 244 l 293 336 l 264 336 l 264 278 l 143 278 l 143 244 l 293 244 m 293 403 l 293 435 l 236 435 l 236 488 l 206 488 l 206 435 l 174 435 l 174 493 l 143 493 l 143 403 l 293 403 m 293 693 l 293 725 l 199 725 l 293 794 l 293 821 l 143 821 l 143 789 l 235 789 l 143 724 l 143 693 l 293 693 m 174 843 l 174 885 l 293 885 l 293 918 l 174 918 l 174 960 l 143 960 l 143 843 l 174 843 m 171 588 q 184 622 171 608 q 218 635 197 635 q 253 622 239 635 q 267 588 267 608 q 253 554 267 568 q 218 540 239 540 q 184 554 197 540 q 171 588 171 568 m 172 -61 q 178 -45 172 -51 q 192 -39 183 -39 q 207 -45 201 -39 q 213 -61 213 -51 l 213 -87 l 172 -87 l 172 -61 m 236 169 l 236 131 l 182 150 l 236 169 z "},"Ċ":{"ha":436,"x_min":139,"x_max":297,"o":"m 174 -183 l 293 -183 l 293 -217 l 174 -217 l 174 -258 l 143 -258 l 143 -142 l 174 -142 l 174 -183 m 139 588 q 162 530 139 553 q 218 507 185 507 q 274 530 251 507 q 297 588 297 553 q 274 645 297 622 q 218 668 251 668 q 162 645 185 668 q 139 588 139 622 m 293 -119 l 293 -87 l 242 -87 l 242 -65 l 293 -36 l 293 0 l 236 -33 q 193 -6 222 -6 q 157 -20 171 -6 q 143 -58 143 -35 l 143 -119 l 293 -119 m 143 56 l 293 56 l 293 22 l 143 22 l 143 56 m 293 75 l 293 110 l 265 119 l 265 179 l 293 190 l 293 226 l 143 165 l 143 133 l 293 75 m 293 244 l 293 336 l 264 336 l 264 278 l 143 278 l 143 244 l 293 244 m 293 403 l 293 435 l 236 435 l 236 488 l 206 488 l 206 435 l 174 435 l 174 493 l 143 493 l 143 403 l 293 403 m 293 693 l 293 725 l 199 725 l 293 794 l 293 821 l 143 821 l 143 789 l 235 789 l 143 724 l 143 693 l 293 693 m 174 843 l 174 885 l 293 885 l 293 918 l 174 918 l 174 960 l 143 960 l 143 843 l 174 843 m 171 588 q 184 622 171 608 q 218 635 197 635 q 253 622 239 635 q 267 588 267 608 q 253 554 267 568 q 218 540 239 540 q 184 554 197 540 q 171 588 171 568 m 172 -61 q 178 -45 172 -51 q 192 -39 183 -39 q 207 -45 201 -39 q 213 -61 213 -51 l 213 -87 l 172 -87 l 172 -61 m 236 169 l 236 131 l 182 150 l 236 169 z "},"D":{"ha":1049,"x_min":61,"x_max":1026,"o":"m 61 972 l 506 972 q 779 912 661 972 q 962 741 897 851 q 1026 486 1026 631 q 962 231 1026 342 q 779 60 897 121 q 506 0 661 0 l 61 0 l 61 972 m 494 310 q 611 357 568 310 q 654 486 654 404 q 611 615 654 568 q 494 663 568 663 l 436 663 l 436 310 l 494 310 z "},"Ð":{"ha":436,"x_min":139,"x_max":297,"o":"m 174 -183 l 293 -183 l 293 -217 l 174 -217 l 174 -258 l 143 -258 l 143 -142 l 174 -142 l 174 -183 m 139 588 q 162 530 139 553 q 218 507 185 507 q 274 530 251 507 q 297 588 297 553 q 274 645 297 622 q 218 668 251 668 q 162 645 185 668 q 139 588 139 622 m 293 -119 l 293 -87 l 242 -87 l 242 -65 l 293 -36 l 293 0 l 236 -33 q 193 -6 222 -6 q 157 -20 171 -6 q 143 -58 143 -35 l 143 -119 l 293 -119 m 143 56 l 293 56 l 293 22 l 143 22 l 143 56 m 293 75 l 293 110 l 265 119 l 265 179 l 293 190 l 293 226 l 143 165 l 143 133 l 293 75 m 293 244 l 293 336 l 264 336 l 264 278 l 143 278 l 143 244 l 293 244 m 293 403 l 293 435 l 236 435 l 236 488 l 206 488 l 206 435 l 174 435 l 174 493 l 143 493 l 143 403 l 293 403 m 293 693 l 293 725 l 199 725 l 293 794 l 293 821 l 143 821 l 143 789 l 235 789 l 143 724 l 143 693 l 293 693 m 174 843 l 174 885 l 293 885 l 293 918 l 174 918 l 174 960 l 143 960 l 143 843 l 174 843 m 171 588 q 184 622 171 608 q 218 635 197 635 q 253 622 239 635 q 267 588 267 608 q 253 554 267 568 q 218 540 239 540 q 184 554 197 540 q 171 588 171 568 m 172 -61 q 178 -45 172 -51 q 192 -39 183 -39 q 207 -45 201 -39 q 213 -61 213 -51 l 213 -87 l 172 -87 l 172 -61 m 236 169 l 236 131 l 182 150 l 236 169 z "},"Ď":{"ha":436,"x_min":139,"x_max":297,"o":"m 174 -183 l 293 -183 l 293 -217 l 174 -217 l 174 -258 l 143 -258 l 143 -142 l 174 -142 l 174 -183 m 139 588 q 162 530 139 553 q 218 507 185 507 q 274 530 251 507 q 297 588 297 553 q 274 645 297 622 q 218 668 251 668 q 162 645 185 668 q 139 588 139 622 m 293 -119 l 293 -87 l 242 -87 l 242 -65 l 293 -36 l 293 0 l 236 -33 q 193 -6 222 -6 q 157 -20 171 -6 q 143 -58 143 -35 l 143 -119 l 293 -119 m 143 56 l 293 56 l 293 22 l 143 22 l 143 56 m 293 75 l 293 110 l 265 119 l 265 179 l 293 190 l 293 226 l 143 165 l 143 133 l 293 75 m 293 244 l 293 336 l 264 336 l 264 278 l 143 278 l 143 244 l 293 244 m 293 403 l 293 435 l 236 435 l 236 488 l 206 488 l 206 435 l 174 435 l 174 493 l 143 493 l 143 403 l 293 403 m 293 693 l 293 725 l 199 725 l 293 794 l 293 821 l 143 821 l 143 789 l 235 789 l 143 724 l 143 693 l 293 693 m 174 843 l 174 885 l 293 885 l 293 918 l 174 918 l 174 960 l 143 960 l 143 843 l 174 843 m 171 588 q 184 622 171 608 q 218 635 197 635 q 253 622 239 635 q 267 588 267 608 q 253 554 267 568 q 218 540 239 540 q 184 554 197 540 q 171 588 171 568 m 172 -61 q 178 -45 172 -51 q 192 -39 183 -39 q 207 -45 201 -39 q 213 -61 213 -51 l 213 -87 l 172 -87 l 172 -61 m 236 169 l 236 131 l 182 150 l 236 169 z "},"Đ":{"ha":436,"x_min":139,"x_max":297,"o":"m 174 -183 l 293 -183 l 293 -217 l 174 -217 l 174 -258 l 143 -258 l 143 -142 l 174 -142 l 174 -183 m 139 588 q 162 530 139 553 q 218 507 185 507 q 274 530 251 507 q 297 588 297 553 q 274 645 297 622 q 218 668 251 668 q 162 645 185 668 q 139 588 139 622 m 293 -119 l 293 -87 l 242 -87 l 242 -65 l 293 -36 l 293 0 l 236 -33 q 193 -6 222 -6 q 157 -20 171 -6 q 143 -58 143 -35 l 143 -119 l 293 -119 m 143 56 l 293 56 l 293 22 l 143 22 l 143 56 m 293 75 l 293 110 l 265 119 l 265 179 l 293 190 l 293 226 l 143 165 l 143 133 l 293 75 m 293 244 l 293 336 l 264 336 l 264 278 l 143 278 l 143 244 l 293 244 m 293 403 l 293 435 l 236 435 l 236 488 l 206 488 l 206 435 l 174 435 l 174 493 l 143 493 l 143 403 l 293 403 m 293 693 l 293 725 l 199 725 l 293 794 l 293 821 l 143 821 l 143 789 l 235 789 l 143 724 l 143 693 l 293 693 m 174 843 l 174 885 l 293 885 l 293 918 l 174 918 l 174 960 l 143 960 l 143 843 l 174 843 m 171 588 q 184 622 171 608 q 218 635 197 635 q 253 622 239 635 q 267 588 267 608 q 253 554 267 568 q 218 540 239 540 q 184 554 197 540 q 171 588 171 568 m 172 -61 q 178 -45 172 -51 q 192 -39 183 -39 q 207 -45 201 -39 q 213 -61 213 -51 l 213 -87 l 172 -87 l 172 -61 m 236 169 l 236 131 l 182 150 l 236 169 z "},"E":{"ha":813,"x_min":61,"x_max":764,"o":"m 61 972 l 757 972 l 757 701 l 418 701 l 418 619 l 728 619 l 728 360 l 418 360 l 418 276 l 764 276 l 764 0 l 61 0 l 61 972 z "},"É":{"ha":436,"x_min":139,"x_max":297,"o":"m 174 -183 l 293 -183 l 293 -217 l 174 -217 l 174 -258 l 143 -258 l 143 -142 l 174 -142 l 174 -183 m 139 588 q 162 530 139 553 q 218 507 185 507 q 274 530 251 507 q 297 588 297 553 q 274 645 297 622 q 218 668 251 668 q 162 645 185 668 q 139 588 139 622 m 293 -119 l 293 -87 l 242 -87 l 242 -65 l 293 -36 l 293 0 l 236 -33 q 193 -6 222 -6 q 157 -20 171 -6 q 143 -58 143 -35 l 143 -119 l 293 -119 m 143 56 l 293 56 l 293 22 l 143 22 l 143 56 m 293 75 l 293 110 l 265 119 l 265 179 l 293 190 l 293 226 l 143 165 l 143 133 l 293 75 m 293 244 l 293 336 l 264 336 l 264 278 l 143 278 l 143 244 l 293 244 m 293 403 l 293 435 l 236 435 l 236 488 l 206 488 l 206 435 l 174 435 l 174 493 l 143 493 l 143 403 l 293 403 m 293 693 l 293 725 l 199 725 l 293 794 l 293 821 l 143 821 l 143 789 l 235 789 l 143 724 l 143 693 l 293 693 m 174 843 l 174 885 l 293 885 l 293 918 l 174 918 l 174 960 l 143 960 l 143 843 l 174 843 m 171 588 q 184 622 171 608 q 218 635 197 635 q 253 622 239 635 q 267 588 267 608 q 253 554 267 568 q 218 540 239 540 q 184 554 197 540 q 171 588 171 568 m 172 -61 q 178 -45 172 -51 q 192 -39 183 -39 q 207 -45 201 -39 q 213 -61 213 -51 l 213 -87 l 172 -87 l 172 -61 m 236 169 l 236 131 l 182 150 l 236 169 z "},"Ĕ":{"ha":436,"x_min":139,"x_max":297,"o":"m 174 -183 l 293 -183 l 293 -217 l 174 -217 l 174 -258 l 143 -258 l 143 -142 l 174 -142 l 174 -183 m 139 588 q 162 530 139 553 q 218 507 185 507 q 274 530 251 507 q 297 588 297 553 q 274 645 297 622 q 218 668 251 668 q 162 645 185 668 q 139 588 139 622 m 293 -119 l 293 -87 l 242 -87 l 242 -65 l 293 -36 l 293 0 l 236 -33 q 193 -6 222 -6 q 157 -20 171 -6 q 143 -58 143 -35 l 143 -119 l 293 -119 m 143 56 l 293 56 l 293 22 l 143 22 l 143 56 m 293 75 l 293 110 l 265 119 l 265 179 l 293 190 l 293 226 l 143 165 l 143 133 l 293 75 m 293 244 l 293 336 l 264 336 l 264 278 l 143 278 l 143 244 l 293 244 m 293 403 l 293 435 l 236 435 l 236 488 l 206 488 l 206 435 l 174 435 l 174 493 l 143 493 l 143 403 l 293 403 m 293 693 l 293 725 l 199 725 l 293 794 l 293 821 l 143 821 l 143 789 l 235 789 l 143 724 l 143 693 l 293 693 m 174 843 l 174 885 l 293 885 l 293 918 l 174 918 l 174 960 l 143 960 l 143 843 l 174 843 m 171 588 q 184 622 171 608 q 218 635 197 635 q 253 622 239 635 q 267 588 267 608 q 253 554 267 568 q 218 540 239 540 q 184 554 197 540 q 171 588 171 568 m 172 -61 q 178 -45 172 -51 q 192 -39 183 -39 q 207 -45 201 -39 q 213 -61 213 -51 l 213 -87 l 172 -87 l 172 -61 m 236 169 l 236 131 l 182 150 l 236 169 z "},"Ě":{"ha":436,"x_min":139,"x_max":297,"o":"m 174 -183 l 293 -183 l 293 -217 l 174 -217 l 174 -258 l 143 -258 l 143 -142 l 174 -142 l 174 -183 m 139 588 q 162 530 139 553 q 218 507 185 507 q 274 530 251 507 q 297 588 297 553 q 274 645 297 622 q 218 668 251 668 q 162 645 185 668 q 139 588 139 622 m 293 -119 l 293 -87 l 242 -87 l 242 -65 l 293 -36 l 293 0 l 236 -33 q 193 -6 222 -6 q 157 -20 171 -6 q 143 -58 143 -35 l 143 -119 l 293 -119 m 143 56 l 293 56 l 293 22 l 143 22 l 143 56 m 293 75 l 293 110 l 265 119 l 265 179 l 293 190 l 293 226 l 143 165 l 143 133 l 293 75 m 293 244 l 293 336 l 264 336 l 264 278 l 143 278 l 143 244 l 293 244 m 293 403 l 293 435 l 236 435 l 236 488 l 206 488 l 206 435 l 174 435 l 174 493 l 143 493 l 143 403 l 293 403 m 293 693 l 293 725 l 199 725 l 293 794 l 293 821 l 143 821 l 143 789 l 235 789 l 143 724 l 143 693 l 293 693 m 174 843 l 174 885 l 293 885 l 293 918 l 174 918 l 174 960 l 143 960 l 143 843 l 174 843 m 171 588 q 184 622 171 608 q 218 635 197 635 q 253 622 239 635 q 267 588 267 608 q 253 554 267 568 q 218 540 239 540 q 184 554 197 540 q 171 588 171 568 m 172 -61 q 178 -45 172 -51 q 192 -39 183 -39 q 207 -45 201 -39 q 213 -61 213 -51 l 213 -87 l 172 -87 l 172 -61 m 236 169 l 236 131 l 182 150 l 236 169 z "},"Ê":{"ha":436,"x_min":139,"x_max":297,"o":"m 174 -183 l 293 -183 l 293 -217 l 174 -217 l 174 -258 l 143 -258 l 143 -142 l 174 -142 l 174 -183 m 139 588 q 162 530 139 553 q 218 507 185 507 q 274 530 251 507 q 297 588 297 553 q 274 645 297 622 q 218 668 251 668 q 162 645 185 668 q 139 588 139 622 m 293 -119 l 293 -87 l 242 -87 l 242 -65 l 293 -36 l 293 0 l 236 -33 q 193 -6 222 -6 q 157 -20 171 -6 q 143 -58 143 -35 l 143 -119 l 293 -119 m 143 56 l 293 56 l 293 22 l 143 22 l 143 56 m 293 75 l 293 110 l 265 119 l 265 179 l 293 190 l 293 226 l 143 165 l 143 133 l 293 75 m 293 244 l 293 336 l 264 336 l 264 278 l 143 278 l 143 244 l 293 244 m 293 403 l 293 435 l 236 435 l 236 488 l 206 488 l 206 435 l 174 435 l 174 493 l 143 493 l 143 403 l 293 403 m 293 693 l 293 725 l 199 725 l 293 794 l 293 821 l 143 821 l 143 789 l 235 789 l 143 724 l 143 693 l 293 693 m 174 843 l 174 885 l 293 885 l 293 918 l 174 918 l 174 960 l 143 960 l 143 843 l 174 843 m 171 588 q 184 622 171 608 q 218 635 197 635 q 253 622 239 635 q 267 588 267 608 q 253 554 267 568 q 218 540 239 540 q 184 554 197 540 q 171 588 171 568 m 172 -61 q 178 -45 172 -51 q 192 -39 183 -39 q 207 -45 201 -39 q 213 -61 213 -51 l 213 -87 l 172 -87 l 172 -61 m 236 169 l 236 131 l 182 150 l 236 169 z "},"Ë":{"ha":436,"x_min":139,"x_max":297,"o":"m 174 -183 l 293 -183 l 293 -217 l 174 -217 l 174 -258 l 143 -258 l 143 -142 l 174 -142 l 174 -183 m 139 588 q 162 530 139 553 q 218 507 185 507 q 274 530 251 507 q 297 588 297 553 q 274 645 297 622 q 218 668 251 668 q 162 645 185 668 q 139 588 139 622 m 293 -119 l 293 -87 l 242 -87 l 242 -65 l 293 -36 l 293 0 l 236 -33 q 193 -6 222 -6 q 157 -20 171 -6 q 143 -58 143 -35 l 143 -119 l 293 -119 m 143 56 l 293 56 l 293 22 l 143 22 l 143 56 m 293 75 l 293 110 l 265 119 l 265 179 l 293 190 l 293 226 l 143 165 l 143 133 l 293 75 m 293 244 l 293 336 l 264 336 l 264 278 l 143 278 l 143 244 l 293 244 m 293 403 l 293 435 l 236 435 l 236 488 l 206 488 l 206 435 l 174 435 l 174 493 l 143 493 l 143 403 l 293 403 m 293 693 l 293 725 l 199 725 l 293 794 l 293 821 l 143 821 l 143 789 l 235 789 l 143 724 l 143 693 l 293 693 m 174 843 l 174 885 l 293 885 l 293 918 l 174 918 l 174 960 l 143 960 l 143 843 l 174 843 m 171 588 q 184 622 171 608 q 218 635 197 635 q 253 622 239 635 q 267 588 267 608 q 253 554 267 568 q 218 540 239 540 q 184 554 197 540 q 171 588 171 568 m 172 -61 q 178 -45 172 -51 q 192 -39 183 -39 q 207 -45 201 -39 q 213 -61 213 -51 l 213 -87 l 172 -87 l 172 -61 m 236 169 l 236 131 l 182 150 l 236 169 z "},"Ė":{"ha":436,"x_min":139,"x_max":297,"o":"m 174 -183 l 293 -183 l 293 -217 l 174 -217 l 174 -258 l 143 -258 l 143 -142 l 174 -142 l 174 -183 m 139 588 q 162 530 139 553 q 218 507 185 507 q 274 530 251 507 q 297 588 297 553 q 274 645 297 622 q 218 668 251 668 q 162 645 185 668 q 139 588 139 622 m 293 -119 l 293 -87 l 242 -87 l 242 -65 l 293 -36 l 293 0 l 236 -33 q 193 -6 222 -6 q 157 -20 171 -6 q 143 -58 143 -35 l 143 -119 l 293 -119 m 143 56 l 293 56 l 293 22 l 143 22 l 143 56 m 293 75 l 293 110 l 265 119 l 265 179 l 293 190 l 293 226 l 143 165 l 143 133 l 293 75 m 293 244 l 293 336 l 264 336 l 264 278 l 143 278 l 143 244 l 293 244 m 293 403 l 293 435 l 236 435 l 236 488 l 206 488 l 206 435 l 174 435 l 174 493 l 143 493 l 143 403 l 293 403 m 293 693 l 293 725 l 199 725 l 293 794 l 293 821 l 143 821 l 143 789 l 235 789 l 143 724 l 143 693 l 293 693 m 174 843 l 174 885 l 293 885 l 293 918 l 174 918 l 174 960 l 143 960 l 143 843 l 174 843 m 171 588 q 184 622 171 608 q 218 635 197 635 q 253 622 239 635 q 267 588 267 608 q 253 554 267 568 q 218 540 239 540 q 184 554 197 540 q 171 588 171 568 m 172 -61 q 178 -45 172 -51 q 192 -39 183 -39 q 207 -45 201 -39 q 213 -61 213 -51 l 213 -87 l 172 -87 l 172 -61 m 236 169 l 236 131 l 182 150 l 236 169 z "},"È":{"ha":436,"x_min":139,"x_max":297,"o":"m 174 -183 l 293 -183 l 293 -217 l 174 -217 l 174 -258 l 143 -258 l 143 -142 l 174 -142 l 174 -183 m 139 588 q 162 530 139 553 q 218 507 185 507 q 274 530 251 507 q 297 588 297 553 q 274 645 297 622 q 218 668 251 668 q 162 645 185 668 q 139 588 139 622 m 293 -119 l 293 -87 l 242 -87 l 242 -65 l 293 -36 l 293 0 l 236 -33 q 193 -6 222 -6 q 157 -20 171 -6 q 143 -58 143 -35 l 143 -119 l 293 -119 m 143 56 l 293 56 l 293 22 l 143 22 l 143 56 m 293 75 l 293 110 l 265 119 l 265 179 l 293 190 l 293 226 l 143 165 l 143 133 l 293 75 m 293 244 l 293 336 l 264 336 l 264 278 l 143 278 l 143 244 l 293 244 m 293 403 l 293 435 l 236 435 l 236 488 l 206 488 l 206 435 l 174 435 l 174 493 l 143 493 l 143 403 l 293 403 m 293 693 l 293 725 l 199 725 l 293 794 l 293 821 l 143 821 l 143 789 l 235 789 l 143 724 l 143 693 l 293 693 m 174 843 l 174 885 l 293 885 l 293 918 l 174 918 l 174 960 l 143 960 l 143 843 l 174 843 m 171 588 q 184 622 171 608 q 218 635 197 635 q 253 622 239 635 q 267 588 267 608 q 253 554 267 568 q 218 540 239 540 q 184 554 197 540 q 171 588 171 568 m 172 -61 q 178 -45 172 -51 q 192 -39 183 -39 q 207 -45 201 -39 q 213 -61 213 -51 l 213 -87 l 172 -87 l 172 -61 m 236 169 l 236 131 l 182 150 l 236 169 z "},"Ē":{"ha":436,"x_min":139,"x_max":297,"o":"m 174 -183 l 293 -183 l 293 -217 l 174 -217 l 174 -258 l 143 -258 l 143 -142 l 174 -142 l 174 -183 m 139 588 q 162 530 139 553 q 218 507 185 507 q 274 530 251 507 q 297 588 297 553 q 274 645 297 622 q 218 668 251 668 q 162 645 185 668 q 139 588 139 622 m 293 -119 l 293 -87 l 242 -87 l 242 -65 l 293 -36 l 293 0 l 236 -33 q 193 -6 222 -6 q 157 -20 171 -6 q 143 -58 143 -35 l 143 -119 l 293 -119 m 143 56 l 293 56 l 293 22 l 143 22 l 143 56 m 293 75 l 293 110 l 265 119 l 265 179 l 293 190 l 293 226 l 143 165 l 143 133 l 293 75 m 293 244 l 293 336 l 264 336 l 264 278 l 143 278 l 143 244 l 293 244 m 293 403 l 293 435 l 236 435 l 236 488 l 206 488 l 206 435 l 174 435 l 174 493 l 143 493 l 143 403 l 293 403 m 293 693 l 293 725 l 199 725 l 293 794 l 293 821 l 143 821 l 143 789 l 235 789 l 143 724 l 143 693 l 293 693 m 174 843 l 174 885 l 293 885 l 293 918 l 174 918 l 174 960 l 143 960 l 143 843 l 174 843 m 171 588 q 184 622 171 608 q 218 635 197 635 q 253 622 239 635 q 267 588 267 608 q 253 554 267 568 q 218 540 239 540 q 184 554 197 540 q 171 588 171 568 m 172 -61 q 178 -45 172 -51 q 192 -39 183 -39 q 207 -45 201 -39 q 213 -61 213 -51 l 213 -87 l 172 -87 l 172 -61 m 236 169 l 236 131 l 182 150 l 236 169 z "},"Ę":{"ha":436,"x_min":139,"x_max":297,"o":"m 174 -183 l 293 -183 l 293 -217 l 174 -217 l 174 -258 l 143 -258 l 143 -142 l 174 -142 l 174 -183 m 139 588 q 162 530 139 553 q 218 507 185 507 q 274 530 251 507 q 297 588 297 553 q 274 645 297 622 q 218 668 251 668 q 162 645 185 668 q 139 588 139 622 m 293 -119 l 293 -87 l 242 -87 l 242 -65 l 293 -36 l 293 0 l 236 -33 q 193 -6 222 -6 q 157 -20 171 -6 q 143 -58 143 -35 l 143 -119 l 293 -119 m 143 56 l 293 56 l 293 22 l 143 22 l 143 56 m 293 75 l 293 110 l 265 119 l 265 179 l 293 190 l 293 226 l 143 165 l 143 133 l 293 75 m 293 244 l 293 336 l 264 336 l 264 278 l 143 278 l 143 244 l 293 244 m 293 403 l 293 435 l 236 435 l 236 488 l 206 488 l 206 435 l 174 435 l 174 493 l 143 493 l 143 403 l 293 403 m 293 693 l 293 725 l 199 725 l 293 794 l 293 821 l 143 821 l 143 789 l 235 789 l 143 724 l 143 693 l 293 693 m 174 843 l 174 885 l 293 885 l 293 918 l 174 918 l 174 960 l 143 960 l 143 843 l 174 843 m 171 588 q 184 622 171 608 q 218 635 197 635 q 253 622 239 635 q 267 588 267 608 q 253 554 267 568 q 218 540 239 540 q 184 554 197 540 q 171 588 171 568 m 172 -61 q 178 -45 172 -51 q 192 -39 183 -39 q 207 -45 201 -39 q 213 -61 213 -51 l 213 -87 l 172 -87 l 172 -61 m 236 169 l 236 131 l 182 150 l 236 169 z "},"Ẽ":{"ha":436,"x_min":139,"x_max":297,"o":"m 174 -183 l 293 -183 l 293 -217 l 174 -217 l 174 -258 l 143 -258 l 143 -142 l 174 -142 l 174 -183 m 139 588 q 162 530 139 553 q 218 507 185 507 q 274 530 251 507 q 297 588 297 553 q 274 645 297 622 q 218 668 251 668 q 162 645 185 668 q 139 588 139 622 m 293 -119 l 293 -87 l 242 -87 l 242 -65 l 293 -36 l 293 0 l 236 -33 q 193 -6 222 -6 q 157 -20 171 -6 q 143 -58 143 -35 l 143 -119 l 293 -119 m 143 56 l 293 56 l 293 22 l 143 22 l 143 56 m 293 75 l 293 110 l 265 119 l 265 179 l 293 190 l 293 226 l 143 165 l 143 133 l 293 75 m 293 244 l 293 336 l 264 336 l 264 278 l 143 278 l 143 244 l 293 244 m 293 403 l 293 435 l 236 435 l 236 488 l 206 488 l 206 435 l 174 435 l 174 493 l 143 493 l 143 403 l 293 403 m 293 693 l 293 725 l 199 725 l 293 794 l 293 821 l 143 821 l 143 789 l 235 789 l 143 724 l 143 693 l 293 693 m 174 843 l 174 885 l 293 885 l 293 918 l 174 918 l 174 960 l 143 960 l 143 843 l 174 843 m 171 588 q 184 622 171 608 q 218 635 197 635 q 253 622 239 635 q 267 588 267 608 q 253 554 267 568 q 218 540 239 540 q 184 554 197 540 q 171 588 171 568 m 172 -61 q 178 -45 172 -51 q 192 -39 183 -39 q 207 -45 201 -39 q 213 -61 213 -51 l 213 -87 l 172 -87 l 172 -61 m 236 169 l 236 131 l 182 150 l 236 169 z "},"F":{"ha":772,"x_min":61,"x_max":728,"o":"m 61 972 l 728 972 l 728 669 l 432 669 l 432 574 l 701 574 l 701 286 l 436 286 l 436 0 l 61 0 l 61 972 z "},"G":{"ha":1099,"x_min":22,"x_max":1078,"o":"m 549 -22 q 275 42 394 -22 q 89 222 156 106 q 22 486 22 338 q 89 751 22 635 q 275 931 156 867 q 549 994 394 994 q 889 891 753 994 q 1065 607 1025 788 l 704 607 q 642 654 676 639 q 561 669 608 669 q 433 617 482 669 q 383 482 383 565 q 432 347 383 399 q 561 296 481 296 q 710 363 661 296 l 525 363 l 525 554 l 1075 554 q 1078 493 1078 513 q 1008 223 1078 340 q 818 42 939 106 q 549 -22 697 -22 z "},"Ğ":{"ha":436,"x_min":139,"x_max":297,"o":"m 174 -183 l 293 -183 l 293 -217 l 174 -217 l 174 -258 l 143 -258 l 143 -142 l 174 -142 l 174 -183 m 139 588 q 162 530 139 553 q 218 507 185 507 q 274 530 251 507 q 297 588 297 553 q 274 645 297 622 q 218 668 251 668 q 162 645 185 668 q 139 588 139 622 m 293 -119 l 293 -87 l 242 -87 l 242 -65 l 293 -36 l 293 0 l 236 -33 q 193 -6 222 -6 q 157 -20 171 -6 q 143 -58 143 -35 l 143 -119 l 293 -119 m 143 56 l 293 56 l 293 22 l 143 22 l 143 56 m 293 75 l 293 110 l 265 119 l 265 179 l 293 190 l 293 226 l 143 165 l 143 133 l 293 75 m 293 244 l 293 336 l 264 336 l 264 278 l 143 278 l 143 244 l 293 244 m 293 403 l 293 435 l 236 435 l 236 488 l 206 488 l 206 435 l 174 435 l 174 493 l 143 493 l 143 403 l 293 403 m 293 693 l 293 725 l 199 725 l 293 794 l 293 821 l 143 821 l 143 789 l 235 789 l 143 724 l 143 693 l 293 693 m 174 843 l 174 885 l 293 885 l 293 918 l 174 918 l 174 960 l 143 960 l 143 843 l 174 843 m 171 588 q 184 622 171 608 q 218 635 197 635 q 253 622 239 635 q 267 588 267 608 q 253 554 267 568 q 218 540 239 540 q 184 554 197 540 q 171 588 171 568 m 172 -61 q 178 -45 172 -51 q 192 -39 183 -39 q 207 -45 201 -39 q 213 -61 213 -51 l 213 -87 l 172 -87 l 172 -61 m 236 169 l 236 131 l 182 150 l 236 169 z "},"Ǧ":{"ha":436,"x_min":139,"x_max":297,"o":"m 174 -183 l 293 -183 l 293 -217 l 174 -217 l 174 -258 l 143 -258 l 143 -142 l 174 -142 l 174 -183 m 139 588 q 162 530 139 553 q 218 507 185 507 q 274 530 251 507 q 297 588 297 553 q 274 645 297 622 q 218 668 251 668 q 162 645 185 668 q 139 588 139 622 m 293 -119 l 293 -87 l 242 -87 l 242 -65 l 293 -36 l 293 0 l 236 -33 q 193 -6 222 -6 q 157 -20 171 -6 q 143 -58 143 -35 l 143 -119 l 293 -119 m 143 56 l 293 56 l 293 22 l 143 22 l 143 56 m 293 75 l 293 110 l 265 119 l 265 179 l 293 190 l 293 226 l 143 165 l 143 133 l 293 75 m 293 244 l 293 336 l 264 336 l 264 278 l 143 278 l 143 244 l 293 244 m 293 403 l 293 435 l 236 435 l 236 488 l 206 488 l 206 435 l 174 435 l 174 493 l 143 493 l 143 403 l 293 403 m 293 693 l 293 725 l 199 725 l 293 794 l 293 821 l 143 821 l 143 789 l 235 789 l 143 724 l 143 693 l 293 693 m 174 843 l 174 885 l 293 885 l 293 918 l 174 918 l 174 960 l 143 960 l 143 843 l 174 843 m 171 588 q 184 622 171 608 q 218 635 197 635 q 253 622 239 635 q 267 588 267 608 q 253 554 267 568 q 218 540 239 540 q 184 554 197 540 q 171 588 171 568 m 172 -61 q 178 -45 172 -51 q 192 -39 183 -39 q 207 -45 201 -39 q 213 -61 213 -51 l 213 -87 l 172 -87 l 172 -61 m 236 169 l 236 131 l 182 150 l 236 169 z "},"Ĝ":{"ha":436,"x_min":139,"x_max":297,"o":"m 174 -183 l 293 -183 l 293 -217 l 174 -217 l 174 -258 l 143 -258 l 143 -142 l 174 -142 l 174 -183 m 139 588 q 162 530 139 553 q 218 507 185 507 q 274 530 251 507 q 297 588 297 553 q 274 645 297 622 q 218 668 251 668 q 162 645 185 668 q 139 588 139 622 m 293 -119 l 293 -87 l 242 -87 l 242 -65 l 293 -36 l 293 0 l 236 -33 q 193 -6 222 -6 q 157 -20 171 -6 q 143 -58 143 -35 l 143 -119 l 293 -119 m 143 56 l 293 56 l 293 22 l 143 22 l 143 56 m 293 75 l 293 110 l 265 119 l 265 179 l 293 190 l 293 226 l 143 165 l 143 133 l 293 75 m 293 244 l 293 336 l 264 336 l 264 278 l 143 278 l 143 244 l 293 244 m 293 403 l 293 435 l 236 435 l 236 488 l 206 488 l 206 435 l 174 435 l 174 493 l 143 493 l 143 403 l 293 403 m 293 693 l 293 725 l 199 725 l 293 794 l 293 821 l 143 821 l 143 789 l 235 789 l 143 724 l 143 693 l 293 693 m 174 843 l 174 885 l 293 885 l 293 918 l 174 918 l 174 960 l 143 960 l 143 843 l 174 843 m 171 588 q 184 622 171 608 q 218 635 197 635 q 253 622 239 635 q 267 588 267 608 q 253 554 267 568 q 218 540 239 540 q 184 554 197 540 q 171 588 171 568 m 172 -61 q 178 -45 172 -51 q 192 -39 183 -39 q 207 -45 201 -39 q 213 -61 213 -51 l 213 -87 l 172 -87 l 172 -61 m 236 169 l 236 131 l 182 150 l 236 169 z "},"Ģ":{"ha":436,"x_min":139,"x_max":297,"o":"m 174 -183 l 293 -183 l 293 -217 l 174 -217 l 174 -258 l 143 -258 l 143 -142 l 174 -142 l 174 -183 m 139 588 q 162 530 139 553 q 218 507 185 507 q 274 530 251 507 q 297 588 297 553 q 274 645 297 622 q 218 668 251 668 q 162 645 185 668 q 139 588 139 622 m 293 -119 l 293 -87 l 242 -87 l 242 -65 l 293 -36 l 293 0 l 236 -33 q 193 -6 222 -6 q 157 -20 171 -6 q 143 -58 143 -35 l 143 -119 l 293 -119 m 143 56 l 293 56 l 293 22 l 143 22 l 143 56 m 293 75 l 293 110 l 265 119 l 265 179 l 293 190 l 293 226 l 143 165 l 143 133 l 293 75 m 293 244 l 293 336 l 264 336 l 264 278 l 143 278 l 143 244 l 293 244 m 293 403 l 293 435 l 236 435 l 236 488 l 206 488 l 206 435 l 174 435 l 174 493 l 143 493 l 143 403 l 293 403 m 293 693 l 293 725 l 199 725 l 293 794 l 293 821 l 143 821 l 143 789 l 235 789 l 143 724 l 143 693 l 293 693 m 174 843 l 174 885 l 293 885 l 293 918 l 174 918 l 174 960 l 143 960 l 143 843 l 174 843 m 171 588 q 184 622 171 608 q 218 635 197 635 q 253 622 239 635 q 267 588 267 608 q 253 554 267 568 q 218 540 239 540 q 184 554 197 540 q 171 588 171 568 m 172 -61 q 178 -45 172 -51 q 192 -39 183 -39 q 207 -45 201 -39 q 213 -61 213 -51 l 213 -87 l 172 -87 l 172 -61 m 236 169 l 236 131 l 182 150 l 236 169 z "},"Ġ":{"ha":436,"x_min":139,"x_max":297,"o":"m 174 -183 l 293 -183 l 293 -217 l 174 -217 l 174 -258 l 143 -258 l 143 -142 l 174 -142 l 174 -183 m 139 588 q 162 530 139 553 q 218 507 185 507 q 274 530 251 507 q 297 588 297 553 q 274 645 297 622 q 218 668 251 668 q 162 645 185 668 q 139 588 139 622 m 293 -119 l 293 -87 l 242 -87 l 242 -65 l 293 -36 l 293 0 l 236 -33 q 193 -6 222 -6 q 157 -20 171 -6 q 143 -58 143 -35 l 143 -119 l 293 -119 m 143 56 l 293 56 l 293 22 l 143 22 l 143 56 m 293 75 l 293 110 l 265 119 l 265 179 l 293 190 l 293 226 l 143 165 l 143 133 l 293 75 m 293 244 l 293 336 l 264 336 l 264 278 l 143 278 l 143 244 l 293 244 m 293 403 l 293 435 l 236 435 l 236 488 l 206 488 l 206 435 l 174 435 l 174 493 l 143 493 l 143 403 l 293 403 m 293 693 l 293 725 l 199 725 l 293 794 l 293 821 l 143 821 l 143 789 l 235 789 l 143 724 l 143 693 l 293 693 m 174 843 l 174 885 l 293 885 l 293 918 l 174 918 l 174 960 l 143 960 l 143 843 l 174 843 m 171 588 q 184 622 171 608 q 218 635 197 635 q 253 622 239 635 q 267 588 267 608 q 253 554 267 568 q 218 540 239 540 q 184 554 197 540 q 171 588 171 568 m 172 -61 q 178 -45 172 -51 q 192 -39 183 -39 q 207 -45 201 -39 q 213 -61 213 -51 l 213 -87 l 172 -87 l 172 -61 m 236 169 l 236 131 l 182 150 l 236 169 z "},"H":{"ha":1039,"x_min":61,"x_max":978,"o":"m 603 318 l 436 318 l 436 0 l 61 0 l 61 972 l 436 972 l 436 668 l 603 668 l 603 972 l 978 972 l 978 0 l 603 0 l 603 318 z "},"Ħ":{"ha":436,"x_min":139,"x_max":297,"o":"m 174 -183 l 293 -183 l 293 -217 l 174 -217 l 174 -258 l 143 -258 l 143 -142 l 174 -142 l 174 -183 m 139 588 q 162 530 139 553 q 218 507 185 507 q 274 530 251 507 q 297 588 297 553 q 274 645 297 622 q 218 668 251 668 q 162 645 185 668 q 139 588 139 622 m 293 -119 l 293 -87 l 242 -87 l 242 -65 l 293 -36 l 293 0 l 236 -33 q 193 -6 222 -6 q 157 -20 171 -6 q 143 -58 143 -35 l 143 -119 l 293 -119 m 143 56 l 293 56 l 293 22 l 143 22 l 143 56 m 293 75 l 293 110 l 265 119 l 265 179 l 293 190 l 293 226 l 143 165 l 143 133 l 293 75 m 293 244 l 293 336 l 264 336 l 264 278 l 143 278 l 143 244 l 293 244 m 293 403 l 293 435 l 236 435 l 236 488 l 206 488 l 206 435 l 174 435 l 174 493 l 143 493 l 143 403 l 293 403 m 293 693 l 293 725 l 199 725 l 293 794 l 293 821 l 143 821 l 143 789 l 235 789 l 143 724 l 143 693 l 293 693 m 174 843 l 174 885 l 293 885 l 293 918 l 174 918 l 174 960 l 143 960 l 143 843 l 174 843 m 171 588 q 184 622 171 608 q 218 635 197 635 q 253 622 239 635 q 267 588 267 608 q 253 554 267 568 q 218 540 239 540 q 184 554 197 540 q 171 588 171 568 m 172 -61 q 178 -45 172 -51 q 192 -39 183 -39 q 207 -45 201 -39 q 213 -61 213 -51 l 213 -87 l 172 -87 l 172 -61 m 236 169 l 236 131 l 182 150 l 236 169 z "},"Ĥ":{"ha":436,"x_min":139,"x_max":297,"o":"m 174 -183 l 293 -183 l 293 -217 l 174 -217 l 174 -258 l 143 -258 l 143 -142 l 174 -142 l 174 -183 m 139 588 q 162 530 139 553 q 218 507 185 507 q 274 530 251 507 q 297 588 297 553 q 274 645 297 622 q 218 668 251 668 q 162 645 185 668 q 139 588 139 622 m 293 -119 l 293 -87 l 242 -87 l 242 -65 l 293 -36 l 293 0 l 236 -33 q 193 -6 222 -6 q 157 -20 171 -6 q 143 -58 143 -35 l 143 -119 l 293 -119 m 143 56 l 293 56 l 293 22 l 143 22 l 143 56 m 293 75 l 293 110 l 265 119 l 265 179 l 293 190 l 293 226 l 143 165 l 143 133 l 293 75 m 293 244 l 293 336 l 264 336 l 264 278 l 143 278 l 143 244 l 293 244 m 293 403 l 293 435 l 236 435 l 236 488 l 206 488 l 206 435 l 174 435 l 174 493 l 143 493 l 143 403 l 293 403 m 293 693 l 293 725 l 199 725 l 293 794 l 293 821 l 143 821 l 143 789 l 235 789 l 143 724 l 143 693 l 293 693 m 174 843 l 174 885 l 293 885 l 293 918 l 174 918 l 174 960 l 143 960 l 143 843 l 174 843 m 171 588 q 184 622 171 608 q 218 635 197 635 q 253 622 239 635 q 267 588 267 608 q 253 554 267 568 q 218 540 239 540 q 184 554 197 540 q 171 588 171 568 m 172 -61 q 178 -45 172 -51 q 192 -39 183 -39 q 207 -45 201 -39 q 213 -61 213 -51 l 213 -87 l 172 -87 l 172 -61 m 236 169 l 236 131 l 182 150 l 236 169 z "},"I":{"ha":708,"x_min":39,"x_max":669,"o":"m 39 286 l 167 286 l 167 694 l 42 694 l 42 972 l 667 972 l 667 694 l 542 694 l 542 286 l 669 286 l 669 0 l 39 0 l 39 286 z "},"Ĳ":{"ha":436,"x_min":139,"x_max":297,"o":"m 174 -183 l 293 -183 l 293 -217 l 174 -217 l 174 -258 l 143 -258 l 143 -142 l 174 -142 l 174 -183 m 139 588 q 162 530 139 553 q 218 507 185 507 q 274 530 251 507 q 297 588 297 553 q 274 645 297 622 q 218 668 251 668 q 162 645 185 668 q 139 588 139 622 m 293 -119 l 293 -87 l 242 -87 l 242 -65 l 293 -36 l 293 0 l 236 -33 q 193 -6 222 -6 q 157 -20 171 -6 q 143 -58 143 -35 l 143 -119 l 293 -119 m 143 56 l 293 56 l 293 22 l 143 22 l 143 56 m 293 75 l 293 110 l 265 119 l 265 179 l 293 190 l 293 226 l 143 165 l 143 133 l 293 75 m 293 244 l 293 336 l 264 336 l 264 278 l 143 278 l 143 244 l 293 244 m 293 403 l 293 435 l 236 435 l 236 488 l 206 488 l 206 435 l 174 435 l 174 493 l 143 493 l 143 403 l 293 403 m 293 693 l 293 725 l 199 725 l 293 794 l 293 821 l 143 821 l 143 789 l 235 789 l 143 724 l 143 693 l 293 693 m 174 843 l 174 885 l 293 885 l 293 918 l 174 918 l 174 960 l 143 960 l 143 843 l 174 843 m 171 588 q 184 622 171 608 q 218 635 197 635 q 253 622 239 635 q 267 588 267 608 q 253 554 267 568 q 218 540 239 540 q 184 554 197 540 q 171 588 171 568 m 172 -61 q 178 -45 172 -51 q 192 -39 183 -39 q 207 -45 201 -39 q 213 -61 213 -51 l 213 -87 l 172 -87 l 172 -61 m 236 169 l 236 131 l 182 150 l 236 169 z "},"Í":{"ha":436,"x_min":139,"x_max":297,"o":"m 174 -183 l 293 -183 l 293 -217 l 174 -217 l 174 -258 l 143 -258 l 143 -142 l 174 -142 l 174 -183 m 139 588 q 162 530 139 553 q 218 507 185 507 q 274 530 251 507 q 297 588 297 553 q 274 645 297 622 q 218 668 251 668 q 162 645 185 668 q 139 588 139 622 m 293 -119 l 293 -87 l 242 -87 l 242 -65 l 293 -36 l 293 0 l 236 -33 q 193 -6 222 -6 q 157 -20 171 -6 q 143 -58 143 -35 l 143 -119 l 293 -119 m 143 56 l 293 56 l 293 22 l 143 22 l 143 56 m 293 75 l 293 110 l 265 119 l 265 179 l 293 190 l 293 226 l 143 165 l 143 133 l 293 75 m 293 244 l 293 336 l 264 336 l 264 278 l 143 278 l 143 244 l 293 244 m 293 403 l 293 435 l 236 435 l 236 488 l 206 488 l 206 435 l 174 435 l 174 493 l 143 493 l 143 403 l 293 403 m 293 693 l 293 725 l 199 725 l 293 794 l 293 821 l 143 821 l 143 789 l 235 789 l 143 724 l 143 693 l 293 693 m 174 843 l 174 885 l 293 885 l 293 918 l 174 918 l 174 960 l 143 960 l 143 843 l 174 843 m 171 588 q 184 622 171 608 q 218 635 197 635 q 253 622 239 635 q 267 588 267 608 q 253 554 267 568 q 218 540 239 540 q 184 554 197 540 q 171 588 171 568 m 172 -61 q 178 -45 172 -51 q 192 -39 183 -39 q 207 -45 201 -39 q 213 -61 213 -51 l 213 -87 l 172 -87 l 172 -61 m 236 169 l 236 131 l 182 150 l 236 169 z "},"Ĭ":{"ha":436,"x_min":139,"x_max":297,"o":"m 174 -183 l 293 -183 l 293 -217 l 174 -217 l 174 -258 l 143 -258 l 143 -142 l 174 -142 l 174 -183 m 139 588 q 162 530 139 553 q 218 507 185 507 q 274 530 251 507 q 297 588 297 553 q 274 645 297 622 q 218 668 251 668 q 162 645 185 668 q 139 588 139 622 m 293 -119 l 293 -87 l 242 -87 l 242 -65 l 293 -36 l 293 0 l 236 -33 q 193 -6 222 -6 q 157 -20 171 -6 q 143 -58 143 -35 l 143 -119 l 293 -119 m 143 56 l 293 56 l 293 22 l 143 22 l 143 56 m 293 75 l 293 110 l 265 119 l 265 179 l 293 190 l 293 226 l 143 165 l 143 133 l 293 75 m 293 244 l 293 336 l 264 336 l 264 278 l 143 278 l 143 244 l 293 244 m 293 403 l 293 435 l 236 435 l 236 488 l 206 488 l 206 435 l 174 435 l 174 493 l 143 493 l 143 403 l 293 403 m 293 693 l 293 725 l 199 725 l 293 794 l 293 821 l 143 821 l 143 789 l 235 789 l 143 724 l 143 693 l 293 693 m 174 843 l 174 885 l 293 885 l 293 918 l 174 918 l 174 960 l 143 960 l 143 843 l 174 843 m 171 588 q 184 622 171 608 q 218 635 197 635 q 253 622 239 635 q 267 588 267 608 q 253 554 267 568 q 218 540 239 540 q 184 554 197 540 q 171 588 171 568 m 172 -61 q 178 -45 172 -51 q 192 -39 183 -39 q 207 -45 201 -39 q 213 -61 213 -51 l 213 -87 l 172 -87 l 172 -61 m 236 169 l 236 131 l 182 150 l 236 169 z "},"Î":{"ha":436,"x_min":139,"x_max":297,"o":"m 174 -183 l 293 -183 l 293 -217 l 174 -217 l 174 -258 l 143 -258 l 143 -142 l 174 -142 l 174 -183 m 139 588 q 162 530 139 553 q 218 507 185 507 q 274 530 251 507 q 297 588 297 553 q 274 645 297 622 q 218 668 251 668 q 162 645 185 668 q 139 588 139 622 m 293 -119 l 293 -87 l 242 -87 l 242 -65 l 293 -36 l 293 0 l 236 -33 q 193 -6 222 -6 q 157 -20 171 -6 q 143 -58 143 -35 l 143 -119 l 293 -119 m 143 56 l 293 56 l 293 22 l 143 22 l 143 56 m 293 75 l 293 110 l 265 119 l 265 179 l 293 190 l 293 226 l 143 165 l 143 133 l 293 75 m 293 244 l 293 336 l 264 336 l 264 278 l 143 278 l 143 244 l 293 244 m 293 403 l 293 435 l 236 435 l 236 488 l 206 488 l 206 435 l 174 435 l 174 493 l 143 493 l 143 403 l 293 403 m 293 693 l 293 725 l 199 725 l 293 794 l 293 821 l 143 821 l 143 789 l 235 789 l 143 724 l 143 693 l 293 693 m 174 843 l 174 885 l 293 885 l 293 918 l 174 918 l 174 960 l 143 960 l 143 843 l 174 843 m 171 588 q 184 622 171 608 q 218 635 197 635 q 253 622 239 635 q 267 588 267 608 q 253 554 267 568 q 218 540 239 540 q 184 554 197 540 q 171 588 171 568 m 172 -61 q 178 -45 172 -51 q 192 -39 183 -39 q 207 -45 201 -39 q 213 -61 213 -51 l 213 -87 l 172 -87 l 172 -61 m 236 169 l 236 131 l 182 150 l 236 169 z "},"Ï":{"ha":436,"x_min":139,"x_max":297,"o":"m 174 -183 l 293 -183 l 293 -217 l 174 -217 l 174 -258 l 143 -258 l 143 -142 l 174 -142 l 174 -183 m 139 588 q 162 530 139 553 q 218 507 185 507 q 274 530 251 507 q 297 588 297 553 q 274 645 297 622 q 218 668 251 668 q 162 645 185 668 q 139 588 139 622 m 293 -119 l 293 -87 l 242 -87 l 242 -65 l 293 -36 l 293 0 l 236 -33 q 193 -6 222 -6 q 157 -20 171 -6 q 143 -58 143 -35 l 143 -119 l 293 -119 m 143 56 l 293 56 l 293 22 l 143 22 l 143 56 m 293 75 l 293 110 l 265 119 l 265 179 l 293 190 l 293 226 l 143 165 l 143 133 l 293 75 m 293 244 l 293 336 l 264 336 l 264 278 l 143 278 l 143 244 l 293 244 m 293 403 l 293 435 l 236 435 l 236 488 l 206 488 l 206 435 l 174 435 l 174 493 l 143 493 l 143 403 l 293 403 m 293 693 l 293 725 l 199 725 l 293 794 l 293 821 l 143 821 l 143 789 l 235 789 l 143 724 l 143 693 l 293 693 m 174 843 l 174 885 l 293 885 l 293 918 l 174 918 l 174 960 l 143 960 l 143 843 l 174 843 m 171 588 q 184 622 171 608 q 218 635 197 635 q 253 622 239 635 q 267 588 267 608 q 253 554 267 568 q 218 540 239 540 q 184 554 197 540 q 171 588 171 568 m 172 -61 q 178 -45 172 -51 q 192 -39 183 -39 q 207 -45 201 -39 q 213 -61 213 -51 l 213 -87 l 172 -87 l 172 -61 m 236 169 l 236 131 l 182 150 l 236 169 z "},"İ":{"ha":436,"x_min":139,"x_max":297,"o":"m 174 -183 l 293 -183 l 293 -217 l 174 -217 l 174 -258 l 143 -258 l 143 -142 l 174 -142 l 174 -183 m 139 588 q 162 530 139 553 q 218 507 185 507 q 274 530 251 507 q 297 588 297 553 q 274 645 297 622 q 218 668 251 668 q 162 645 185 668 q 139 588 139 622 m 293 -119 l 293 -87 l 242 -87 l 242 -65 l 293 -36 l 293 0 l 236 -33 q 193 -6 222 -6 q 157 -20 171 -6 q 143 -58 143 -35 l 143 -119 l 293 -119 m 143 56 l 293 56 l 293 22 l 143 22 l 143 56 m 293 75 l 293 110 l 265 119 l 265 179 l 293 190 l 293 226 l 143 165 l 143 133 l 293 75 m 293 244 l 293 336 l 264 336 l 264 278 l 143 278 l 143 244 l 293 244 m 293 403 l 293 435 l 236 435 l 236 488 l 206 488 l 206 435 l 174 435 l 174 493 l 143 493 l 143 403 l 293 403 m 293 693 l 293 725 l 199 725 l 293 794 l 293 821 l 143 821 l 143 789 l 235 789 l 143 724 l 143 693 l 293 693 m 174 843 l 174 885 l 293 885 l 293 918 l 174 918 l 174 960 l 143 960 l 143 843 l 174 843 m 171 588 q 184 622 171 608 q 218 635 197 635 q 253 622 239 635 q 267 588 267 608 q 253 554 267 568 q 218 540 239 540 q 184 554 197 540 q 171 588 171 568 m 172 -61 q 178 -45 172 -51 q 192 -39 183 -39 q 207 -45 201 -39 q 213 -61 213 -51 l 213 -87 l 172 -87 l 172 -61 m 236 169 l 236 131 l 182 150 l 236 169 z "},"Ì":{"ha":436,"x_min":139,"x_max":297,"o":"m 174 -183 l 293 -183 l 293 -217 l 174 -217 l 174 -258 l 143 -258 l 143 -142 l 174 -142 l 174 -183 m 139 588 q 162 530 139 553 q 218 507 185 507 q 274 530 251 507 q 297 588 297 553 q 274 645 297 622 q 218 668 251 668 q 162 645 185 668 q 139 588 139 622 m 293 -119 l 293 -87 l 242 -87 l 242 -65 l 293 -36 l 293 0 l 236 -33 q 193 -6 222 -6 q 157 -20 171 -6 q 143 -58 143 -35 l 143 -119 l 293 -119 m 143 56 l 293 56 l 293 22 l 143 22 l 143 56 m 293 75 l 293 110 l 265 119 l 265 179 l 293 190 l 293 226 l 143 165 l 143 133 l 293 75 m 293 244 l 293 336 l 264 336 l 264 278 l 143 278 l 143 244 l 293 244 m 293 403 l 293 435 l 236 435 l 236 488 l 206 488 l 206 435 l 174 435 l 174 493 l 143 493 l 143 403 l 293 403 m 293 693 l 293 725 l 199 725 l 293 794 l 293 821 l 143 821 l 143 789 l 235 789 l 143 724 l 143 693 l 293 693 m 174 843 l 174 885 l 293 885 l 293 918 l 174 918 l 174 960 l 143 960 l 143 843 l 174 843 m 171 588 q 184 622 171 608 q 218 635 197 635 q 253 622 239 635 q 267 588 267 608 q 253 554 267 568 q 218 540 239 540 q 184 554 197 540 q 171 588 171 568 m 172 -61 q 178 -45 172 -51 q 192 -39 183 -39 q 207 -45 201 -39 q 213 -61 213 -51 l 213 -87 l 172 -87 l 172 -61 m 236 169 l 236 131 l 182 150 l 236 169 z "},"Ī":{"ha":436,"x_min":139,"x_max":297,"o":"m 174 -183 l 293 -183 l 293 -217 l 174 -217 l 174 -258 l 143 -258 l 143 -142 l 174 -142 l 174 -183 m 139 588 q 162 530 139 553 q 218 507 185 507 q 274 530 251 507 q 297 588 297 553 q 274 645 297 622 q 218 668 251 668 q 162 645 185 668 q 139 588 139 622 m 293 -119 l 293 -87 l 242 -87 l 242 -65 l 293 -36 l 293 0 l 236 -33 q 193 -6 222 -6 q 157 -20 171 -6 q 143 -58 143 -35 l 143 -119 l 293 -119 m 143 56 l 293 56 l 293 22 l 143 22 l 143 56 m 293 75 l 293 110 l 265 119 l 265 179 l 293 190 l 293 226 l 143 165 l 143 133 l 293 75 m 293 244 l 293 336 l 264 336 l 264 278 l 143 278 l 143 244 l 293 244 m 293 403 l 293 435 l 236 435 l 236 488 l 206 488 l 206 435 l 174 435 l 174 493 l 143 493 l 143 403 l 293 403 m 293 693 l 293 725 l 199 725 l 293 794 l 293 821 l 143 821 l 143 789 l 235 789 l 143 724 l 143 693 l 293 693 m 174 843 l 174 885 l 293 885 l 293 918 l 174 918 l 174 960 l 143 960 l 143 843 l 174 843 m 171 588 q 184 622 171 608 q 218 635 197 635 q 253 622 239 635 q 267 588 267 608 q 253 554 267 568 q 218 540 239 540 q 184 554 197 540 q 171 588 171 568 m 172 -61 q 178 -45 172 -51 q 192 -39 183 -39 q 207 -45 201 -39 q 213 -61 213 -51 l 213 -87 l 172 -87 l 172 -61 m 236 169 l 236 131 l 182 150 l 236 169 z "},"Į":{"ha":436,"x_min":139,"x_max":297,"o":"m 174 -183 l 293 -183 l 293 -217 l 174 -217 l 174 -258 l 143 -258 l 143 -142 l 174 -142 l 174 -183 m 139 588 q 162 530 139 553 q 218 507 185 507 q 274 530 251 507 q 297 588 297 553 q 274 645 297 622 q 218 668 251 668 q 162 645 185 668 q 139 588 139 622 m 293 -119 l 293 -87 l 242 -87 l 242 -65 l 293 -36 l 293 0 l 236 -33 q 193 -6 222 -6 q 157 -20 171 -6 q 143 -58 143 -35 l 143 -119 l 293 -119 m 143 56 l 293 56 l 293 22 l 143 22 l 143 56 m 293 75 l 293 110 l 265 119 l 265 179 l 293 190 l 293 226 l 143 165 l 143 133 l 293 75 m 293 244 l 293 336 l 264 336 l 264 278 l 143 278 l 143 244 l 293 244 m 293 403 l 293 435 l 236 435 l 236 488 l 206 488 l 206 435 l 174 435 l 174 493 l 143 493 l 143 403 l 293 403 m 293 693 l 293 725 l 199 725 l 293 794 l 293 821 l 143 821 l 143 789 l 235 789 l 143 724 l 143 693 l 293 693 m 174 843 l 174 885 l 293 885 l 293 918 l 174 918 l 174 960 l 143 960 l 143 843 l 174 843 m 171 588 q 184 622 171 608 q 218 635 197 635 q 253 622 239 635 q 267 588 267 608 q 253 554 267 568 q 218 540 239 540 q 184 554 197 540 q 171 588 171 568 m 172 -61 q 178 -45 172 -51 q 192 -39 183 -39 q 207 -45 201 -39 q 213 -61 213 -51 l 213 -87 l 172 -87 l 172 -61 m 236 169 l 236 131 l 182 150 l 236 169 z "},"Ĩ":{"ha":436,"x_min":139,"x_max":297,"o":"m 174 -183 l 293 -183 l 293 -217 l 174 -217 l 174 -258 l 143 -258 l 143 -142 l 174 -142 l 174 -183 m 139 588 q 162 530 139 553 q 218 507 185 507 q 274 530 251 507 q 297 588 297 553 q 274 645 297 622 q 218 668 251 668 q 162 645 185 668 q 139 588 139 622 m 293 -119 l 293 -87 l 242 -87 l 242 -65 l 293 -36 l 293 0 l 236 -33 q 193 -6 222 -6 q 157 -20 171 -6 q 143 -58 143 -35 l 143 -119 l 293 -119 m 143 56 l 293 56 l 293 22 l 143 22 l 143 56 m 293 75 l 293 110 l 265 119 l 265 179 l 293 190 l 293 226 l 143 165 l 143 133 l 293 75 m 293 244 l 293 336 l 264 336 l 264 278 l 143 278 l 143 244 l 293 244 m 293 403 l 293 435 l 236 435 l 236 488 l 206 488 l 206 435 l 174 435 l 174 493 l 143 493 l 143 403 l 293 403 m 293 693 l 293 725 l 199 725 l 293 794 l 293 821 l 143 821 l 143 789 l 235 789 l 143 724 l 143 693 l 293 693 m 174 843 l 174 885 l 293 885 l 293 918 l 174 918 l 174 960 l 143 960 l 143 843 l 174 843 m 171 588 q 184 622 171 608 q 218 635 197 635 q 253 622 239 635 q 267 588 267 608 q 253 554 267 568 q 218 540 239 540 q 184 554 197 540 q 171 588 171 568 m 172 -61 q 178 -45 172 -51 q 192 -39 183 -39 q 207 -45 201 -39 q 213 -61 213 -51 l 213 -87 l 172 -87 l 172 -61 m 236 169 l 236 131 l 182 150 l 236 169 z "},"J":{"ha":779,"x_min":38,"x_max":726,"o":"m 264 -21 q 38 0 172 -21 l 38 322 q 158 311 107 311 q 351 457 351 311 l 351 669 l 157 669 l 157 972 l 726 972 l 726 417 q 603 86 726 193 q 264 -21 479 -21 z "},"Ĵ":{"ha":436,"x_min":139,"x_max":297,"o":"m 174 -183 l 293 -183 l 293 -217 l 174 -217 l 174 -258 l 143 -258 l 143 -142 l 174 -142 l 174 -183 m 139 588 q 162 530 139 553 q 218 507 185 507 q 274 530 251 507 q 297 588 297 553 q 274 645 297 622 q 218 668 251 668 q 162 645 185 668 q 139 588 139 622 m 293 -119 l 293 -87 l 242 -87 l 242 -65 l 293 -36 l 293 0 l 236 -33 q 193 -6 222 -6 q 157 -20 171 -6 q 143 -58 143 -35 l 143 -119 l 293 -119 m 143 56 l 293 56 l 293 22 l 143 22 l 143 56 m 293 75 l 293 110 l 265 119 l 265 179 l 293 190 l 293 226 l 143 165 l 143 133 l 293 75 m 293 244 l 293 336 l 264 336 l 264 278 l 143 278 l 143 244 l 293 244 m 293 403 l 293 435 l 236 435 l 236 488 l 206 488 l 206 435 l 174 435 l 174 493 l 143 493 l 143 403 l 293 403 m 293 693 l 293 725 l 199 725 l 293 794 l 293 821 l 143 821 l 143 789 l 235 789 l 143 724 l 143 693 l 293 693 m 174 843 l 174 885 l 293 885 l 293 918 l 174 918 l 174 960 l 143 960 l 143 843 l 174 843 m 171 588 q 184 622 171 608 q 218 635 197 635 q 253 622 239 635 q 267 588 267 608 q 253 554 267 568 q 218 540 239 540 q 184 554 197 540 q 171 588 171 568 m 172 -61 q 178 -45 172 -51 q 192 -39 183 -39 q 207 -45 201 -39 q 213 -61 213 -51 l 213 -87 l 172 -87 l 172 -61 m 236 169 l 236 131 l 182 150 l 236 169 z "},"K":{"ha":1015,"x_min":61,"x_max":1003,"o":"m 433 313 l 433 0 l 61 0 l 61 972 l 433 972 l 433 657 l 582 972 l 971 972 l 971 935 l 729 496 l 1003 38 l 1003 0 l 594 0 l 433 313 z "},"Ķ":{"ha":436,"x_min":139,"x_max":297,"o":"m 174 -183 l 293 -183 l 293 -217 l 174 -217 l 174 -258 l 143 -258 l 143 -142 l 174 -142 l 174 -183 m 139 588 q 162 530 139 553 q 218 507 185 507 q 274 530 251 507 q 297 588 297 553 q 274 645 297 622 q 218 668 251 668 q 162 645 185 668 q 139 588 139 622 m 293 -119 l 293 -87 l 242 -87 l 242 -65 l 293 -36 l 293 0 l 236 -33 q 193 -6 222 -6 q 157 -20 171 -6 q 143 -58 143 -35 l 143 -119 l 293 -119 m 143 56 l 293 56 l 293 22 l 143 22 l 143 56 m 293 75 l 293 110 l 265 119 l 265 179 l 293 190 l 293 226 l 143 165 l 143 133 l 293 75 m 293 244 l 293 336 l 264 336 l 264 278 l 143 278 l 143 244 l 293 244 m 293 403 l 293 435 l 236 435 l 236 488 l 206 488 l 206 435 l 174 435 l 174 493 l 143 493 l 143 403 l 293 403 m 293 693 l 293 725 l 199 725 l 293 794 l 293 821 l 143 821 l 143 789 l 235 789 l 143 724 l 143 693 l 293 693 m 174 843 l 174 885 l 293 885 l 293 918 l 174 918 l 174 960 l 143 960 l 143 843 l 174 843 m 171 588 q 184 622 171 608 q 218 635 197 635 q 253 622 239 635 q 267 588 267 608 q 253 554 267 568 q 218 540 239 540 q 184 554 197 540 q 171 588 171 568 m 172 -61 q 178 -45 172 -51 q 192 -39 183 -39 q 207 -45 201 -39 q 213 -61 213 -51 l 213 -87 l 172 -87 l 172 -61 m 236 169 l 236 131 l 182 150 l 236 169 z "},"L":{"ha":824,"x_min":61,"x_max":785,"o":"m 61 972 l 436 972 l 436 322 l 785 322 l 785 0 l 61 0 l 61 972 z "},"Ĺ":{"ha":436,"x_min":139,"x_max":297,"o":"m 174 -183 l 293 -183 l 293 -217 l 174 -217 l 174 -258 l 143 -258 l 143 -142 l 174 -142 l 174 -183 m 139 588 q 162 530 139 553 q 218 507 185 507 q 274 530 251 507 q 297 588 297 553 q 274 645 297 622 q 218 668 251 668 q 162 645 185 668 q 139 588 139 622 m 293 -119 l 293 -87 l 242 -87 l 242 -65 l 293 -36 l 293 0 l 236 -33 q 193 -6 222 -6 q 157 -20 171 -6 q 143 -58 143 -35 l 143 -119 l 293 -119 m 143 56 l 293 56 l 293 22 l 143 22 l 143 56 m 293 75 l 293 110 l 265 119 l 265 179 l 293 190 l 293 226 l 143 165 l 143 133 l 293 75 m 293 244 l 293 336 l 264 336 l 264 278 l 143 278 l 143 244 l 293 244 m 293 403 l 293 435 l 236 435 l 236 488 l 206 488 l 206 435 l 174 435 l 174 493 l 143 493 l 143 403 l 293 403 m 293 693 l 293 725 l 199 725 l 293 794 l 293 821 l 143 821 l 143 789 l 235 789 l 143 724 l 143 693 l 293 693 m 174 843 l 174 885 l 293 885 l 293 918 l 174 918 l 174 960 l 143 960 l 143 843 l 174 843 m 171 588 q 184 622 171 608 q 218 635 197 635 q 253 622 239 635 q 267 588 267 608 q 253 554 267 568 q 218 540 239 540 q 184 554 197 540 q 171 588 171 568 m 172 -61 q 178 -45 172 -51 q 192 -39 183 -39 q 207 -45 201 -39 q 213 -61 213 -51 l 213 -87 l 172 -87 l 172 -61 m 236 169 l 236 131 l 182 150 l 236 169 z "},"Ľ":{"ha":436,"x_min":139,"x_max":297,"o":"m 174 -183 l 293 -183 l 293 -217 l 174 -217 l 174 -258 l 143 -258 l 143 -142 l 174 -142 l 174 -183 m 139 588 q 162 530 139 553 q 218 507 185 507 q 274 530 251 507 q 297 588 297 553 q 274 645 297 622 q 218 668 251 668 q 162 645 185 668 q 139 588 139 622 m 293 -119 l 293 -87 l 242 -87 l 242 -65 l 293 -36 l 293 0 l 236 -33 q 193 -6 222 -6 q 157 -20 171 -6 q 143 -58 143 -35 l 143 -119 l 293 -119 m 143 56 l 293 56 l 293 22 l 143 22 l 143 56 m 293 75 l 293 110 l 265 119 l 265 179 l 293 190 l 293 226 l 143 165 l 143 133 l 293 75 m 293 244 l 293 336 l 264 336 l 264 278 l 143 278 l 143 244 l 293 244 m 293 403 l 293 435 l 236 435 l 236 488 l 206 488 l 206 435 l 174 435 l 174 493 l 143 493 l 143 403 l 293 403 m 293 693 l 293 725 l 199 725 l 293 794 l 293 821 l 143 821 l 143 789 l 235 789 l 143 724 l 143 693 l 293 693 m 174 843 l 174 885 l 293 885 l 293 918 l 174 918 l 174 960 l 143 960 l 143 843 l 174 843 m 171 588 q 184 622 171 608 q 218 635 197 635 q 253 622 239 635 q 267 588 267 608 q 253 554 267 568 q 218 540 239 540 q 184 554 197 540 q 171 588 171 568 m 172 -61 q 178 -45 172 -51 q 192 -39 183 -39 q 207 -45 201 -39 q 213 -61 213 -51 l 213 -87 l 172 -87 l 172 -61 m 236 169 l 236 131 l 182 150 l 236 169 z "},"Ļ":{"ha":436,"x_min":139,"x_max":297,"o":"m 174 -183 l 293 -183 l 293 -217 l 174 -217 l 174 -258 l 143 -258 l 143 -142 l 174 -142 l 174 -183 m 139 588 q 162 530 139 553 q 218 507 185 507 q 274 530 251 507 q 297 588 297 553 q 274 645 297 622 q 218 668 251 668 q 162 645 185 668 q 139 588 139 622 m 293 -119 l 293 -87 l 242 -87 l 242 -65 l 293 -36 l 293 0 l 236 -33 q 193 -6 222 -6 q 157 -20 171 -6 q 143 -58 143 -35 l 143 -119 l 293 -119 m 143 56 l 293 56 l 293 22 l 143 22 l 143 56 m 293 75 l 293 110 l 265 119 l 265 179 l 293 190 l 293 226 l 143 165 l 143 133 l 293 75 m 293 244 l 293 336 l 264 336 l 264 278 l 143 278 l 143 244 l 293 244 m 293 403 l 293 435 l 236 435 l 236 488 l 206 488 l 206 435 l 174 435 l 174 493 l 143 493 l 143 403 l 293 403 m 293 693 l 293 725 l 199 725 l 293 794 l 293 821 l 143 821 l 143 789 l 235 789 l 143 724 l 143 693 l 293 693 m 174 843 l 174 885 l 293 885 l 293 918 l 174 918 l 174 960 l 143 960 l 143 843 l 174 843 m 171 588 q 184 622 171 608 q 218 635 197 635 q 253 622 239 635 q 267 588 267 608 q 253 554 267 568 q 218 540 239 540 q 184 554 197 540 q 171 588 171 568 m 172 -61 q 178 -45 172 -51 q 192 -39 183 -39 q 207 -45 201 -39 q 213 -61 213 -51 l 213 -87 l 172 -87 l 172 -61 m 236 169 l 236 131 l 182 150 l 236 169 z "},"Ŀ":{"ha":436,"x_min":139,"x_max":297,"o":"m 174 -183 l 293 -183 l 293 -217 l 174 -217 l 174 -258 l 143 -258 l 143 -142 l 174 -142 l 174 -183 m 139 588 q 162 530 139 553 q 218 507 185 507 q 274 530 251 507 q 297 588 297 553 q 274 645 297 622 q 218 668 251 668 q 162 645 185 668 q 139 588 139 622 m 293 -119 l 293 -87 l 242 -87 l 242 -65 l 293 -36 l 293 0 l 236 -33 q 193 -6 222 -6 q 157 -20 171 -6 q 143 -58 143 -35 l 143 -119 l 293 -119 m 143 56 l 293 56 l 293 22 l 143 22 l 143 56 m 293 75 l 293 110 l 265 119 l 265 179 l 293 190 l 293 226 l 143 165 l 143 133 l 293 75 m 293 244 l 293 336 l 264 336 l 264 278 l 143 278 l 143 244 l 293 244 m 293 403 l 293 435 l 236 435 l 236 488 l 206 488 l 206 435 l 174 435 l 174 493 l 143 493 l 143 403 l 293 403 m 293 693 l 293 725 l 199 725 l 293 794 l 293 821 l 143 821 l 143 789 l 235 789 l 143 724 l 143 693 l 293 693 m 174 843 l 174 885 l 293 885 l 293 918 l 174 918 l 174 960 l 143 960 l 143 843 l 174 843 m 171 588 q 184 622 171 608 q 218 635 197 635 q 253 622 239 635 q 267 588 267 608 q 253 554 267 568 q 218 540 239 540 q 184 554 197 540 q 171 588 171 568 m 172 -61 q 178 -45 172 -51 q 192 -39 183 -39 q 207 -45 201 -39 q 213 -61 213 -51 l 213 -87 l 172 -87 l 172 -61 m 236 169 l 236 131 l 182 150 l 236 169 z "},"Ł":{"ha":436,"x_min":139,"x_max":297,"o":"m 174 -183 l 293 -183 l 293 -217 l 174 -217 l 174 -258 l 143 -258 l 143 -142 l 174 -142 l 174 -183 m 139 588 q 162 530 139 553 q 218 507 185 507 q 274 530 251 507 q 297 588 297 553 q 274 645 297 622 q 218 668 251 668 q 162 645 185 668 q 139 588 139 622 m 293 -119 l 293 -87 l 242 -87 l 242 -65 l 293 -36 l 293 0 l 236 -33 q 193 -6 222 -6 q 157 -20 171 -6 q 143 -58 143 -35 l 143 -119 l 293 -119 m 143 56 l 293 56 l 293 22 l 143 22 l 143 56 m 293 75 l 293 110 l 265 119 l 265 179 l 293 190 l 293 226 l 143 165 l 143 133 l 293 75 m 293 244 l 293 336 l 264 336 l 264 278 l 143 278 l 143 244 l 293 244 m 293 403 l 293 435 l 236 435 l 236 488 l 206 488 l 206 435 l 174 435 l 174 493 l 143 493 l 143 403 l 293 403 m 293 693 l 293 725 l 199 725 l 293 794 l 293 821 l 143 821 l 143 789 l 235 789 l 143 724 l 143 693 l 293 693 m 174 843 l 174 885 l 293 885 l 293 918 l 174 918 l 174 960 l 143 960 l 143 843 l 174 843 m 171 588 q 184 622 171 608 q 218 635 197 635 q 253 622 239 635 q 267 588 267 608 q 253 554 267 568 q 218 540 239 540 q 184 554 197 540 q 171 588 171 568 m 172 -61 q 178 -45 172 -51 q 192 -39 183 -39 q 207 -45 201 -39 q 213 -61 213 -51 l 213 -87 l 172 -87 l 172 -61 m 236 169 l 236 131 l 182 150 l 236 169 z "},"M":{"ha":1226,"x_min":61,"x_max":1165,"o":"m 61 972 l 413 972 l 611 692 l 615 692 l 815 972 l 1165 972 l 1165 0 l 793 0 l 793 206 l 814 422 l 807 425 l 675 217 l 553 217 l 419 424 l 413 421 l 433 206 l 433 0 l 61 0 l 61 972 z "},"N":{"ha":1021,"x_min":61,"x_max":960,"o":"m 61 972 l 361 972 l 617 603 l 622 606 l 600 811 l 600 972 l 960 972 l 960 0 l 660 0 l 406 367 l 400 364 l 421 164 l 421 0 l 61 0 l 61 972 z "},"Ń":{"ha":436,"x_min":139,"x_max":297,"o":"m 174 -183 l 293 -183 l 293 -217 l 174 -217 l 174 -258 l 143 -258 l 143 -142 l 174 -142 l 174 -183 m 139 588 q 162 530 139 553 q 218 507 185 507 q 274 530 251 507 q 297 588 297 553 q 274 645 297 622 q 218 668 251 668 q 162 645 185 668 q 139 588 139 622 m 293 -119 l 293 -87 l 242 -87 l 242 -65 l 293 -36 l 293 0 l 236 -33 q 193 -6 222 -6 q 157 -20 171 -6 q 143 -58 143 -35 l 143 -119 l 293 -119 m 143 56 l 293 56 l 293 22 l 143 22 l 143 56 m 293 75 l 293 110 l 265 119 l 265 179 l 293 190 l 293 226 l 143 165 l 143 133 l 293 75 m 293 244 l 293 336 l 264 336 l 264 278 l 143 278 l 143 244 l 293 244 m 293 403 l 293 435 l 236 435 l 236 488 l 206 488 l 206 435 l 174 435 l 174 493 l 143 493 l 143 403 l 293 403 m 293 693 l 293 725 l 199 725 l 293 794 l 293 821 l 143 821 l 143 789 l 235 789 l 143 724 l 143 693 l 293 693 m 174 843 l 174 885 l 293 885 l 293 918 l 174 918 l 174 960 l 143 960 l 143 843 l 174 843 m 171 588 q 184 622 171 608 q 218 635 197 635 q 253 622 239 635 q 267 588 267 608 q 253 554 267 568 q 218 540 239 540 q 184 554 197 540 q 171 588 171 568 m 172 -61 q 178 -45 172 -51 q 192 -39 183 -39 q 207 -45 201 -39 q 213 -61 213 -51 l 213 -87 l 172 -87 l 172 -61 m 236 169 l 236 131 l 182 150 l 236 169 z "},"Ň":{"ha":436,"x_min":139,"x_max":297,"o":"m 174 -183 l 293 -183 l 293 -217 l 174 -217 l 174 -258 l 143 -258 l 143 -142 l 174 -142 l 174 -183 m 139 588 q 162 530 139 553 q 218 507 185 507 q 274 530 251 507 q 297 588 297 553 q 274 645 297 622 q 218 668 251 668 q 162 645 185 668 q 139 588 139 622 m 293 -119 l 293 -87 l 242 -87 l 242 -65 l 293 -36 l 293 0 l 236 -33 q 193 -6 222 -6 q 157 -20 171 -6 q 143 -58 143 -35 l 143 -119 l 293 -119 m 143 56 l 293 56 l 293 22 l 143 22 l 143 56 m 293 75 l 293 110 l 265 119 l 265 179 l 293 190 l 293 226 l 143 165 l 143 133 l 293 75 m 293 244 l 293 336 l 264 336 l 264 278 l 143 278 l 143 244 l 293 244 m 293 403 l 293 435 l 236 435 l 236 488 l 206 488 l 206 435 l 174 435 l 174 493 l 143 493 l 143 403 l 293 403 m 293 693 l 293 725 l 199 725 l 293 794 l 293 821 l 143 821 l 143 789 l 235 789 l 143 724 l 143 693 l 293 693 m 174 843 l 174 885 l 293 885 l 293 918 l 174 918 l 174 960 l 143 960 l 143 843 l 174 843 m 171 588 q 184 622 171 608 q 218 635 197 635 q 253 622 239 635 q 267 588 267 608 q 253 554 267 568 q 218 540 239 540 q 184 554 197 540 q 171 588 171 568 m 172 -61 q 178 -45 172 -51 q 192 -39 183 -39 q 207 -45 201 -39 q 213 -61 213 -51 l 213 -87 l 172 -87 l 172 -61 m 236 169 l 236 131 l 182 150 l 236 169 z "},"Ņ":{"ha":436,"x_min":139,"x_max":297,"o":"m 174 -183 l 293 -183 l 293 -217 l 174 -217 l 174 -258 l 143 -258 l 143 -142 l 174 -142 l 174 -183 m 139 588 q 162 530 139 553 q 218 507 185 507 q 274 530 251 507 q 297 588 297 553 q 274 645 297 622 q 218 668 251 668 q 162 645 185 668 q 139 588 139 622 m 293 -119 l 293 -87 l 242 -87 l 242 -65 l 293 -36 l 293 0 l 236 -33 q 193 -6 222 -6 q 157 -20 171 -6 q 143 -58 143 -35 l 143 -119 l 293 -119 m 143 56 l 293 56 l 293 22 l 143 22 l 143 56 m 293 75 l 293 110 l 265 119 l 265 179 l 293 190 l 293 226 l 143 165 l 143 133 l 293 75 m 293 244 l 293 336 l 264 336 l 264 278 l 143 278 l 143 244 l 293 244 m 293 403 l 293 435 l 236 435 l 236 488 l 206 488 l 206 435 l 174 435 l 174 493 l 143 493 l 143 403 l 293 403 m 293 693 l 293 725 l 199 725 l 293 794 l 293 821 l 143 821 l 143 789 l 235 789 l 143 724 l 143 693 l 293 693 m 174 843 l 174 885 l 293 885 l 293 918 l 174 918 l 174 960 l 143 960 l 143 843 l 174 843 m 171 588 q 184 622 171 608 q 218 635 197 635 q 253 622 239 635 q 267 588 267 608 q 253 554 267 568 q 218 540 239 540 q 184 554 197 540 q 171 588 171 568 m 172 -61 q 178 -45 172 -51 q 192 -39 183 -39 q 207 -45 201 -39 q 213 -61 213 -51 l 213 -87 l 172 -87 l 172 -61 m 236 169 l 236 131 l 182 150 l 236 169 z "},"Ŋ":{"ha":436,"x_min":139,"x_max":297,"o":"m 174 -183 l 293 -183 l 293 -217 l 174 -217 l 174 -258 l 143 -258 l 143 -142 l 174 -142 l 174 -183 m 139 588 q 162 530 139 553 q 218 507 185 507 q 274 530 251 507 q 297 588 297 553 q 274 645 297 622 q 218 668 251 668 q 162 645 185 668 q 139 588 139 622 m 293 -119 l 293 -87 l 242 -87 l 242 -65 l 293 -36 l 293 0 l 236 -33 q 193 -6 222 -6 q 157 -20 171 -6 q 143 -58 143 -35 l 143 -119 l 293 -119 m 143 56 l 293 56 l 293 22 l 143 22 l 143 56 m 293 75 l 293 110 l 265 119 l 265 179 l 293 190 l 293 226 l 143 165 l 143 133 l 293 75 m 293 244 l 293 336 l 264 336 l 264 278 l 143 278 l 143 244 l 293 244 m 293 403 l 293 435 l 236 435 l 236 488 l 206 488 l 206 435 l 174 435 l 174 493 l 143 493 l 143 403 l 293 403 m 293 693 l 293 725 l 199 725 l 293 794 l 293 821 l 143 821 l 143 789 l 235 789 l 143 724 l 143 693 l 293 693 m 174 843 l 174 885 l 293 885 l 293 918 l 174 918 l 174 960 l 143 960 l 143 843 l 174 843 m 171 588 q 184 622 171 608 q 218 635 197 635 q 253 622 239 635 q 267 588 267 608 q 253 554 267 568 q 218 540 239 540 q 184 554 197 540 q 171 588 171 568 m 172 -61 q 178 -45 172 -51 q 192 -39 183 -39 q 207 -45 201 -39 q 213 -61 213 -51 l 213 -87 l 172 -87 l 172 -61 m 236 169 l 236 131 l 182 150 l 236 169 z "},"Ñ":{"ha":436,"x_min":139,"x_max":297,"o":"m 174 -183 l 293 -183 l 293 -217 l 174 -217 l 174 -258 l 143 -258 l 143 -142 l 174 -142 l 174 -183 m 139 588 q 162 530 139 553 q 218 507 185 507 q 274 530 251 507 q 297 588 297 553 q 274 645 297 622 q 218 668 251 668 q 162 645 185 668 q 139 588 139 622 m 293 -119 l 293 -87 l 242 -87 l 242 -65 l 293 -36 l 293 0 l 236 -33 q 193 -6 222 -6 q 157 -20 171 -6 q 143 -58 143 -35 l 143 -119 l 293 -119 m 143 56 l 293 56 l 293 22 l 143 22 l 143 56 m 293 75 l 293 110 l 265 119 l 265 179 l 293 190 l 293 226 l 143 165 l 143 133 l 293 75 m 293 244 l 293 336 l 264 336 l 264 278 l 143 278 l 143 244 l 293 244 m 293 403 l 293 435 l 236 435 l 236 488 l 206 488 l 206 435 l 174 435 l 174 493 l 143 493 l 143 403 l 293 403 m 293 693 l 293 725 l 199 725 l 293 794 l 293 821 l 143 821 l 143 789 l 235 789 l 143 724 l 143 693 l 293 693 m 174 843 l 174 885 l 293 885 l 293 918 l 174 918 l 174 960 l 143 960 l 143 843 l 174 843 m 171 588 q 184 622 171 608 q 218 635 197 635 q 253 622 239 635 q 267 588 267 608 q 253 554 267 568 q 218 540 239 540 q 184 554 197 540 q 171 588 171 568 m 172 -61 q 178 -45 172 -51 q 192 -39 183 -39 q 207 -45 201 -39 q 213 -61 213 -51 l 213 -87 l 172 -87 l 172 -61 m 236 169 l 236 131 l 182 150 l 236 169 z "},"O":{"ha":1125,"x_min":22,"x_max":1103,"o":"m 563 -22 q 281 42 404 -22 q 90 222 158 106 q 22 486 22 338 q 90 751 22 635 q 281 931 158 867 q 563 994 404 994 q 844 931 721 994 q 1035 751 967 867 q 1103 486 1103 635 q 1035 222 1103 338 q 844 42 967 106 q 563 -22 721 -22 m 394 486 q 441 360 394 408 q 563 311 488 311 q 684 360 638 311 q 731 486 731 408 q 684 613 731 564 q 563 661 638 661 q 441 613 488 661 q 394 486 394 564 z "},"Ó":{"ha":436,"x_min":139,"x_max":297,"o":"m 174 -183 l 293 -183 l 293 -217 l 174 -217 l 174 -258 l 143 -258 l 143 -142 l 174 -142 l 174 -183 m 139 588 q 162 530 139 553 q 218 507 185 507 q 274 530 251 507 q 297 588 297 553 q 274 645 297 622 q 218 668 251 668 q 162 645 185 668 q 139 588 139 622 m 293 -119 l 293 -87 l 242 -87 l 242 -65 l 293 -36 l 293 0 l 236 -33 q 193 -6 222 -6 q 157 -20 171 -6 q 143 -58 143 -35 l 143 -119 l 293 -119 m 143 56 l 293 56 l 293 22 l 143 22 l 143 56 m 293 75 l 293 110 l 265 119 l 265 179 l 293 190 l 293 226 l 143 165 l 143 133 l 293 75 m 293 244 l 293 336 l 264 336 l 264 278 l 143 278 l 143 244 l 293 244 m 293 403 l 293 435 l 236 435 l 236 488 l 206 488 l 206 435 l 174 435 l 174 493 l 143 493 l 143 403 l 293 403 m 293 693 l 293 725 l 199 725 l 293 794 l 293 821 l 143 821 l 143 789 l 235 789 l 143 724 l 143 693 l 293 693 m 174 843 l 174 885 l 293 885 l 293 918 l 174 918 l 174 960 l 143 960 l 143 843 l 174 843 m 171 588 q 184 622 171 608 q 218 635 197 635 q 253 622 239 635 q 267 588 267 608 q 253 554 267 568 q 218 540 239 540 q 184 554 197 540 q 171 588 171 568 m 172 -61 q 178 -45 172 -51 q 192 -39 183 -39 q 207 -45 201 -39 q 213 -61 213 -51 l 213 -87 l 172 -87 l 172 -61 m 236 169 l 236 131 l 182 150 l 236 169 z "},"Ŏ":{"ha":436,"x_min":139,"x_max":297,"o":"m 174 -183 l 293 -183 l 293 -217 l 174 -217 l 174 -258 l 143 -258 l 143 -142 l 174 -142 l 174 -183 m 139 588 q 162 530 139 553 q 218 507 185 507 q 274 530 251 507 q 297 588 297 553 q 274 645 297 622 q 218 668 251 668 q 162 645 185 668 q 139 588 139 622 m 293 -119 l 293 -87 l 242 -87 l 242 -65 l 293 -36 l 293 0 l 236 -33 q 193 -6 222 -6 q 157 -20 171 -6 q 143 -58 143 -35 l 143 -119 l 293 -119 m 143 56 l 293 56 l 293 22 l 143 22 l 143 56 m 293 75 l 293 110 l 265 119 l 265 179 l 293 190 l 293 226 l 143 165 l 143 133 l 293 75 m 293 244 l 293 336 l 264 336 l 264 278 l 143 278 l 143 244 l 293 244 m 293 403 l 293 435 l 236 435 l 236 488 l 206 488 l 206 435 l 174 435 l 174 493 l 143 493 l 143 403 l 293 403 m 293 693 l 293 725 l 199 725 l 293 794 l 293 821 l 143 821 l 143 789 l 235 789 l 143 724 l 143 693 l 293 693 m 174 843 l 174 885 l 293 885 l 293 918 l 174 918 l 174 960 l 143 960 l 143 843 l 174 843 m 171 588 q 184 622 171 608 q 218 635 197 635 q 253 622 239 635 q 267 588 267 608 q 253 554 267 568 q 218 540 239 540 q 184 554 197 540 q 171 588 171 568 m 172 -61 q 178 -45 172 -51 q 192 -39 183 -39 q 207 -45 201 -39 q 213 -61 213 -51 l 213 -87 l 172 -87 l 172 -61 m 236 169 l 236 131 l 182 150 l 236 169 z "},"Ô":{"ha":436,"x_min":139,"x_max":297,"o":"m 174 -183 l 293 -183 l 293 -217 l 174 -217 l 174 -258 l 143 -258 l 143 -142 l 174 -142 l 174 -183 m 139 588 q 162 530 139 553 q 218 507 185 507 q 274 530 251 507 q 297 588 297 553 q 274 645 297 622 q 218 668 251 668 q 162 645 185 668 q 139 588 139 622 m 293 -119 l 293 -87 l 242 -87 l 242 -65 l 293 -36 l 293 0 l 236 -33 q 193 -6 222 -6 q 157 -20 171 -6 q 143 -58 143 -35 l 143 -119 l 293 -119 m 143 56 l 293 56 l 293 22 l 143 22 l 143 56 m 293 75 l 293 110 l 265 119 l 265 179 l 293 190 l 293 226 l 143 165 l 143 133 l 293 75 m 293 244 l 293 336 l 264 336 l 264 278 l 143 278 l 143 244 l 293 244 m 293 403 l 293 435 l 236 435 l 236 488 l 206 488 l 206 435 l 174 435 l 174 493 l 143 493 l 143 403 l 293 403 m 293 693 l 293 725 l 199 725 l 293 794 l 293 821 l 143 821 l 143 789 l 235 789 l 143 724 l 143 693 l 293 693 m 174 843 l 174 885 l 293 885 l 293 918 l 174 918 l 174 960 l 143 960 l 143 843 l 174 843 m 171 588 q 184 622 171 608 q 218 635 197 635 q 253 622 239 635 q 267 588 267 608 q 253 554 267 568 q 218 540 239 540 q 184 554 197 540 q 171 588 171 568 m 172 -61 q 178 -45 172 -51 q 192 -39 183 -39 q 207 -45 201 -39 q 213 -61 213 -51 l 213 -87 l 172 -87 l 172 -61 m 236 169 l 236 131 l 182 150 l 236 169 z "},"Ö":{"ha":436,"x_min":139,"x_max":297,"o":"m 174 -183 l 293 -183 l 293 -217 l 174 -217 l 174 -258 l 143 -258 l 143 -142 l 174 -142 l 174 -183 m 139 588 q 162 530 139 553 q 218 507 185 507 q 274 530 251 507 q 297 588 297 553 q 274 645 297 622 q 218 668 251 668 q 162 645 185 668 q 139 588 139 622 m 293 -119 l 293 -87 l 242 -87 l 242 -65 l 293 -36 l 293 0 l 236 -33 q 193 -6 222 -6 q 157 -20 171 -6 q 143 -58 143 -35 l 143 -119 l 293 -119 m 143 56 l 293 56 l 293 22 l 143 22 l 143 56 m 293 75 l 293 110 l 265 119 l 265 179 l 293 190 l 293 226 l 143 165 l 143 133 l 293 75 m 293 244 l 293 336 l 264 336 l 264 278 l 143 278 l 143 244 l 293 244 m 293 403 l 293 435 l 236 435 l 236 488 l 206 488 l 206 435 l 174 435 l 174 493 l 143 493 l 143 403 l 293 403 m 293 693 l 293 725 l 199 725 l 293 794 l 293 821 l 143 821 l 143 789 l 235 789 l 143 724 l 143 693 l 293 693 m 174 843 l 174 885 l 293 885 l 293 918 l 174 918 l 174 960 l 143 960 l 143 843 l 174 843 m 171 588 q 184 622 171 608 q 218 635 197 635 q 253 622 239 635 q 267 588 267 608 q 253 554 267 568 q 218 540 239 540 q 184 554 197 540 q 171 588 171 568 m 172 -61 q 178 -45 172 -51 q 192 -39 183 -39 q 207 -45 201 -39 q 213 -61 213 -51 l 213 -87 l 172 -87 l 172 -61 m 236 169 l 236 131 l 182 150 l 236 169 z "},"Ò":{"ha":436,"x_min":139,"x_max":297,"o":"m 174 -183 l 293 -183 l 293 -217 l 174 -217 l 174 -258 l 143 -258 l 143 -142 l 174 -142 l 174 -183 m 139 588 q 162 530 139 553 q 218 507 185 507 q 274 530 251 507 q 297 588 297 553 q 274 645 297 622 q 218 668 251 668 q 162 645 185 668 q 139 588 139 622 m 293 -119 l 293 -87 l 242 -87 l 242 -65 l 293 -36 l 293 0 l 236 -33 q 193 -6 222 -6 q 157 -20 171 -6 q 143 -58 143 -35 l 143 -119 l 293 -119 m 143 56 l 293 56 l 293 22 l 143 22 l 143 56 m 293 75 l 293 110 l 265 119 l 265 179 l 293 190 l 293 226 l 143 165 l 143 133 l 293 75 m 293 244 l 293 336 l 264 336 l 264 278 l 143 278 l 143 244 l 293 244 m 293 403 l 293 435 l 236 435 l 236 488 l 206 488 l 206 435 l 174 435 l 174 493 l 143 493 l 143 403 l 293 403 m 293 693 l 293 725 l 199 725 l 293 794 l 293 821 l 143 821 l 143 789 l 235 789 l 143 724 l 143 693 l 293 693 m 174 843 l 174 885 l 293 885 l 293 918 l 174 918 l 174 960 l 143 960 l 143 843 l 174 843 m 171 588 q 184 622 171 608 q 218 635 197 635 q 253 622 239 635 q 267 588 267 608 q 253 554 267 568 q 218 540 239 540 q 184 554 197 540 q 171 588 171 568 m 172 -61 q 178 -45 172 -51 q 192 -39 183 -39 q 207 -45 201 -39 q 213 -61 213 -51 l 213 -87 l 172 -87 l 172 -61 m 236 169 l 236 131 l 182 150 l 236 169 z "},"Ő":{"ha":436,"x_min":139,"x_max":297,"o":"m 174 -183 l 293 -183 l 293 -217 l 174 -217 l 174 -258 l 143 -258 l 143 -142 l 174 -142 l 174 -183 m 139 588 q 162 530 139 553 q 218 507 185 507 q 274 530 251 507 q 297 588 297 553 q 274 645 297 622 q 218 668 251 668 q 162 645 185 668 q 139 588 139 622 m 293 -119 l 293 -87 l 242 -87 l 242 -65 l 293 -36 l 293 0 l 236 -33 q 193 -6 222 -6 q 157 -20 171 -6 q 143 -58 143 -35 l 143 -119 l 293 -119 m 143 56 l 293 56 l 293 22 l 143 22 l 143 56 m 293 75 l 293 110 l 265 119 l 265 179 l 293 190 l 293 226 l 143 165 l 143 133 l 293 75 m 293 244 l 293 336 l 264 336 l 264 278 l 143 278 l 143 244 l 293 244 m 293 403 l 293 435 l 236 435 l 236 488 l 206 488 l 206 435 l 174 435 l 174 493 l 143 493 l 143 403 l 293 403 m 293 693 l 293 725 l 199 725 l 293 794 l 293 821 l 143 821 l 143 789 l 235 789 l 143 724 l 143 693 l 293 693 m 174 843 l 174 885 l 293 885 l 293 918 l 174 918 l 174 960 l 143 960 l 143 843 l 174 843 m 171 588 q 184 622 171 608 q 218 635 197 635 q 253 622 239 635 q 267 588 267 608 q 253 554 267 568 q 218 540 239 540 q 184 554 197 540 q 171 588 171 568 m 172 -61 q 178 -45 172 -51 q 192 -39 183 -39 q 207 -45 201 -39 q 213 -61 213 -51 l 213 -87 l 172 -87 l 172 -61 m 236 169 l 236 131 l 182 150 l 236 169 z "},"Ō":{"ha":436,"x_min":139,"x_max":297,"o":"m 174 -183 l 293 -183 l 293 -217 l 174 -217 l 174 -258 l 143 -258 l 143 -142 l 174 -142 l 174 -183 m 139 588 q 162 530 139 553 q 218 507 185 507 q 274 530 251 507 q 297 588 297 553 q 274 645 297 622 q 218 668 251 668 q 162 645 185 668 q 139 588 139 622 m 293 -119 l 293 -87 l 242 -87 l 242 -65 l 293 -36 l 293 0 l 236 -33 q 193 -6 222 -6 q 157 -20 171 -6 q 143 -58 143 -35 l 143 -119 l 293 -119 m 143 56 l 293 56 l 293 22 l 143 22 l 143 56 m 293 75 l 293 110 l 265 119 l 265 179 l 293 190 l 293 226 l 143 165 l 143 133 l 293 75 m 293 244 l 293 336 l 264 336 l 264 278 l 143 278 l 143 244 l 293 244 m 293 403 l 293 435 l 236 435 l 236 488 l 206 488 l 206 435 l 174 435 l 174 493 l 143 493 l 143 403 l 293 403 m 293 693 l 293 725 l 199 725 l 293 794 l 293 821 l 143 821 l 143 789 l 235 789 l 143 724 l 143 693 l 293 693 m 174 843 l 174 885 l 293 885 l 293 918 l 174 918 l 174 960 l 143 960 l 143 843 l 174 843 m 171 588 q 184 622 171 608 q 218 635 197 635 q 253 622 239 635 q 267 588 267 608 q 253 554 267 568 q 218 540 239 540 q 184 554 197 540 q 171 588 171 568 m 172 -61 q 178 -45 172 -51 q 192 -39 183 -39 q 207 -45 201 -39 q 213 -61 213 -51 l 213 -87 l 172 -87 l 172 -61 m 236 169 l 236 131 l 182 150 l 236 169 z "},"Ø":{"ha":1125,"x_min":22,"x_max":1103,"o":"m 563 -22 q 446 -12 499 -22 l 392 -111 l 100 -111 l 100 -72 l 194 100 q 67 267 113 168 q 22 486 22 367 q 90 751 22 635 q 281 931 158 867 q 563 994 404 994 q 681 985 628 994 l 733 1082 l 1025 1082 l 1025 1043 l 931 872 q 1058 705 1013 804 q 1103 486 1103 606 q 1035 222 1103 338 q 844 42 967 106 q 563 -22 721 -22 m 394 486 q 441 360 394 408 q 563 311 488 311 q 684 360 638 311 q 731 486 731 408 q 684 613 731 564 q 563 661 638 661 q 441 613 488 661 q 394 486 394 564 z "},"Ǿ":{"ha":436,"x_min":139,"x_max":297,"o":"m 174 -183 l 293 -183 l 293 -217 l 174 -217 l 174 -258 l 143 -258 l 143 -142 l 174 -142 l 174 -183 m 139 588 q 162 530 139 553 q 218 507 185 507 q 274 530 251 507 q 297 588 297 553 q 274 645 297 622 q 218 668 251 668 q 162 645 185 668 q 139 588 139 622 m 293 -119 l 293 -87 l 242 -87 l 242 -65 l 293 -36 l 293 0 l 236 -33 q 193 -6 222 -6 q 157 -20 171 -6 q 143 -58 143 -35 l 143 -119 l 293 -119 m 143 56 l 293 56 l 293 22 l 143 22 l 143 56 m 293 75 l 293 110 l 265 119 l 265 179 l 293 190 l 293 226 l 143 165 l 143 133 l 293 75 m 293 244 l 293 336 l 264 336 l 264 278 l 143 278 l 143 244 l 293 244 m 293 403 l 293 435 l 236 435 l 236 488 l 206 488 l 206 435 l 174 435 l 174 493 l 143 493 l 143 403 l 293 403 m 293 693 l 293 725 l 199 725 l 293 794 l 293 821 l 143 821 l 143 789 l 235 789 l 143 724 l 143 693 l 293 693 m 174 843 l 174 885 l 293 885 l 293 918 l 174 918 l 174 960 l 143 960 l 143 843 l 174 843 m 171 588 q 184 622 171 608 q 218 635 197 635 q 253 622 239 635 q 267 588 267 608 q 253 554 267 568 q 218 540 239 540 q 184 554 197 540 q 171 588 171 568 m 172 -61 q 178 -45 172 -51 q 192 -39 183 -39 q 207 -45 201 -39 q 213 -61 213 -51 l 213 -87 l 172 -87 l 172 -61 m 236 169 l 236 131 l 182 150 l 236 169 z "},"Õ":{"ha":436,"x_min":139,"x_max":297,"o":"m 174 -183 l 293 -183 l 293 -217 l 174 -217 l 174 -258 l 143 -258 l 143 -142 l 174 -142 l 174 -183 m 139 588 q 162 530 139 553 q 218 507 185 507 q 274 530 251 507 q 297 588 297 553 q 274 645 297 622 q 218 668 251 668 q 162 645 185 668 q 139 588 139 622 m 293 -119 l 293 -87 l 242 -87 l 242 -65 l 293 -36 l 293 0 l 236 -33 q 193 -6 222 -6 q 157 -20 171 -6 q 143 -58 143 -35 l 143 -119 l 293 -119 m 143 56 l 293 56 l 293 22 l 143 22 l 143 56 m 293 75 l 293 110 l 265 119 l 265 179 l 293 190 l 293 226 l 143 165 l 143 133 l 293 75 m 293 244 l 293 336 l 264 336 l 264 278 l 143 278 l 143 244 l 293 244 m 293 403 l 293 435 l 236 435 l 236 488 l 206 488 l 206 435 l 174 435 l 174 493 l 143 493 l 143 403 l 293 403 m 293 693 l 293 725 l 199 725 l 293 794 l 293 821 l 143 821 l 143 789 l 235 789 l 143 724 l 143 693 l 293 693 m 174 843 l 174 885 l 293 885 l 293 918 l 174 918 l 174 960 l 143 960 l 143 843 l 174 843 m 171 588 q 184 622 171 608 q 218 635 197 635 q 253 622 239 635 q 267 588 267 608 q 253 554 267 568 q 218 540 239 540 q 184 554 197 540 q 171 588 171 568 m 172 -61 q 178 -45 172 -51 q 192 -39 183 -39 q 207 -45 201 -39 q 213 -61 213 -51 l 213 -87 l 172 -87 l 172 -61 m 236 169 l 236 131 l 182 150 l 236 169 z "},"Œ":{"ha":436,"x_min":139,"x_max":297,"o":"m 174 -183 l 293 -183 l 293 -217 l 174 -217 l 174 -258 l 143 -258 l 143 -142 l 174 -142 l 174 -183 m 139 588 q 162 530 139 553 q 218 507 185 507 q 274 530 251 507 q 297 588 297 553 q 274 645 297 622 q 218 668 251 668 q 162 645 185 668 q 139 588 139 622 m 293 -119 l 293 -87 l 242 -87 l 242 -65 l 293 -36 l 293 0 l 236 -33 q 193 -6 222 -6 q 157 -20 171 -6 q 143 -58 143 -35 l 143 -119 l 293 -119 m 143 56 l 293 56 l 293 22 l 143 22 l 143 56 m 293 75 l 293 110 l 265 119 l 265 179 l 293 190 l 293 226 l 143 165 l 143 133 l 293 75 m 293 244 l 293 336 l 264 336 l 264 278 l 143 278 l 143 244 l 293 244 m 293 403 l 293 435 l 236 435 l 236 488 l 206 488 l 206 435 l 174 435 l 174 493 l 143 493 l 143 403 l 293 403 m 293 693 l 293 725 l 199 725 l 293 794 l 293 821 l 143 821 l 143 789 l 235 789 l 143 724 l 143 693 l 293 693 m 174 843 l 174 885 l 293 885 l 293 918 l 174 918 l 174 960 l 143 960 l 143 843 l 174 843 m 171 588 q 184 622 171 608 q 218 635 197 635 q 253 622 239 635 q 267 588 267 608 q 253 554 267 568 q 218 540 239 540 q 184 554 197 540 q 171 588 171 568 m 172 -61 q 178 -45 172 -51 q 192 -39 183 -39 q 207 -45 201 -39 q 213 -61 213 -51 l 213 -87 l 172 -87 l 172 -61 m 236 169 l 236 131 l 182 150 l 236 169 z "},"P":{"ha":913,"x_min":61,"x_max":894,"o":"m 61 972 l 486 972 q 787 874 679 972 q 894 600 894 776 q 787 326 894 424 q 486 228 679 228 l 436 228 l 436 0 l 61 0 l 61 972 m 463 515 q 547 597 547 515 q 463 679 547 679 l 419 679 l 419 515 l 463 515 z "},"Þ":{"ha":436,"x_min":139,"x_max":297,"o":"m 174 -183 l 293 -183 l 293 -217 l 174 -217 l 174 -258 l 143 -258 l 143 -142 l 174 -142 l 174 -183 m 139 588 q 162 530 139 553 q 218 507 185 507 q 274 530 251 507 q 297 588 297 553 q 274 645 297 622 q 218 668 251 668 q 162 645 185 668 q 139 588 139 622 m 293 -119 l 293 -87 l 242 -87 l 242 -65 l 293 -36 l 293 0 l 236 -33 q 193 -6 222 -6 q 157 -20 171 -6 q 143 -58 143 -35 l 143 -119 l 293 -119 m 143 56 l 293 56 l 293 22 l 143 22 l 143 56 m 293 75 l 293 110 l 265 119 l 265 179 l 293 190 l 293 226 l 143 165 l 143 133 l 293 75 m 293 244 l 293 336 l 264 336 l 264 278 l 143 278 l 143 244 l 293 244 m 293 403 l 293 435 l 236 435 l 236 488 l 206 488 l 206 435 l 174 435 l 174 493 l 143 493 l 143 403 l 293 403 m 293 693 l 293 725 l 199 725 l 293 794 l 293 821 l 143 821 l 143 789 l 235 789 l 143 724 l 143 693 l 293 693 m 174 843 l 174 885 l 293 885 l 293 918 l 174 918 l 174 960 l 143 960 l 143 843 l 174 843 m 171 588 q 184 622 171 608 q 218 635 197 635 q 253 622 239 635 q 267 588 267 608 q 253 554 267 568 q 218 540 239 540 q 184 554 197 540 q 171 588 171 568 m 172 -61 q 178 -45 172 -51 q 192 -39 183 -39 q 207 -45 201 -39 q 213 -61 213 -51 l 213 -87 l 172 -87 l 172 -61 m 236 169 l 236 131 l 182 150 l 236 169 z "},"Q":{"ha":1138,"x_min":22,"x_max":1146,"o":"m 563 -22 q 281 42 404 -22 q 90 222 158 106 q 22 486 22 338 q 90 751 22 635 q 281 931 158 867 q 563 994 404 994 q 844 931 721 994 q 1035 751 967 867 q 1103 486 1103 635 q 989 183 1103 318 l 1146 -33 l 1146 -71 l 849 -71 l 772 21 q 563 -22 669 -22 m 396 486 q 442 360 396 408 q 563 311 489 311 l 571 311 l 488 419 l 488 457 l 728 457 q 729 486 729 467 q 683 613 729 564 q 563 661 636 661 q 442 613 489 661 q 396 486 396 564 z "},"R":{"ha":935,"x_min":61,"x_max":928,"o":"m 61 972 l 465 972 q 781 881 671 972 q 892 628 892 789 q 857 473 892 538 q 757 371 822 408 l 928 38 l 928 0 l 561 0 l 429 299 l 429 0 l 61 0 l 61 972 m 468 528 q 526 549 504 528 q 549 606 549 569 q 526 663 549 642 q 468 683 504 683 l 419 683 l 419 528 l 468 528 z "},"Ŕ":{"ha":436,"x_min":139,"x_max":297,"o":"m 174 -183 l 293 -183 l 293 -217 l 174 -217 l 174 -258 l 143 -258 l 143 -142 l 174 -142 l 174 -183 m 139 588 q 162 530 139 553 q 218 507 185 507 q 274 530 251 507 q 297 588 297 553 q 274 645 297 622 q 218 668 251 668 q 162 645 185 668 q 139 588 139 622 m 293 -119 l 293 -87 l 242 -87 l 242 -65 l 293 -36 l 293 0 l 236 -33 q 193 -6 222 -6 q 157 -20 171 -6 q 143 -58 143 -35 l 143 -119 l 293 -119 m 143 56 l 293 56 l 293 22 l 143 22 l 143 56 m 293 75 l 293 110 l 265 119 l 265 179 l 293 190 l 293 226 l 143 165 l 143 133 l 293 75 m 293 244 l 293 336 l 264 336 l 264 278 l 143 278 l 143 244 l 293 244 m 293 403 l 293 435 l 236 435 l 236 488 l 206 488 l 206 435 l 174 435 l 174 493 l 143 493 l 143 403 l 293 403 m 293 693 l 293 725 l 199 725 l 293 794 l 293 821 l 143 821 l 143 789 l 235 789 l 143 724 l 143 693 l 293 693 m 174 843 l 174 885 l 293 885 l 293 918 l 174 918 l 174 960 l 143 960 l 143 843 l 174 843 m 171 588 q 184 622 171 608 q 218 635 197 635 q 253 622 239 635 q 267 588 267 608 q 253 554 267 568 q 218 540 239 540 q 184 554 197 540 q 171 588 171 568 m 172 -61 q 178 -45 172 -51 q 192 -39 183 -39 q 207 -45 201 -39 q 213 -61 213 -51 l 213 -87 l 172 -87 l 172 -61 m 236 169 l 236 131 l 182 150 l 236 169 z "},"Ř":{"ha":436,"x_min":139,"x_max":297,"o":"m 174 -183 l 293 -183 l 293 -217 l 174 -217 l 174 -258 l 143 -258 l 143 -142 l 174 -142 l 174 -183 m 139 588 q 162 530 139 553 q 218 507 185 507 q 274 530 251 507 q 297 588 297 553 q 274 645 297 622 q 218 668 251 668 q 162 645 185 668 q 139 588 139 622 m 293 -119 l 293 -87 l 242 -87 l 242 -65 l 293 -36 l 293 0 l 236 -33 q 193 -6 222 -6 q 157 -20 171 -6 q 143 -58 143 -35 l 143 -119 l 293 -119 m 143 56 l 293 56 l 293 22 l 143 22 l 143 56 m 293 75 l 293 110 l 265 119 l 265 179 l 293 190 l 293 226 l 143 165 l 143 133 l 293 75 m 293 244 l 293 336 l 264 336 l 264 278 l 143 278 l 143 244 l 293 244 m 293 403 l 293 435 l 236 435 l 236 488 l 206 488 l 206 435 l 174 435 l 174 493 l 143 493 l 143 403 l 293 403 m 293 693 l 293 725 l 199 725 l 293 794 l 293 821 l 143 821 l 143 789 l 235 789 l 143 724 l 143 693 l 293 693 m 174 843 l 174 885 l 293 885 l 293 918 l 174 918 l 174 960 l 143 960 l 143 843 l 174 843 m 171 588 q 184 622 171 608 q 218 635 197 635 q 253 622 239 635 q 267 588 267 608 q 253 554 267 568 q 218 540 239 540 q 184 554 197 540 q 171 588 171 568 m 172 -61 q 178 -45 172 -51 q 192 -39 183 -39 q 207 -45 201 -39 q 213 -61 213 -51 l 213 -87 l 172 -87 l 172 -61 m 236 169 l 236 131 l 182 150 l 236 169 z "},"Ŗ":{"ha":436,"x_min":139,"x_max":297,"o":"m 174 -183 l 293 -183 l 293 -217 l 174 -217 l 174 -258 l 143 -258 l 143 -142 l 174 -142 l 174 -183 m 139 588 q 162 530 139 553 q 218 507 185 507 q 274 530 251 507 q 297 588 297 553 q 274 645 297 622 q 218 668 251 668 q 162 645 185 668 q 139 588 139 622 m 293 -119 l 293 -87 l 242 -87 l 242 -65 l 293 -36 l 293 0 l 236 -33 q 193 -6 222 -6 q 157 -20 171 -6 q 143 -58 143 -35 l 143 -119 l 293 -119 m 143 56 l 293 56 l 293 22 l 143 22 l 143 56 m 293 75 l 293 110 l 265 119 l 265 179 l 293 190 l 293 226 l 143 165 l 143 133 l 293 75 m 293 244 l 293 336 l 264 336 l 264 278 l 143 278 l 143 244 l 293 244 m 293 403 l 293 435 l 236 435 l 236 488 l 206 488 l 206 435 l 174 435 l 174 493 l 143 493 l 143 403 l 293 403 m 293 693 l 293 725 l 199 725 l 293 794 l 293 821 l 143 821 l 143 789 l 235 789 l 143 724 l 143 693 l 293 693 m 174 843 l 174 885 l 293 885 l 293 918 l 174 918 l 174 960 l 143 960 l 143 843 l 174 843 m 171 588 q 184 622 171 608 q 218 635 197 635 q 253 622 239 635 q 267 588 267 608 q 253 554 267 568 q 218 540 239 540 q 184 554 197 540 q 171 588 171 568 m 172 -61 q 178 -45 172 -51 q 192 -39 183 -39 q 207 -45 201 -39 q 213 -61 213 -51 l 213 -87 l 172 -87 l 172 -61 m 236 169 l 236 131 l 182 150 l 236 169 z "},"S":{"ha":888,"x_min":21,"x_max":871,"o":"m 440 -22 q 143 66 260 -22 q 21 325 26 154 l 374 325 q 446 274 382 274 q 492 285 475 274 q 508 317 508 297 q 476 357 508 343 q 369 376 443 371 q 120 460 208 388 q 32 671 32 532 q 85 847 32 774 q 230 957 138 919 q 440 994 322 994 q 730 909 625 994 q 846 665 835 824 l 508 665 q 486 699 504 686 q 443 713 468 713 q 401 701 415 713 q 386 669 386 690 q 420 632 386 644 q 533 613 454 619 q 783 527 694 600 q 871 314 871 454 q 753 64 871 150 q 440 -22 635 -22 z "},"Ś":{"ha":436,"x_min":139,"x_max":297,"o":"m 174 -183 l 293 -183 l 293 -217 l 174 -217 l 174 -258 l 143 -258 l 143 -142 l 174 -142 l 174 -183 m 139 588 q 162 530 139 553 q 218 507 185 507 q 274 530 251 507 q 297 588 297 553 q 274 645 297 622 q 218 668 251 668 q 162 645 185 668 q 139 588 139 622 m 293 -119 l 293 -87 l 242 -87 l 242 -65 l 293 -36 l 293 0 l 236 -33 q 193 -6 222 -6 q 157 -20 171 -6 q 143 -58 143 -35 l 143 -119 l 293 -119 m 143 56 l 293 56 l 293 22 l 143 22 l 143 56 m 293 75 l 293 110 l 265 119 l 265 179 l 293 190 l 293 226 l 143 165 l 143 133 l 293 75 m 293 244 l 293 336 l 264 336 l 264 278 l 143 278 l 143 244 l 293 244 m 293 403 l 293 435 l 236 435 l 236 488 l 206 488 l 206 435 l 174 435 l 174 493 l 143 493 l 143 403 l 293 403 m 293 693 l 293 725 l 199 725 l 293 794 l 293 821 l 143 821 l 143 789 l 235 789 l 143 724 l 143 693 l 293 693 m 174 843 l 174 885 l 293 885 l 293 918 l 174 918 l 174 960 l 143 960 l 143 843 l 174 843 m 171 588 q 184 622 171 608 q 218 635 197 635 q 253 622 239 635 q 267 588 267 608 q 253 554 267 568 q 218 540 239 540 q 184 554 197 540 q 171 588 171 568 m 172 -61 q 178 -45 172 -51 q 192 -39 183 -39 q 207 -45 201 -39 q 213 -61 213 -51 l 213 -87 l 172 -87 l 172 -61 m 236 169 l 236 131 l 182 150 l 236 169 z "},"Š":{"ha":436,"x_min":139,"x_max":297,"o":"m 174 -183 l 293 -183 l 293 -217 l 174 -217 l 174 -258 l 143 -258 l 143 -142 l 174 -142 l 174 -183 m 139 588 q 162 530 139 553 q 218 507 185 507 q 274 530 251 507 q 297 588 297 553 q 274 645 297 622 q 218 668 251 668 q 162 645 185 668 q 139 588 139 622 m 293 -119 l 293 -87 l 242 -87 l 242 -65 l 293 -36 l 293 0 l 236 -33 q 193 -6 222 -6 q 157 -20 171 -6 q 143 -58 143 -35 l 143 -119 l 293 -119 m 143 56 l 293 56 l 293 22 l 143 22 l 143 56 m 293 75 l 293 110 l 265 119 l 265 179 l 293 190 l 293 226 l 143 165 l 143 133 l 293 75 m 293 244 l 293 336 l 264 336 l 264 278 l 143 278 l 143 244 l 293 244 m 293 403 l 293 435 l 236 435 l 236 488 l 206 488 l 206 435 l 174 435 l 174 493 l 143 493 l 143 403 l 293 403 m 293 693 l 293 725 l 199 725 l 293 794 l 293 821 l 143 821 l 143 789 l 235 789 l 143 724 l 143 693 l 293 693 m 174 843 l 174 885 l 293 885 l 293 918 l 174 918 l 174 960 l 143 960 l 143 843 l 174 843 m 171 588 q 184 622 171 608 q 218 635 197 635 q 253 622 239 635 q 267 588 267 608 q 253 554 267 568 q 218 540 239 540 q 184 554 197 540 q 171 588 171 568 m 172 -61 q 178 -45 172 -51 q 192 -39 183 -39 q 207 -45 201 -39 q 213 -61 213 -51 l 213 -87 l 172 -87 l 172 -61 m 236 169 l 236 131 l 182 150 l 236 169 z "},"Ş":{"ha":436,"x_min":139,"x_max":297,"o":"m 174 -183 l 293 -183 l 293 -217 l 174 -217 l 174 -258 l 143 -258 l 143 -142 l 174 -142 l 174 -183 m 139 588 q 162 530 139 553 q 218 507 185 507 q 274 530 251 507 q 297 588 297 553 q 274 645 297 622 q 218 668 251 668 q 162 645 185 668 q 139 588 139 622 m 293 -119 l 293 -87 l 242 -87 l 242 -65 l 293 -36 l 293 0 l 236 -33 q 193 -6 222 -6 q 157 -20 171 -6 q 143 -58 143 -35 l 143 -119 l 293 -119 m 143 56 l 293 56 l 293 22 l 143 22 l 143 56 m 293 75 l 293 110 l 265 119 l 265 179 l 293 190 l 293 226 l 143 165 l 143 133 l 293 75 m 293 244 l 293 336 l 264 336 l 264 278 l 143 278 l 143 244 l 293 244 m 293 403 l 293 435 l 236 435 l 236 488 l 206 488 l 206 435 l 174 435 l 174 493 l 143 493 l 143 403 l 293 403 m 293 693 l 293 725 l 199 725 l 293 794 l 293 821 l 143 821 l 143 789 l 235 789 l 143 724 l 143 693 l 293 693 m 174 843 l 174 885 l 293 885 l 293 918 l 174 918 l 174 960 l 143 960 l 143 843 l 174 843 m 171 588 q 184 622 171 608 q 218 635 197 635 q 253 622 239 635 q 267 588 267 608 q 253 554 267 568 q 218 540 239 540 q 184 554 197 540 q 171 588 171 568 m 172 -61 q 178 -45 172 -51 q 192 -39 183 -39 q 207 -45 201 -39 q 213 -61 213 -51 l 213 -87 l 172 -87 l 172 -61 m 236 169 l 236 131 l 182 150 l 236 169 z "},"Ŝ":{"ha":436,"x_min":139,"x_max":297,"o":"m 174 -183 l 293 -183 l 293 -217 l 174 -217 l 174 -258 l 143 -258 l 143 -142 l 174 -142 l 174 -183 m 139 588 q 162 530 139 553 q 218 507 185 507 q 274 530 251 507 q 297 588 297 553 q 274 645 297 622 q 218 668 251 668 q 162 645 185 668 q 139 588 139 622 m 293 -119 l 293 -87 l 242 -87 l 242 -65 l 293 -36 l 293 0 l 236 -33 q 193 -6 222 -6 q 157 -20 171 -6 q 143 -58 143 -35 l 143 -119 l 293 -119 m 143 56 l 293 56 l 293 22 l 143 22 l 143 56 m 293 75 l 293 110 l 265 119 l 265 179 l 293 190 l 293 226 l 143 165 l 143 133 l 293 75 m 293 244 l 293 336 l 264 336 l 264 278 l 143 278 l 143 244 l 293 244 m 293 403 l 293 435 l 236 435 l 236 488 l 206 488 l 206 435 l 174 435 l 174 493 l 143 493 l 143 403 l 293 403 m 293 693 l 293 725 l 199 725 l 293 794 l 293 821 l 143 821 l 143 789 l 235 789 l 143 724 l 143 693 l 293 693 m 174 843 l 174 885 l 293 885 l 293 918 l 174 918 l 174 960 l 143 960 l 143 843 l 174 843 m 171 588 q 184 622 171 608 q 218 635 197 635 q 253 622 239 635 q 267 588 267 608 q 253 554 267 568 q 218 540 239 540 q 184 554 197 540 q 171 588 171 568 m 172 -61 q 178 -45 172 -51 q 192 -39 183 -39 q 207 -45 201 -39 q 213 -61 213 -51 l 213 -87 l 172 -87 l 172 -61 m 236 169 l 236 131 l 182 150 l 236 169 z "},"Ș":{"ha":436,"x_min":139,"x_max":297,"o":"m 174 -183 l 293 -183 l 293 -217 l 174 -217 l 174 -258 l 143 -258 l 143 -142 l 174 -142 l 174 -183 m 139 588 q 162 530 139 553 q 218 507 185 507 q 274 530 251 507 q 297 588 297 553 q 274 645 297 622 q 218 668 251 668 q 162 645 185 668 q 139 588 139 622 m 293 -119 l 293 -87 l 242 -87 l 242 -65 l 293 -36 l 293 0 l 236 -33 q 193 -6 222 -6 q 157 -20 171 -6 q 143 -58 143 -35 l 143 -119 l 293 -119 m 143 56 l 293 56 l 293 22 l 143 22 l 143 56 m 293 75 l 293 110 l 265 119 l 265 179 l 293 190 l 293 226 l 143 165 l 143 133 l 293 75 m 293 244 l 293 336 l 264 336 l 264 278 l 143 278 l 143 244 l 293 244 m 293 403 l 293 435 l 236 435 l 236 488 l 206 488 l 206 435 l 174 435 l 174 493 l 143 493 l 143 403 l 293 403 m 293 693 l 293 725 l 199 725 l 293 794 l 293 821 l 143 821 l 143 789 l 235 789 l 143 724 l 143 693 l 293 693 m 174 843 l 174 885 l 293 885 l 293 918 l 174 918 l 174 960 l 143 960 l 143 843 l 174 843 m 171 588 q 184 622 171 608 q 218 635 197 635 q 253 622 239 635 q 267 588 267 608 q 253 554 267 568 q 218 540 239 540 q 184 554 197 540 q 171 588 171 568 m 172 -61 q 178 -45 172 -51 q 192 -39 183 -39 q 207 -45 201 -39 q 213 -61 213 -51 l 213 -87 l 172 -87 l 172 -61 m 236 169 l 236 131 l 182 150 l 236 169 z "},"ẞ":{"ha":436,"x_min":139,"x_max":297,"o":"m 174 -183 l 293 -183 l 293 -217 l 174 -217 l 174 -258 l 143 -258 l 143 -142 l 174 -142 l 174 -183 m 139 588 q 162 530 139 553 q 218 507 185 507 q 274 530 251 507 q 297 588 297 553 q 274 645 297 622 q 218 668 251 668 q 162 645 185 668 q 139 588 139 622 m 293 -119 l 293 -87 l 242 -87 l 242 -65 l 293 -36 l 293 0 l 236 -33 q 193 -6 222 -6 q 157 -20 171 -6 q 143 -58 143 -35 l 143 -119 l 293 -119 m 143 56 l 293 56 l 293 22 l 143 22 l 143 56 m 293 75 l 293 110 l 265 119 l 265 179 l 293 190 l 293 226 l 143 165 l 143 133 l 293 75 m 293 244 l 293 336 l 264 336 l 264 278 l 143 278 l 143 244 l 293 244 m 293 403 l 293 435 l 236 435 l 236 488 l 206 488 l 206 435 l 174 435 l 174 493 l 143 493 l 143 403 l 293 403 m 293 693 l 293 725 l 199 725 l 293 794 l 293 821 l 143 821 l 143 789 l 235 789 l 143 724 l 143 693 l 293 693 m 174 843 l 174 885 l 293 885 l 293 918 l 174 918 l 174 960 l 143 960 l 143 843 l 174 843 m 171 588 q 184 622 171 608 q 218 635 197 635 q 253 622 239 635 q 267 588 267 608 q 253 554 267 568 q 218 540 239 540 q 184 554 197 540 q 171 588 171 568 m 172 -61 q 178 -45 172 -51 q 192 -39 183 -39 q 207 -45 201 -39 q 213 -61 213 -51 l 213 -87 l 172 -87 l 172 -61 m 236 169 l 236 131 l 182 150 l 236 169 z "},"Ə":{"ha":436,"x_min":139,"x_max":297,"o":"m 174 -183 l 293 -183 l 293 -217 l 174 -217 l 174 -258 l 143 -258 l 143 -142 l 174 -142 l 174 -183 m 139 588 q 162 530 139 553 q 218 507 185 507 q 274 530 251 507 q 297 588 297 553 q 274 645 297 622 q 218 668 251 668 q 162 645 185 668 q 139 588 139 622 m 293 -119 l 293 -87 l 242 -87 l 242 -65 l 293 -36 l 293 0 l 236 -33 q 193 -6 222 -6 q 157 -20 171 -6 q 143 -58 143 -35 l 143 -119 l 293 -119 m 143 56 l 293 56 l 293 22 l 143 22 l 143 56 m 293 75 l 293 110 l 265 119 l 265 179 l 293 190 l 293 226 l 143 165 l 143 133 l 293 75 m 293 244 l 293 336 l 264 336 l 264 278 l 143 278 l 143 244 l 293 244 m 293 403 l 293 435 l 236 435 l 236 488 l 206 488 l 206 435 l 174 435 l 174 493 l 143 493 l 143 403 l 293 403 m 293 693 l 293 725 l 199 725 l 293 794 l 293 821 l 143 821 l 143 789 l 235 789 l 143 724 l 143 693 l 293 693 m 174 843 l 174 885 l 293 885 l 293 918 l 174 918 l 174 960 l 143 960 l 143 843 l 174 843 m 171 588 q 184 622 171 608 q 218 635 197 635 q 253 622 239 635 q 267 588 267 608 q 253 554 267 568 q 218 540 239 540 q 184 554 197 540 q 171 588 171 568 m 172 -61 q 178 -45 172 -51 q 192 -39 183 -39 q 207 -45 201 -39 q 213 -61 213 -51 l 213 -87 l 172 -87 l 172 -61 m 236 169 l 236 131 l 182 150 l 236 169 z "},"T":{"ha":875,"x_min":26,"x_max":849,"o":"m 250 661 l 26 661 l 26 972 l 849 972 l 849 661 l 625 661 l 625 0 l 250 0 l 250 661 z "},"Ŧ":{"ha":436,"x_min":139,"x_max":297,"o":"m 174 -183 l 293 -183 l 293 -217 l 174 -217 l 174 -258 l 143 -258 l 143 -142 l 174 -142 l 174 -183 m 139 588 q 162 530 139 553 q 218 507 185 507 q 274 530 251 507 q 297 588 297 553 q 274 645 297 622 q 218 668 251 668 q 162 645 185 668 q 139 588 139 622 m 293 -119 l 293 -87 l 242 -87 l 242 -65 l 293 -36 l 293 0 l 236 -33 q 193 -6 222 -6 q 157 -20 171 -6 q 143 -58 143 -35 l 143 -119 l 293 -119 m 143 56 l 293 56 l 293 22 l 143 22 l 143 56 m 293 75 l 293 110 l 265 119 l 265 179 l 293 190 l 293 226 l 143 165 l 143 133 l 293 75 m 293 244 l 293 336 l 264 336 l 264 278 l 143 278 l 143 244 l 293 244 m 293 403 l 293 435 l 236 435 l 236 488 l 206 488 l 206 435 l 174 435 l 174 493 l 143 493 l 143 403 l 293 403 m 293 693 l 293 725 l 199 725 l 293 794 l 293 821 l 143 821 l 143 789 l 235 789 l 143 724 l 143 693 l 293 693 m 174 843 l 174 885 l 293 885 l 293 918 l 174 918 l 174 960 l 143 960 l 143 843 l 174 843 m 171 588 q 184 622 171 608 q 218 635 197 635 q 253 622 239 635 q 267 588 267 608 q 253 554 267 568 q 218 540 239 540 q 184 554 197 540 q 171 588 171 568 m 172 -61 q 178 -45 172 -51 q 192 -39 183 -39 q 207 -45 201 -39 q 213 -61 213 -51 l 213 -87 l 172 -87 l 172 -61 m 236 169 l 236 131 l 182 150 l 236 169 z "},"Ť":{"ha":436,"x_min":139,"x_max":297,"o":"m 174 -183 l 293 -183 l 293 -217 l 174 -217 l 174 -258 l 143 -258 l 143 -142 l 174 -142 l 174 -183 m 139 588 q 162 530 139 553 q 218 507 185 507 q 274 530 251 507 q 297 588 297 553 q 274 645 297 622 q 218 668 251 668 q 162 645 185 668 q 139 588 139 622 m 293 -119 l 293 -87 l 242 -87 l 242 -65 l 293 -36 l 293 0 l 236 -33 q 193 -6 222 -6 q 157 -20 171 -6 q 143 -58 143 -35 l 143 -119 l 293 -119 m 143 56 l 293 56 l 293 22 l 143 22 l 143 56 m 293 75 l 293 110 l 265 119 l 265 179 l 293 190 l 293 226 l 143 165 l 143 133 l 293 75 m 293 244 l 293 336 l 264 336 l 264 278 l 143 278 l 143 244 l 293 244 m 293 403 l 293 435 l 236 435 l 236 488 l 206 488 l 206 435 l 174 435 l 174 493 l 143 493 l 143 403 l 293 403 m 293 693 l 293 725 l 199 725 l 293 794 l 293 821 l 143 821 l 143 789 l 235 789 l 143 724 l 143 693 l 293 693 m 174 843 l 174 885 l 293 885 l 293 918 l 174 918 l 174 960 l 143 960 l 143 843 l 174 843 m 171 588 q 184 622 171 608 q 218 635 197 635 q 253 622 239 635 q 267 588 267 608 q 253 554 267 568 q 218 540 239 540 q 184 554 197 540 q 171 588 171 568 m 172 -61 q 178 -45 172 -51 q 192 -39 183 -39 q 207 -45 201 -39 q 213 -61 213 -51 l 213 -87 l 172 -87 l 172 -61 m 236 169 l 236 131 l 182 150 l 236 169 z "},"Ţ":{"ha":436,"x_min":139,"x_max":297,"o":"m 174 -183 l 293 -183 l 293 -217 l 174 -217 l 174 -258 l 143 -258 l 143 -142 l 174 -142 l 174 -183 m 139 588 q 162 530 139 553 q 218 507 185 507 q 274 530 251 507 q 297 588 297 553 q 274 645 297 622 q 218 668 251 668 q 162 645 185 668 q 139 588 139 622 m 293 -119 l 293 -87 l 242 -87 l 242 -65 l 293 -36 l 293 0 l 236 -33 q 193 -6 222 -6 q 157 -20 171 -6 q 143 -58 143 -35 l 143 -119 l 293 -119 m 143 56 l 293 56 l 293 22 l 143 22 l 143 56 m 293 75 l 293 110 l 265 119 l 265 179 l 293 190 l 293 226 l 143 165 l 143 133 l 293 75 m 293 244 l 293 336 l 264 336 l 264 278 l 143 278 l 143 244 l 293 244 m 293 403 l 293 435 l 236 435 l 236 488 l 206 488 l 206 435 l 174 435 l 174 493 l 143 493 l 143 403 l 293 403 m 293 693 l 293 725 l 199 725 l 293 794 l 293 821 l 143 821 l 143 789 l 235 789 l 143 724 l 143 693 l 293 693 m 174 843 l 174 885 l 293 885 l 293 918 l 174 918 l 174 960 l 143 960 l 143 843 l 174 843 m 171 588 q 184 622 171 608 q 218 635 197 635 q 253 622 239 635 q 267 588 267 608 q 253 554 267 568 q 218 540 239 540 q 184 554 197 540 q 171 588 171 568 m 172 -61 q 178 -45 172 -51 q 192 -39 183 -39 q 207 -45 201 -39 q 213 -61 213 -51 l 213 -87 l 172 -87 l 172 -61 m 236 169 l 236 131 l 182 150 l 236 169 z "},"Ț":{"ha":436,"x_min":139,"x_max":297,"o":"m 174 -183 l 293 -183 l 293 -217 l 174 -217 l 174 -258 l 143 -258 l 143 -142 l 174 -142 l 174 -183 m 139 588 q 162 530 139 553 q 218 507 185 507 q 274 530 251 507 q 297 588 297 553 q 274 645 297 622 q 218 668 251 668 q 162 645 185 668 q 139 588 139 622 m 293 -119 l 293 -87 l 242 -87 l 242 -65 l 293 -36 l 293 0 l 236 -33 q 193 -6 222 -6 q 157 -20 171 -6 q 143 -58 143 -35 l 143 -119 l 293 -119 m 143 56 l 293 56 l 293 22 l 143 22 l 143 56 m 293 75 l 293 110 l 265 119 l 265 179 l 293 190 l 293 226 l 143 165 l 143 133 l 293 75 m 293 244 l 293 336 l 264 336 l 264 278 l 143 278 l 143 244 l 293 244 m 293 403 l 293 435 l 236 435 l 236 488 l 206 488 l 206 435 l 174 435 l 174 493 l 143 493 l 143 403 l 293 403 m 293 693 l 293 725 l 199 725 l 293 794 l 293 821 l 143 821 l 143 789 l 235 789 l 143 724 l 143 693 l 293 693 m 174 843 l 174 885 l 293 885 l 293 918 l 174 918 l 174 960 l 143 960 l 143 843 l 174 843 m 171 588 q 184 622 171 608 q 218 635 197 635 q 253 622 239 635 q 267 588 267 608 q 253 554 267 568 q 218 540 239 540 q 184 554 197 540 q 171 588 171 568 m 172 -61 q 178 -45 172 -51 q 192 -39 183 -39 q 207 -45 201 -39 q 213 -61 213 -51 l 213 -87 l 172 -87 l 172 -61 m 236 169 l 236 131 l 182 150 l 236 169 z "},"U":{"ha":1019,"x_min":53,"x_max":967,"o":"m 510 -22 q 265 24 368 -22 q 108 159 163 71 q 53 368 53 247 l 53 972 l 428 972 l 428 410 q 449 336 428 361 q 510 311 469 311 q 571 336 550 311 q 592 410 592 361 l 592 972 l 967 972 l 967 368 q 912 159 967 247 q 754 24 857 71 q 510 -22 651 -22 z "},"Ú":{"ha":436,"x_min":139,"x_max":297,"o":"m 174 -183 l 293 -183 l 293 -217 l 174 -217 l 174 -258 l 143 -258 l 143 -142 l 174 -142 l 174 -183 m 139 588 q 162 530 139 553 q 218 507 185 507 q 274 530 251 507 q 297 588 297 553 q 274 645 297 622 q 218 668 251 668 q 162 645 185 668 q 139 588 139 622 m 293 -119 l 293 -87 l 242 -87 l 242 -65 l 293 -36 l 293 0 l 236 -33 q 193 -6 222 -6 q 157 -20 171 -6 q 143 -58 143 -35 l 143 -119 l 293 -119 m 143 56 l 293 56 l 293 22 l 143 22 l 143 56 m 293 75 l 293 110 l 265 119 l 265 179 l 293 190 l 293 226 l 143 165 l 143 133 l 293 75 m 293 244 l 293 336 l 264 336 l 264 278 l 143 278 l 143 244 l 293 244 m 293 403 l 293 435 l 236 435 l 236 488 l 206 488 l 206 435 l 174 435 l 174 493 l 143 493 l 143 403 l 293 403 m 293 693 l 293 725 l 199 725 l 293 794 l 293 821 l 143 821 l 143 789 l 235 789 l 143 724 l 143 693 l 293 693 m 174 843 l 174 885 l 293 885 l 293 918 l 174 918 l 174 960 l 143 960 l 143 843 l 174 843 m 171 588 q 184 622 171 608 q 218 635 197 635 q 253 622 239 635 q 267 588 267 608 q 253 554 267 568 q 218 540 239 540 q 184 554 197 540 q 171 588 171 568 m 172 -61 q 178 -45 172 -51 q 192 -39 183 -39 q 207 -45 201 -39 q 213 -61 213 -51 l 213 -87 l 172 -87 l 172 -61 m 236 169 l 236 131 l 182 150 l 236 169 z "},"Ŭ":{"ha":436,"x_min":139,"x_max":297,"o":"m 174 -183 l 293 -183 l 293 -217 l 174 -217 l 174 -258 l 143 -258 l 143 -142 l 174 -142 l 174 -183 m 139 588 q 162 530 139 553 q 218 507 185 507 q 274 530 251 507 q 297 588 297 553 q 274 645 297 622 q 218 668 251 668 q 162 645 185 668 q 139 588 139 622 m 293 -119 l 293 -87 l 242 -87 l 242 -65 l 293 -36 l 293 0 l 236 -33 q 193 -6 222 -6 q 157 -20 171 -6 q 143 -58 143 -35 l 143 -119 l 293 -119 m 143 56 l 293 56 l 293 22 l 143 22 l 143 56 m 293 75 l 293 110 l 265 119 l 265 179 l 293 190 l 293 226 l 143 165 l 143 133 l 293 75 m 293 244 l 293 336 l 264 336 l 264 278 l 143 278 l 143 244 l 293 244 m 293 403 l 293 435 l 236 435 l 236 488 l 206 488 l 206 435 l 174 435 l 174 493 l 143 493 l 143 403 l 293 403 m 293 693 l 293 725 l 199 725 l 293 794 l 293 821 l 143 821 l 143 789 l 235 789 l 143 724 l 143 693 l 293 693 m 174 843 l 174 885 l 293 885 l 293 918 l 174 918 l 174 960 l 143 960 l 143 843 l 174 843 m 171 588 q 184 622 171 608 q 218 635 197 635 q 253 622 239 635 q 267 588 267 608 q 253 554 267 568 q 218 540 239 540 q 184 554 197 540 q 171 588 171 568 m 172 -61 q 178 -45 172 -51 q 192 -39 183 -39 q 207 -45 201 -39 q 213 -61 213 -51 l 213 -87 l 172 -87 l 172 -61 m 236 169 l 236 131 l 182 150 l 236 169 z "},"Û":{"ha":436,"x_min":139,"x_max":297,"o":"m 174 -183 l 293 -183 l 293 -217 l 174 -217 l 174 -258 l 143 -258 l 143 -142 l 174 -142 l 174 -183 m 139 588 q 162 530 139 553 q 218 507 185 507 q 274 530 251 507 q 297 588 297 553 q 274 645 297 622 q 218 668 251 668 q 162 645 185 668 q 139 588 139 622 m 293 -119 l 293 -87 l 242 -87 l 242 -65 l 293 -36 l 293 0 l 236 -33 q 193 -6 222 -6 q 157 -20 171 -6 q 143 -58 143 -35 l 143 -119 l 293 -119 m 143 56 l 293 56 l 293 22 l 143 22 l 143 56 m 293 75 l 293 110 l 265 119 l 265 179 l 293 190 l 293 226 l 143 165 l 143 133 l 293 75 m 293 244 l 293 336 l 264 336 l 264 278 l 143 278 l 143 244 l 293 244 m 293 403 l 293 435 l 236 435 l 236 488 l 206 488 l 206 435 l 174 435 l 174 493 l 143 493 l 143 403 l 293 403 m 293 693 l 293 725 l 199 725 l 293 794 l 293 821 l 143 821 l 143 789 l 235 789 l 143 724 l 143 693 l 293 693 m 174 843 l 174 885 l 293 885 l 293 918 l 174 918 l 174 960 l 143 960 l 143 843 l 174 843 m 171 588 q 184 622 171 608 q 218 635 197 635 q 253 622 239 635 q 267 588 267 608 q 253 554 267 568 q 218 540 239 540 q 184 554 197 540 q 171 588 171 568 m 172 -61 q 178 -45 172 -51 q 192 -39 183 -39 q 207 -45 201 -39 q 213 -61 213 -51 l 213 -87 l 172 -87 l 172 -61 m 236 169 l 236 131 l 182 150 l 236 169 z "},"Ü":{"ha":436,"x_min":139,"x_max":297,"o":"m 174 -183 l 293 -183 l 293 -217 l 174 -217 l 174 -258 l 143 -258 l 143 -142 l 174 -142 l 174 -183 m 139 588 q 162 530 139 553 q 218 507 185 507 q 274 530 251 507 q 297 588 297 553 q 274 645 297 622 q 218 668 251 668 q 162 645 185 668 q 139 588 139 622 m 293 -119 l 293 -87 l 242 -87 l 242 -65 l 293 -36 l 293 0 l 236 -33 q 193 -6 222 -6 q 157 -20 171 -6 q 143 -58 143 -35 l 143 -119 l 293 -119 m 143 56 l 293 56 l 293 22 l 143 22 l 143 56 m 293 75 l 293 110 l 265 119 l 265 179 l 293 190 l 293 226 l 143 165 l 143 133 l 293 75 m 293 244 l 293 336 l 264 336 l 264 278 l 143 278 l 143 244 l 293 244 m 293 403 l 293 435 l 236 435 l 236 488 l 206 488 l 206 435 l 174 435 l 174 493 l 143 493 l 143 403 l 293 403 m 293 693 l 293 725 l 199 725 l 293 794 l 293 821 l 143 821 l 143 789 l 235 789 l 143 724 l 143 693 l 293 693 m 174 843 l 174 885 l 293 885 l 293 918 l 174 918 l 174 960 l 143 960 l 143 843 l 174 843 m 171 588 q 184 622 171 608 q 218 635 197 635 q 253 622 239 635 q 267 588 267 608 q 253 554 267 568 q 218 540 239 540 q 184 554 197 540 q 171 588 171 568 m 172 -61 q 178 -45 172 -51 q 192 -39 183 -39 q 207 -45 201 -39 q 213 -61 213 -51 l 213 -87 l 172 -87 l 172 -61 m 236 169 l 236 131 l 182 150 l 236 169 z "},"Ù":{"ha":436,"x_min":139,"x_max":297,"o":"m 174 -183 l 293 -183 l 293 -217 l 174 -217 l 174 -258 l 143 -258 l 143 -142 l 174 -142 l 174 -183 m 139 588 q 162 530 139 553 q 218 507 185 507 q 274 530 251 507 q 297 588 297 553 q 274 645 297 622 q 218 668 251 668 q 162 645 185 668 q 139 588 139 622 m 293 -119 l 293 -87 l 242 -87 l 242 -65 l 293 -36 l 293 0 l 236 -33 q 193 -6 222 -6 q 157 -20 171 -6 q 143 -58 143 -35 l 143 -119 l 293 -119 m 143 56 l 293 56 l 293 22 l 143 22 l 143 56 m 293 75 l 293 110 l 265 119 l 265 179 l 293 190 l 293 226 l 143 165 l 143 133 l 293 75 m 293 244 l 293 336 l 264 336 l 264 278 l 143 278 l 143 244 l 293 244 m 293 403 l 293 435 l 236 435 l 236 488 l 206 488 l 206 435 l 174 435 l 174 493 l 143 493 l 143 403 l 293 403 m 293 693 l 293 725 l 199 725 l 293 794 l 293 821 l 143 821 l 143 789 l 235 789 l 143 724 l 143 693 l 293 693 m 174 843 l 174 885 l 293 885 l 293 918 l 174 918 l 174 960 l 143 960 l 143 843 l 174 843 m 171 588 q 184 622 171 608 q 218 635 197 635 q 253 622 239 635 q 267 588 267 608 q 253 554 267 568 q 218 540 239 540 q 184 554 197 540 q 171 588 171 568 m 172 -61 q 178 -45 172 -51 q 192 -39 183 -39 q 207 -45 201 -39 q 213 -61 213 -51 l 213 -87 l 172 -87 l 172 -61 m 236 169 l 236 131 l 182 150 l 236 169 z "},"Ű":{"ha":436,"x_min":139,"x_max":297,"o":"m 174 -183 l 293 -183 l 293 -217 l 174 -217 l 174 -258 l 143 -258 l 143 -142 l 174 -142 l 174 -183 m 139 588 q 162 530 139 553 q 218 507 185 507 q 274 530 251 507 q 297 588 297 553 q 274 645 297 622 q 218 668 251 668 q 162 645 185 668 q 139 588 139 622 m 293 -119 l 293 -87 l 242 -87 l 242 -65 l 293 -36 l 293 0 l 236 -33 q 193 -6 222 -6 q 157 -20 171 -6 q 143 -58 143 -35 l 143 -119 l 293 -119 m 143 56 l 293 56 l 293 22 l 143 22 l 143 56 m 293 75 l 293 110 l 265 119 l 265 179 l 293 190 l 293 226 l 143 165 l 143 133 l 293 75 m 293 244 l 293 336 l 264 336 l 264 278 l 143 278 l 143 244 l 293 244 m 293 403 l 293 435 l 236 435 l 236 488 l 206 488 l 206 435 l 174 435 l 174 493 l 143 493 l 143 403 l 293 403 m 293 693 l 293 725 l 199 725 l 293 794 l 293 821 l 143 821 l 143 789 l 235 789 l 143 724 l 143 693 l 293 693 m 174 843 l 174 885 l 293 885 l 293 918 l 174 918 l 174 960 l 143 960 l 143 843 l 174 843 m 171 588 q 184 622 171 608 q 218 635 197 635 q 253 622 239 635 q 267 588 267 608 q 253 554 267 568 q 218 540 239 540 q 184 554 197 540 q 171 588 171 568 m 172 -61 q 178 -45 172 -51 q 192 -39 183 -39 q 207 -45 201 -39 q 213 -61 213 -51 l 213 -87 l 172 -87 l 172 -61 m 236 169 l 236 131 l 182 150 l 236 169 z "},"Ū":{"ha":436,"x_min":139,"x_max":297,"o":"m 174 -183 l 293 -183 l 293 -217 l 174 -217 l 174 -258 l 143 -258 l 143 -142 l 174 -142 l 174 -183 m 139 588 q 162 530 139 553 q 218 507 185 507 q 274 530 251 507 q 297 588 297 553 q 274 645 297 622 q 218 668 251 668 q 162 645 185 668 q 139 588 139 622 m 293 -119 l 293 -87 l 242 -87 l 242 -65 l 293 -36 l 293 0 l 236 -33 q 193 -6 222 -6 q 157 -20 171 -6 q 143 -58 143 -35 l 143 -119 l 293 -119 m 143 56 l 293 56 l 293 22 l 143 22 l 143 56 m 293 75 l 293 110 l 265 119 l 265 179 l 293 190 l 293 226 l 143 165 l 143 133 l 293 75 m 293 244 l 293 336 l 264 336 l 264 278 l 143 278 l 143 244 l 293 244 m 293 403 l 293 435 l 236 435 l 236 488 l 206 488 l 206 435 l 174 435 l 174 493 l 143 493 l 143 403 l 293 403 m 293 693 l 293 725 l 199 725 l 293 794 l 293 821 l 143 821 l 143 789 l 235 789 l 143 724 l 143 693 l 293 693 m 174 843 l 174 885 l 293 885 l 293 918 l 174 918 l 174 960 l 143 960 l 143 843 l 174 843 m 171 588 q 184 622 171 608 q 218 635 197 635 q 253 622 239 635 q 267 588 267 608 q 253 554 267 568 q 218 540 239 540 q 184 554 197 540 q 171 588 171 568 m 172 -61 q 178 -45 172 -51 q 192 -39 183 -39 q 207 -45 201 -39 q 213 -61 213 -51 l 213 -87 l 172 -87 l 172 -61 m 236 169 l 236 131 l 182 150 l 236 169 z "},"Ų":{"ha":436,"x_min":139,"x_max":297,"o":"m 174 -183 l 293 -183 l 293 -217 l 174 -217 l 174 -258 l 143 -258 l 143 -142 l 174 -142 l 174 -183 m 139 588 q 162 530 139 553 q 218 507 185 507 q 274 530 251 507 q 297 588 297 553 q 274 645 297 622 q 218 668 251 668 q 162 645 185 668 q 139 588 139 622 m 293 -119 l 293 -87 l 242 -87 l 242 -65 l 293 -36 l 293 0 l 236 -33 q 193 -6 222 -6 q 157 -20 171 -6 q 143 -58 143 -35 l 143 -119 l 293 -119 m 143 56 l 293 56 l 293 22 l 143 22 l 143 56 m 293 75 l 293 110 l 265 119 l 265 179 l 293 190 l 293 226 l 143 165 l 143 133 l 293 75 m 293 244 l 293 336 l 264 336 l 264 278 l 143 278 l 143 244 l 293 244 m 293 403 l 293 435 l 236 435 l 236 488 l 206 488 l 206 435 l 174 435 l 174 493 l 143 493 l 143 403 l 293 403 m 293 693 l 293 725 l 199 725 l 293 794 l 293 821 l 143 821 l 143 789 l 235 789 l 143 724 l 143 693 l 293 693 m 174 843 l 174 885 l 293 885 l 293 918 l 174 918 l 174 960 l 143 960 l 143 843 l 174 843 m 171 588 q 184 622 171 608 q 218 635 197 635 q 253 622 239 635 q 267 588 267 608 q 253 554 267 568 q 218 540 239 540 q 184 554 197 540 q 171 588 171 568 m 172 -61 q 178 -45 172 -51 q 192 -39 183 -39 q 207 -45 201 -39 q 213 -61 213 -51 l 213 -87 l 172 -87 l 172 -61 m 236 169 l 236 131 l 182 150 l 236 169 z "},"Ů":{"ha":436,"x_min":139,"x_max":297,"o":"m 174 -183 l 293 -183 l 293 -217 l 174 -217 l 174 -258 l 143 -258 l 143 -142 l 174 -142 l 174 -183 m 139 588 q 162 530 139 553 q 218 507 185 507 q 274 530 251 507 q 297 588 297 553 q 274 645 297 622 q 218 668 251 668 q 162 645 185 668 q 139 588 139 622 m 293 -119 l 293 -87 l 242 -87 l 242 -65 l 293 -36 l 293 0 l 236 -33 q 193 -6 222 -6 q 157 -20 171 -6 q 143 -58 143 -35 l 143 -119 l 293 -119 m 143 56 l 293 56 l 293 22 l 143 22 l 143 56 m 293 75 l 293 110 l 265 119 l 265 179 l 293 190 l 293 226 l 143 165 l 143 133 l 293 75 m 293 244 l 293 336 l 264 336 l 264 278 l 143 278 l 143 244 l 293 244 m 293 403 l 293 435 l 236 435 l 236 488 l 206 488 l 206 435 l 174 435 l 174 493 l 143 493 l 143 403 l 293 403 m 293 693 l 293 725 l 199 725 l 293 794 l 293 821 l 143 821 l 143 789 l 235 789 l 143 724 l 143 693 l 293 693 m 174 843 l 174 885 l 293 885 l 293 918 l 174 918 l 174 960 l 143 960 l 143 843 l 174 843 m 171 588 q 184 622 171 608 q 218 635 197 635 q 253 622 239 635 q 267 588 267 608 q 253 554 267 568 q 218 540 239 540 q 184 554 197 540 q 171 588 171 568 m 172 -61 q 178 -45 172 -51 q 192 -39 183 -39 q 207 -45 201 -39 q 213 -61 213 -51 l 213 -87 l 172 -87 l 172 -61 m 236 169 l 236 131 l 182 150 l 236 169 z "},"Ũ":{"ha":436,"x_min":139,"x_max":297,"o":"m 174 -183 l 293 -183 l 293 -217 l 174 -217 l 174 -258 l 143 -258 l 143 -142 l 174 -142 l 174 -183 m 139 588 q 162 530 139 553 q 218 507 185 507 q 274 530 251 507 q 297 588 297 553 q 274 645 297 622 q 218 668 251 668 q 162 645 185 668 q 139 588 139 622 m 293 -119 l 293 -87 l 242 -87 l 242 -65 l 293 -36 l 293 0 l 236 -33 q 193 -6 222 -6 q 157 -20 171 -6 q 143 -58 143 -35 l 143 -119 l 293 -119 m 143 56 l 293 56 l 293 22 l 143 22 l 143 56 m 293 75 l 293 110 l 265 119 l 265 179 l 293 190 l 293 226 l 143 165 l 143 133 l 293 75 m 293 244 l 293 336 l 264 336 l 264 278 l 143 278 l 143 244 l 293 244 m 293 403 l 293 435 l 236 435 l 236 488 l 206 488 l 206 435 l 174 435 l 174 493 l 143 493 l 143 403 l 293 403 m 293 693 l 293 725 l 199 725 l 293 794 l 293 821 l 143 821 l 143 789 l 235 789 l 143 724 l 143 693 l 293 693 m 174 843 l 174 885 l 293 885 l 293 918 l 174 918 l 174 960 l 143 960 l 143 843 l 174 843 m 171 588 q 184 622 171 608 q 218 635 197 635 q 253 622 239 635 q 267 588 267 608 q 253 554 267 568 q 218 540 239 540 q 184 554 197 540 q 171 588 171 568 m 172 -61 q 178 -45 172 -51 q 192 -39 183 -39 q 207 -45 201 -39 q 213 -61 213 -51 l 213 -87 l 172 -87 l 172 -61 m 236 169 l 236 131 l 182 150 l 236 169 z "},"V":{"ha":1054,"x_min":10,"x_max":1044,"o":"m 10 933 l 10 972 l 399 972 l 461 754 l 521 435 l 531 435 l 593 754 l 656 972 l 1044 972 l 1044 933 l 729 0 l 325 0 l 10 933 z "},"W":{"ha":1481,"x_min":11,"x_max":1469,"o":"m 11 933 l 11 972 l 396 972 l 449 758 l 489 444 l 499 444 l 597 788 l 881 788 l 983 443 l 993 443 l 1038 758 l 1090 972 l 1469 972 l 1469 933 l 1222 0 l 850 0 l 790 150 l 746 290 l 735 290 l 693 150 l 633 0 l 260 0 l 11 933 z "},"Ẃ":{"ha":436,"x_min":139,"x_max":297,"o":"m 174 -183 l 293 -183 l 293 -217 l 174 -217 l 174 -258 l 143 -258 l 143 -142 l 174 -142 l 174 -183 m 139 588 q 162 530 139 553 q 218 507 185 507 q 274 530 251 507 q 297 588 297 553 q 274 645 297 622 q 218 668 251 668 q 162 645 185 668 q 139 588 139 622 m 293 -119 l 293 -87 l 242 -87 l 242 -65 l 293 -36 l 293 0 l 236 -33 q 193 -6 222 -6 q 157 -20 171 -6 q 143 -58 143 -35 l 143 -119 l 293 -119 m 143 56 l 293 56 l 293 22 l 143 22 l 143 56 m 293 75 l 293 110 l 265 119 l 265 179 l 293 190 l 293 226 l 143 165 l 143 133 l 293 75 m 293 244 l 293 336 l 264 336 l 264 278 l 143 278 l 143 244 l 293 244 m 293 403 l 293 435 l 236 435 l 236 488 l 206 488 l 206 435 l 174 435 l 174 493 l 143 493 l 143 403 l 293 403 m 293 693 l 293 725 l 199 725 l 293 794 l 293 821 l 143 821 l 143 789 l 235 789 l 143 724 l 143 693 l 293 693 m 174 843 l 174 885 l 293 885 l 293 918 l 174 918 l 174 960 l 143 960 l 143 843 l 174 843 m 171 588 q 184 622 171 608 q 218 635 197 635 q 253 622 239 635 q 267 588 267 608 q 253 554 267 568 q 218 540 239 540 q 184 554 197 540 q 171 588 171 568 m 172 -61 q 178 -45 172 -51 q 192 -39 183 -39 q 207 -45 201 -39 q 213 -61 213 -51 l 213 -87 l 172 -87 l 172 -61 m 236 169 l 236 131 l 182 150 l 236 169 z "},"Ŵ":{"ha":436,"x_min":139,"x_max":297,"o":"m 174 -183 l 293 -183 l 293 -217 l 174 -217 l 174 -258 l 143 -258 l 143 -142 l 174 -142 l 174 -183 m 139 588 q 162 530 139 553 q 218 507 185 507 q 274 530 251 507 q 297 588 297 553 q 274 645 297 622 q 218 668 251 668 q 162 645 185 668 q 139 588 139 622 m 293 -119 l 293 -87 l 242 -87 l 242 -65 l 293 -36 l 293 0 l 236 -33 q 193 -6 222 -6 q 157 -20 171 -6 q 143 -58 143 -35 l 143 -119 l 293 -119 m 143 56 l 293 56 l 293 22 l 143 22 l 143 56 m 293 75 l 293 110 l 265 119 l 265 179 l 293 190 l 293 226 l 143 165 l 143 133 l 293 75 m 293 244 l 293 336 l 264 336 l 264 278 l 143 278 l 143 244 l 293 244 m 293 403 l 293 435 l 236 435 l 236 488 l 206 488 l 206 435 l 174 435 l 174 493 l 143 493 l 143 403 l 293 403 m 293 693 l 293 725 l 199 725 l 293 794 l 293 821 l 143 821 l 143 789 l 235 789 l 143 724 l 143 693 l 293 693 m 174 843 l 174 885 l 293 885 l 293 918 l 174 918 l 174 960 l 143 960 l 143 843 l 174 843 m 171 588 q 184 622 171 608 q 218 635 197 635 q 253 622 239 635 q 267 588 267 608 q 253 554 267 568 q 218 540 239 540 q 184 554 197 540 q 171 588 171 568 m 172 -61 q 178 -45 172 -51 q 192 -39 183 -39 q 207 -45 201 -39 q 213 -61 213 -51 l 213 -87 l 172 -87 l 172 -61 m 236 169 l 236 131 l 182 150 l 236 169 z "},"Ẅ":{"ha":436,"x_min":139,"x_max":297,"o":"m 174 -183 l 293 -183 l 293 -217 l 174 -217 l 174 -258 l 143 -258 l 143 -142 l 174 -142 l 174 -183 m 139 588 q 162 530 139 553 q 218 507 185 507 q 274 530 251 507 q 297 588 297 553 q 274 645 297 622 q 218 668 251 668 q 162 645 185 668 q 139 588 139 622 m 293 -119 l 293 -87 l 242 -87 l 242 -65 l 293 -36 l 293 0 l 236 -33 q 193 -6 222 -6 q 157 -20 171 -6 q 143 -58 143 -35 l 143 -119 l 293 -119 m 143 56 l 293 56 l 293 22 l 143 22 l 143 56 m 293 75 l 293 110 l 265 119 l 265 179 l 293 190 l 293 226 l 143 165 l 143 133 l 293 75 m 293 244 l 293 336 l 264 336 l 264 278 l 143 278 l 143 244 l 293 244 m 293 403 l 293 435 l 236 435 l 236 488 l 206 488 l 206 435 l 174 435 l 174 493 l 143 493 l 143 403 l 293 403 m 293 693 l 293 725 l 199 725 l 293 794 l 293 821 l 143 821 l 143 789 l 235 789 l 143 724 l 143 693 l 293 693 m 174 843 l 174 885 l 293 885 l 293 918 l 174 918 l 174 960 l 143 960 l 143 843 l 174 843 m 171 588 q 184 622 171 608 q 218 635 197 635 q 253 622 239 635 q 267 588 267 608 q 253 554 267 568 q 218 540 239 540 q 184 554 197 540 q 171 588 171 568 m 172 -61 q 178 -45 172 -51 q 192 -39 183 -39 q 207 -45 201 -39 q 213 -61 213 -51 l 213 -87 l 172 -87 l 172 -61 m 236 169 l 236 131 l 182 150 l 236 169 z "},"Ẁ":{"ha":436,"x_min":139,"x_max":297,"o":"m 174 -183 l 293 -183 l 293 -217 l 174 -217 l 174 -258 l 143 -258 l 143 -142 l 174 -142 l 174 -183 m 139 588 q 162 530 139 553 q 218 507 185 507 q 274 530 251 507 q 297 588 297 553 q 274 645 297 622 q 218 668 251 668 q 162 645 185 668 q 139 588 139 622 m 293 -119 l 293 -87 l 242 -87 l 242 -65 l 293 -36 l 293 0 l 236 -33 q 193 -6 222 -6 q 157 -20 171 -6 q 143 -58 143 -35 l 143 -119 l 293 -119 m 143 56 l 293 56 l 293 22 l 143 22 l 143 56 m 293 75 l 293 110 l 265 119 l 265 179 l 293 190 l 293 226 l 143 165 l 143 133 l 293 75 m 293 244 l 293 336 l 264 336 l 264 278 l 143 278 l 143 244 l 293 244 m 293 403 l 293 435 l 236 435 l 236 488 l 206 488 l 206 435 l 174 435 l 174 493 l 143 493 l 143 403 l 293 403 m 293 693 l 293 725 l 199 725 l 293 794 l 293 821 l 143 821 l 143 789 l 235 789 l 143 724 l 143 693 l 293 693 m 174 843 l 174 885 l 293 885 l 293 918 l 174 918 l 174 960 l 143 960 l 143 843 l 174 843 m 171 588 q 184 622 171 608 q 218 635 197 635 q 253 622 239 635 q 267 588 267 608 q 253 554 267 568 q 218 540 239 540 q 184 554 197 540 q 171 588 171 568 m 172 -61 q 178 -45 172 -51 q 192 -39 183 -39 q 207 -45 201 -39 q 213 -61 213 -51 l 213 -87 l 172 -87 l 172 -61 m 236 169 l 236 131 l 182 150 l 236 169 z "},"X":{"ha":1054,"x_min":14,"x_max":1040,"o":"m 14 38 l 276 494 l 32 935 l 32 972 l 418 972 l 482 838 l 522 736 l 528 736 l 569 838 l 636 972 l 1024 972 l 1024 933 l 776 496 l 1040 36 l 1040 0 l 647 0 l 568 156 l 529 243 l 524 243 l 485 156 l 406 0 l 14 0 l 14 38 z "},"Y":{"ha":1017,"x_min":8,"x_max":1008,"o":"m 322 339 l 8 935 l 8 972 l 408 972 l 468 826 l 504 707 l 513 707 l 549 826 l 610 972 l 1008 972 l 1008 935 l 694 344 l 694 0 l 322 0 l 322 339 z "},"Ý":{"ha":436,"x_min":139,"x_max":297,"o":"m 174 -183 l 293 -183 l 293 -217 l 174 -217 l 174 -258 l 143 -258 l 143 -142 l 174 -142 l 174 -183 m 139 588 q 162 530 139 553 q 218 507 185 507 q 274 530 251 507 q 297 588 297 553 q 274 645 297 622 q 218 668 251 668 q 162 645 185 668 q 139 588 139 622 m 293 -119 l 293 -87 l 242 -87 l 242 -65 l 293 -36 l 293 0 l 236 -33 q 193 -6 222 -6 q 157 -20 171 -6 q 143 -58 143 -35 l 143 -119 l 293 -119 m 143 56 l 293 56 l 293 22 l 143 22 l 143 56 m 293 75 l 293 110 l 265 119 l 265 179 l 293 190 l 293 226 l 143 165 l 143 133 l 293 75 m 293 244 l 293 336 l 264 336 l 264 278 l 143 278 l 143 244 l 293 244 m 293 403 l 293 435 l 236 435 l 236 488 l 206 488 l 206 435 l 174 435 l 174 493 l 143 493 l 143 403 l 293 403 m 293 693 l 293 725 l 199 725 l 293 794 l 293 821 l 143 821 l 143 789 l 235 789 l 143 724 l 143 693 l 293 693 m 174 843 l 174 885 l 293 885 l 293 918 l 174 918 l 174 960 l 143 960 l 143 843 l 174 843 m 171 588 q 184 622 171 608 q 218 635 197 635 q 253 622 239 635 q 267 588 267 608 q 253 554 267 568 q 218 540 239 540 q 184 554 197 540 q 171 588 171 568 m 172 -61 q 178 -45 172 -51 q 192 -39 183 -39 q 207 -45 201 -39 q 213 -61 213 -51 l 213 -87 l 172 -87 l 172 -61 m 236 169 l 236 131 l 182 150 l 236 169 z "},"Ŷ":{"ha":436,"x_min":139,"x_max":297,"o":"m 174 -183 l 293 -183 l 293 -217 l 174 -217 l 174 -258 l 143 -258 l 143 -142 l 174 -142 l 174 -183 m 139 588 q 162 530 139 553 q 218 507 185 507 q 274 530 251 507 q 297 588 297 553 q 274 645 297 622 q 218 668 251 668 q 162 645 185 668 q 139 588 139 622 m 293 -119 l 293 -87 l 242 -87 l 242 -65 l 293 -36 l 293 0 l 236 -33 q 193 -6 222 -6 q 157 -20 171 -6 q 143 -58 143 -35 l 143 -119 l 293 -119 m 143 56 l 293 56 l 293 22 l 143 22 l 143 56 m 293 75 l 293 110 l 265 119 l 265 179 l 293 190 l 293 226 l 143 165 l 143 133 l 293 75 m 293 244 l 293 336 l 264 336 l 264 278 l 143 278 l 143 244 l 293 244 m 293 403 l 293 435 l 236 435 l 236 488 l 206 488 l 206 435 l 174 435 l 174 493 l 143 493 l 143 403 l 293 403 m 293 693 l 293 725 l 199 725 l 293 794 l 293 821 l 143 821 l 143 789 l 235 789 l 143 724 l 143 693 l 293 693 m 174 843 l 174 885 l 293 885 l 293 918 l 174 918 l 174 960 l 143 960 l 143 843 l 174 843 m 171 588 q 184 622 171 608 q 218 635 197 635 q 253 622 239 635 q 267 588 267 608 q 253 554 267 568 q 218 540 239 540 q 184 554 197 540 q 171 588 171 568 m 172 -61 q 178 -45 172 -51 q 192 -39 183 -39 q 207 -45 201 -39 q 213 -61 213 -51 l 213 -87 l 172 -87 l 172 -61 m 236 169 l 236 131 l 182 150 l 236 169 z "},"Ÿ":{"ha":436,"x_min":139,"x_max":297,"o":"m 174 -183 l 293 -183 l 293 -217 l 174 -217 l 174 -258 l 143 -258 l 143 -142 l 174 -142 l 174 -183 m 139 588 q 162 530 139 553 q 218 507 185 507 q 274 530 251 507 q 297 588 297 553 q 274 645 297 622 q 218 668 251 668 q 162 645 185 668 q 139 588 139 622 m 293 -119 l 293 -87 l 242 -87 l 242 -65 l 293 -36 l 293 0 l 236 -33 q 193 -6 222 -6 q 157 -20 171 -6 q 143 -58 143 -35 l 143 -119 l 293 -119 m 143 56 l 293 56 l 293 22 l 143 22 l 143 56 m 293 75 l 293 110 l 265 119 l 265 179 l 293 190 l 293 226 l 143 165 l 143 133 l 293 75 m 293 244 l 293 336 l 264 336 l 264 278 l 143 278 l 143 244 l 293 244 m 293 403 l 293 435 l 236 435 l 236 488 l 206 488 l 206 435 l 174 435 l 174 493 l 143 493 l 143 403 l 293 403 m 293 693 l 293 725 l 199 725 l 293 794 l 293 821 l 143 821 l 143 789 l 235 789 l 143 724 l 143 693 l 293 693 m 174 843 l 174 885 l 293 885 l 293 918 l 174 918 l 174 960 l 143 960 l 143 843 l 174 843 m 171 588 q 184 622 171 608 q 218 635 197 635 q 253 622 239 635 q 267 588 267 608 q 253 554 267 568 q 218 540 239 540 q 184 554 197 540 q 171 588 171 568 m 172 -61 q 178 -45 172 -51 q 192 -39 183 -39 q 207 -45 201 -39 q 213 -61 213 -51 l 213 -87 l 172 -87 l 172 -61 m 236 169 l 236 131 l 182 150 l 236 169 z "},"Ỳ":{"ha":436,"x_min":139,"x_max":297,"o":"m 174 -183 l 293 -183 l 293 -217 l 174 -217 l 174 -258 l 143 -258 l 143 -142 l 174 -142 l 174 -183 m 139 588 q 162 530 139 553 q 218 507 185 507 q 274 530 251 507 q 297 588 297 553 q 274 645 297 622 q 218 668 251 668 q 162 645 185 668 q 139 588 139 622 m 293 -119 l 293 -87 l 242 -87 l 242 -65 l 293 -36 l 293 0 l 236 -33 q 193 -6 222 -6 q 157 -20 171 -6 q 143 -58 143 -35 l 143 -119 l 293 -119 m 143 56 l 293 56 l 293 22 l 143 22 l 143 56 m 293 75 l 293 110 l 265 119 l 265 179 l 293 190 l 293 226 l 143 165 l 143 133 l 293 75 m 293 244 l 293 336 l 264 336 l 264 278 l 143 278 l 143 244 l 293 244 m 293 403 l 293 435 l 236 435 l 236 488 l 206 488 l 206 435 l 174 435 l 174 493 l 143 493 l 143 403 l 293 403 m 293 693 l 293 725 l 199 725 l 293 794 l 293 821 l 143 821 l 143 789 l 235 789 l 143 724 l 143 693 l 293 693 m 174 843 l 174 885 l 293 885 l 293 918 l 174 918 l 174 960 l 143 960 l 143 843 l 174 843 m 171 588 q 184 622 171 608 q 218 635 197 635 q 253 622 239 635 q 267 588 267 608 q 253 554 267 568 q 218 540 239 540 q 184 554 197 540 q 171 588 171 568 m 172 -61 q 178 -45 172 -51 q 192 -39 183 -39 q 207 -45 201 -39 q 213 -61 213 -51 l 213 -87 l 172 -87 l 172 -61 m 236 169 l 236 131 l 182 150 l 236 169 z "},"Ȳ":{"ha":436,"x_min":139,"x_max":297,"o":"m 174 -183 l 293 -183 l 293 -217 l 174 -217 l 174 -258 l 143 -258 l 143 -142 l 174 -142 l 174 -183 m 139 588 q 162 530 139 553 q 218 507 185 507 q 274 530 251 507 q 297 588 297 553 q 274 645 297 622 q 218 668 251 668 q 162 645 185 668 q 139 588 139 622 m 293 -119 l 293 -87 l 242 -87 l 242 -65 l 293 -36 l 293 0 l 236 -33 q 193 -6 222 -6 q 157 -20 171 -6 q 143 -58 143 -35 l 143 -119 l 293 -119 m 143 56 l 293 56 l 293 22 l 143 22 l 143 56 m 293 75 l 293 110 l 265 119 l 265 179 l 293 190 l 293 226 l 143 165 l 143 133 l 293 75 m 293 244 l 293 336 l 264 336 l 264 278 l 143 278 l 143 244 l 293 244 m 293 403 l 293 435 l 236 435 l 236 488 l 206 488 l 206 435 l 174 435 l 174 493 l 143 493 l 143 403 l 293 403 m 293 693 l 293 725 l 199 725 l 293 794 l 293 821 l 143 821 l 143 789 l 235 789 l 143 724 l 143 693 l 293 693 m 174 843 l 174 885 l 293 885 l 293 918 l 174 918 l 174 960 l 143 960 l 143 843 l 174 843 m 171 588 q 184 622 171 608 q 218 635 197 635 q 253 622 239 635 q 267 588 267 608 q 253 554 267 568 q 218 540 239 540 q 184 554 197 540 q 171 588 171 568 m 172 -61 q 178 -45 172 -51 q 192 -39 183 -39 q 207 -45 201 -39 q 213 -61 213 -51 l 213 -87 l 172 -87 l 172 -61 m 236 169 l 236 131 l 182 150 l 236 169 z "},"Ỹ":{"ha":436,"x_min":139,"x_max":297,"o":"m 174 -183 l 293 -183 l 293 -217 l 174 -217 l 174 -258 l 143 -258 l 143 -142 l 174 -142 l 174 -183 m 139 588 q 162 530 139 553 q 218 507 185 507 q 274 530 251 507 q 297 588 297 553 q 274 645 297 622 q 218 668 251 668 q 162 645 185 668 q 139 588 139 622 m 293 -119 l 293 -87 l 242 -87 l 242 -65 l 293 -36 l 293 0 l 236 -33 q 193 -6 222 -6 q 157 -20 171 -6 q 143 -58 143 -35 l 143 -119 l 293 -119 m 143 56 l 293 56 l 293 22 l 143 22 l 143 56 m 293 75 l 293 110 l 265 119 l 265 179 l 293 190 l 293 226 l 143 165 l 143 133 l 293 75 m 293 244 l 293 336 l 264 336 l 264 278 l 143 278 l 143 244 l 293 244 m 293 403 l 293 435 l 236 435 l 236 488 l 206 488 l 206 435 l 174 435 l 174 493 l 143 493 l 143 403 l 293 403 m 293 693 l 293 725 l 199 725 l 293 794 l 293 821 l 143 821 l 143 789 l 235 789 l 143 724 l 143 693 l 293 693 m 174 843 l 174 885 l 293 885 l 293 918 l 174 918 l 174 960 l 143 960 l 143 843 l 174 843 m 171 588 q 184 622 171 608 q 218 635 197 635 q 253 622 239 635 q 267 588 267 608 q 253 554 267 568 q 218 540 239 540 q 184 554 197 540 q 171 588 171 568 m 172 -61 q 178 -45 172 -51 q 192 -39 183 -39 q 207 -45 201 -39 q 213 -61 213 -51 l 213 -87 l 172 -87 l 172 -61 m 236 169 l 236 131 l 182 150 l 236 169 z "},"Z":{"ha":882,"x_min":28,"x_max":850,"o":"m 28 199 l 365 671 l 363 678 l 222 671 l 43 671 l 43 972 l 836 972 l 836 775 l 504 307 l 507 301 l 650 307 l 850 307 l 850 0 l 28 0 l 28 199 z "},"Ź":{"ha":436,"x_min":139,"x_max":297,"o":"m 174 -183 l 293 -183 l 293 -217 l 174 -217 l 174 -258 l 143 -258 l 143 -142 l 174 -142 l 174 -183 m 139 588 q 162 530 139 553 q 218 507 185 507 q 274 530 251 507 q 297 588 297 553 q 274 645 297 622 q 218 668 251 668 q 162 645 185 668 q 139 588 139 622 m 293 -119 l 293 -87 l 242 -87 l 242 -65 l 293 -36 l 293 0 l 236 -33 q 193 -6 222 -6 q 157 -20 171 -6 q 143 -58 143 -35 l 143 -119 l 293 -119 m 143 56 l 293 56 l 293 22 l 143 22 l 143 56 m 293 75 l 293 110 l 265 119 l 265 179 l 293 190 l 293 226 l 143 165 l 143 133 l 293 75 m 293 244 l 293 336 l 264 336 l 264 278 l 143 278 l 143 244 l 293 244 m 293 403 l 293 435 l 236 435 l 236 488 l 206 488 l 206 435 l 174 435 l 174 493 l 143 493 l 143 403 l 293 403 m 293 693 l 293 725 l 199 725 l 293 794 l 293 821 l 143 821 l 143 789 l 235 789 l 143 724 l 143 693 l 293 693 m 174 843 l 174 885 l 293 885 l 293 918 l 174 918 l 174 960 l 143 960 l 143 843 l 174 843 m 171 588 q 184 622 171 608 q 218 635 197 635 q 253 622 239 635 q 267 588 267 608 q 253 554 267 568 q 218 540 239 540 q 184 554 197 540 q 171 588 171 568 m 172 -61 q 178 -45 172 -51 q 192 -39 183 -39 q 207 -45 201 -39 q 213 -61 213 -51 l 213 -87 l 172 -87 l 172 -61 m 236 169 l 236 131 l 182 150 l 236 169 z "},"Ž":{"ha":436,"x_min":139,"x_max":297,"o":"m 174 -183 l 293 -183 l 293 -217 l 174 -217 l 174 -258 l 143 -258 l 143 -142 l 174 -142 l 174 -183 m 139 588 q 162 530 139 553 q 218 507 185 507 q 274 530 251 507 q 297 588 297 553 q 274 645 297 622 q 218 668 251 668 q 162 645 185 668 q 139 588 139 622 m 293 -119 l 293 -87 l 242 -87 l 242 -65 l 293 -36 l 293 0 l 236 -33 q 193 -6 222 -6 q 157 -20 171 -6 q 143 -58 143 -35 l 143 -119 l 293 -119 m 143 56 l 293 56 l 293 22 l 143 22 l 143 56 m 293 75 l 293 110 l 265 119 l 265 179 l 293 190 l 293 226 l 143 165 l 143 133 l 293 75 m 293 244 l 293 336 l 264 336 l 264 278 l 143 278 l 143 244 l 293 244 m 293 403 l 293 435 l 236 435 l 236 488 l 206 488 l 206 435 l 174 435 l 174 493 l 143 493 l 143 403 l 293 403 m 293 693 l 293 725 l 199 725 l 293 794 l 293 821 l 143 821 l 143 789 l 235 789 l 143 724 l 143 693 l 293 693 m 174 843 l 174 885 l 293 885 l 293 918 l 174 918 l 174 960 l 143 960 l 143 843 l 174 843 m 171 588 q 184 622 171 608 q 218 635 197 635 q 253 622 239 635 q 267 588 267 608 q 253 554 267 568 q 218 540 239 540 q 184 554 197 540 q 171 588 171 568 m 172 -61 q 178 -45 172 -51 q 192 -39 183 -39 q 207 -45 201 -39 q 213 -61 213 -51 l 213 -87 l 172 -87 l 172 -61 m 236 169 l 236 131 l 182 150 l 236 169 z "},"Ż":{"ha":436,"x_min":139,"x_max":297,"o":"m 174 -183 l 293 -183 l 293 -217 l 174 -217 l 174 -258 l 143 -258 l 143 -142 l 174 -142 l 174 -183 m 139 588 q 162 530 139 553 q 218 507 185 507 q 274 530 251 507 q 297 588 297 553 q 274 645 297 622 q 218 668 251 668 q 162 645 185 668 q 139 588 139 622 m 293 -119 l 293 -87 l 242 -87 l 242 -65 l 293 -36 l 293 0 l 236 -33 q 193 -6 222 -6 q 157 -20 171 -6 q 143 -58 143 -35 l 143 -119 l 293 -119 m 143 56 l 293 56 l 293 22 l 143 22 l 143 56 m 293 75 l 293 110 l 265 119 l 265 179 l 293 190 l 293 226 l 143 165 l 143 133 l 293 75 m 293 244 l 293 336 l 264 336 l 264 278 l 143 278 l 143 244 l 293 244 m 293 403 l 293 435 l 236 435 l 236 488 l 206 488 l 206 435 l 174 435 l 174 493 l 143 493 l 143 403 l 293 403 m 293 693 l 293 725 l 199 725 l 293 794 l 293 821 l 143 821 l 143 789 l 235 789 l 143 724 l 143 693 l 293 693 m 174 843 l 174 885 l 293 885 l 293 918 l 174 918 l 174 960 l 143 960 l 143 843 l 174 843 m 171 588 q 184 622 171 608 q 218 635 197 635 q 253 622 239 635 q 267 588 267 608 q 253 554 267 568 q 218 540 239 540 q 184 554 197 540 q 171 588 171 568 m 172 -61 q 178 -45 172 -51 q 192 -39 183 -39 q 207 -45 201 -39 q 213 -61 213 -51 l 213 -87 l 172 -87 l 172 -61 m 236 169 l 236 131 l 182 150 l 236 169 z "},"a":{"ha":946,"x_min":22,"x_max":890,"o":"m 368 -14 q 188 33 267 -14 q 66 167 110 81 q 22 368 22 254 q 66 569 22 482 q 188 703 110 656 q 368 750 267 750 q 583 678 496 750 l 593 736 l 890 736 l 890 0 l 593 0 l 583 58 q 368 -14 496 -14 m 358 368 q 385 292 358 321 q 454 264 411 264 q 524 292 497 264 q 550 368 550 321 q 524 444 550 415 q 454 472 499 472 q 384 444 410 472 q 358 368 358 415 z "},"á":{"ha":436,"x_min":139,"x_max":297,"o":"m 174 -183 l 293 -183 l 293 -217 l 174 -217 l 174 -258 l 143 -258 l 143 -142 l 174 -142 l 174 -183 m 139 588 q 162 530 139 553 q 218 507 185 507 q 274 530 251 507 q 297 588 297 553 q 274 645 297 622 q 218 668 251 668 q 162 645 185 668 q 139 588 139 622 m 293 -119 l 293 -87 l 242 -87 l 242 -65 l 293 -36 l 293 0 l 236 -33 q 193 -6 222 -6 q 157 -20 171 -6 q 143 -58 143 -35 l 143 -119 l 293 -119 m 143 56 l 293 56 l 293 22 l 143 22 l 143 56 m 293 75 l 293 110 l 265 119 l 265 179 l 293 190 l 293 226 l 143 165 l 143 133 l 293 75 m 293 244 l 293 336 l 264 336 l 264 278 l 143 278 l 143 244 l 293 244 m 293 403 l 293 435 l 236 435 l 236 488 l 206 488 l 206 435 l 174 435 l 174 493 l 143 493 l 143 403 l 293 403 m 293 693 l 293 725 l 199 725 l 293 794 l 293 821 l 143 821 l 143 789 l 235 789 l 143 724 l 143 693 l 293 693 m 174 843 l 174 885 l 293 885 l 293 918 l 174 918 l 174 960 l 143 960 l 143 843 l 174 843 m 171 588 q 184 622 171 608 q 218 635 197 635 q 253 622 239 635 q 267 588 267 608 q 253 554 267 568 q 218 540 239 540 q 184 554 197 540 q 171 588 171 568 m 172 -61 q 178 -45 172 -51 q 192 -39 183 -39 q 207 -45 201 -39 q 213 -61 213 -51 l 213 -87 l 172 -87 l 172 -61 m 236 169 l 236 131 l 182 150 l 236 169 z "},"ă":{"ha":436,"x_min":139,"x_max":297,"o":"m 174 -183 l 293 -183 l 293 -217 l 174 -217 l 174 -258 l 143 -258 l 143 -142 l 174 -142 l 174 -183 m 139 588 q 162 530 139 553 q 218 507 185 507 q 274 530 251 507 q 297 588 297 553 q 274 645 297 622 q 218 668 251 668 q 162 645 185 668 q 139 588 139 622 m 293 -119 l 293 -87 l 242 -87 l 242 -65 l 293 -36 l 293 0 l 236 -33 q 193 -6 222 -6 q 157 -20 171 -6 q 143 -58 143 -35 l 143 -119 l 293 -119 m 143 56 l 293 56 l 293 22 l 143 22 l 143 56 m 293 75 l 293 110 l 265 119 l 265 179 l 293 190 l 293 226 l 143 165 l 143 133 l 293 75 m 293 244 l 293 336 l 264 336 l 264 278 l 143 278 l 143 244 l 293 244 m 293 403 l 293 435 l 236 435 l 236 488 l 206 488 l 206 435 l 174 435 l 174 493 l 143 493 l 143 403 l 293 403 m 293 693 l 293 725 l 199 725 l 293 794 l 293 821 l 143 821 l 143 789 l 235 789 l 143 724 l 143 693 l 293 693 m 174 843 l 174 885 l 293 885 l 293 918 l 174 918 l 174 960 l 143 960 l 143 843 l 174 843 m 171 588 q 184 622 171 608 q 218 635 197 635 q 253 622 239 635 q 267 588 267 608 q 253 554 267 568 q 218 540 239 540 q 184 554 197 540 q 171 588 171 568 m 172 -61 q 178 -45 172 -51 q 192 -39 183 -39 q 207 -45 201 -39 q 213 -61 213 -51 l 213 -87 l 172 -87 l 172 -61 m 236 169 l 236 131 l 182 150 l 236 169 z "},"â":{"ha":436,"x_min":139,"x_max":297,"o":"m 174 -183 l 293 -183 l 293 -217 l 174 -217 l 174 -258 l 143 -258 l 143 -142 l 174 -142 l 174 -183 m 139 588 q 162 530 139 553 q 218 507 185 507 q 274 530 251 507 q 297 588 297 553 q 274 645 297 622 q 218 668 251 668 q 162 645 185 668 q 139 588 139 622 m 293 -119 l 293 -87 l 242 -87 l 242 -65 l 293 -36 l 293 0 l 236 -33 q 193 -6 222 -6 q 157 -20 171 -6 q 143 -58 143 -35 l 143 -119 l 293 -119 m 143 56 l 293 56 l 293 22 l 143 22 l 143 56 m 293 75 l 293 110 l 265 119 l 265 179 l 293 190 l 293 226 l 143 165 l 143 133 l 293 75 m 293 244 l 293 336 l 264 336 l 264 278 l 143 278 l 143 244 l 293 244 m 293 403 l 293 435 l 236 435 l 236 488 l 206 488 l 206 435 l 174 435 l 174 493 l 143 493 l 143 403 l 293 403 m 293 693 l 293 725 l 199 725 l 293 794 l 293 821 l 143 821 l 143 789 l 235 789 l 143 724 l 143 693 l 293 693 m 174 843 l 174 885 l 293 885 l 293 918 l 174 918 l 174 960 l 143 960 l 143 843 l 174 843 m 171 588 q 184 622 171 608 q 218 635 197 635 q 253 622 239 635 q 267 588 267 608 q 253 554 267 568 q 218 540 239 540 q 184 554 197 540 q 171 588 171 568 m 172 -61 q 178 -45 172 -51 q 192 -39 183 -39 q 207 -45 201 -39 q 213 -61 213 -51 l 213 -87 l 172 -87 l 172 -61 m 236 169 l 236 131 l 182 150 l 236 169 z "},"ä":{"ha":436,"x_min":139,"x_max":297,"o":"m 174 -183 l 293 -183 l 293 -217 l 174 -217 l 174 -258 l 143 -258 l 143 -142 l 174 -142 l 174 -183 m 139 588 q 162 530 139 553 q 218 507 185 507 q 274 530 251 507 q 297 588 297 553 q 274 645 297 622 q 218 668 251 668 q 162 645 185 668 q 139 588 139 622 m 293 -119 l 293 -87 l 242 -87 l 242 -65 l 293 -36 l 293 0 l 236 -33 q 193 -6 222 -6 q 157 -20 171 -6 q 143 -58 143 -35 l 143 -119 l 293 -119 m 143 56 l 293 56 l 293 22 l 143 22 l 143 56 m 293 75 l 293 110 l 265 119 l 265 179 l 293 190 l 293 226 l 143 165 l 143 133 l 293 75 m 293 244 l 293 336 l 264 336 l 264 278 l 143 278 l 143 244 l 293 244 m 293 403 l 293 435 l 236 435 l 236 488 l 206 488 l 206 435 l 174 435 l 174 493 l 143 493 l 143 403 l 293 403 m 293 693 l 293 725 l 199 725 l 293 794 l 293 821 l 143 821 l 143 789 l 235 789 l 143 724 l 143 693 l 293 693 m 174 843 l 174 885 l 293 885 l 293 918 l 174 918 l 174 960 l 143 960 l 143 843 l 174 843 m 171 588 q 184 622 171 608 q 218 635 197 635 q 253 622 239 635 q 267 588 267 608 q 253 554 267 568 q 218 540 239 540 q 184 554 197 540 q 171 588 171 568 m 172 -61 q 178 -45 172 -51 q 192 -39 183 -39 q 207 -45 201 -39 q 213 -61 213 -51 l 213 -87 l 172 -87 l 172 -61 m 236 169 l 236 131 l 182 150 l 236 169 z "},"à":{"ha":436,"x_min":139,"x_max":297,"o":"m 174 -183 l 293 -183 l 293 -217 l 174 -217 l 174 -258 l 143 -258 l 143 -142 l 174 -142 l 174 -183 m 139 588 q 162 530 139 553 q 218 507 185 507 q 274 530 251 507 q 297 588 297 553 q 274 645 297 622 q 218 668 251 668 q 162 645 185 668 q 139 588 139 622 m 293 -119 l 293 -87 l 242 -87 l 242 -65 l 293 -36 l 293 0 l 236 -33 q 193 -6 222 -6 q 157 -20 171 -6 q 143 -58 143 -35 l 143 -119 l 293 -119 m 143 56 l 293 56 l 293 22 l 143 22 l 143 56 m 293 75 l 293 110 l 265 119 l 265 179 l 293 190 l 293 226 l 143 165 l 143 133 l 293 75 m 293 244 l 293 336 l 264 336 l 264 278 l 143 278 l 143 244 l 293 244 m 293 403 l 293 435 l 236 435 l 236 488 l 206 488 l 206 435 l 174 435 l 174 493 l 143 493 l 143 403 l 293 403 m 293 693 l 293 725 l 199 725 l 293 794 l 293 821 l 143 821 l 143 789 l 235 789 l 143 724 l 143 693 l 293 693 m 174 843 l 174 885 l 293 885 l 293 918 l 174 918 l 174 960 l 143 960 l 143 843 l 174 843 m 171 588 q 184 622 171 608 q 218 635 197 635 q 253 622 239 635 q 267 588 267 608 q 253 554 267 568 q 218 540 239 540 q 184 554 197 540 q 171 588 171 568 m 172 -61 q 178 -45 172 -51 q 192 -39 183 -39 q 207 -45 201 -39 q 213 -61 213 -51 l 213 -87 l 172 -87 l 172 -61 m 236 169 l 236 131 l 182 150 l 236 169 z "},"ā":{"ha":436,"x_min":139,"x_max":297,"o":"m 174 -183 l 293 -183 l 293 -217 l 174 -217 l 174 -258 l 143 -258 l 143 -142 l 174 -142 l 174 -183 m 139 588 q 162 530 139 553 q 218 507 185 507 q 274 530 251 507 q 297 588 297 553 q 274 645 297 622 q 218 668 251 668 q 162 645 185 668 q 139 588 139 622 m 293 -119 l 293 -87 l 242 -87 l 242 -65 l 293 -36 l 293 0 l 236 -33 q 193 -6 222 -6 q 157 -20 171 -6 q 143 -58 143 -35 l 143 -119 l 293 -119 m 143 56 l 293 56 l 293 22 l 143 22 l 143 56 m 293 75 l 293 110 l 265 119 l 265 179 l 293 190 l 293 226 l 143 165 l 143 133 l 293 75 m 293 244 l 293 336 l 264 336 l 264 278 l 143 278 l 143 244 l 293 244 m 293 403 l 293 435 l 236 435 l 236 488 l 206 488 l 206 435 l 174 435 l 174 493 l 143 493 l 143 403 l 293 403 m 293 693 l 293 725 l 199 725 l 293 794 l 293 821 l 143 821 l 143 789 l 235 789 l 143 724 l 143 693 l 293 693 m 174 843 l 174 885 l 293 885 l 293 918 l 174 918 l 174 960 l 143 960 l 143 843 l 174 843 m 171 588 q 184 622 171 608 q 218 635 197 635 q 253 622 239 635 q 267 588 267 608 q 253 554 267 568 q 218 540 239 540 q 184 554 197 540 q 171 588 171 568 m 172 -61 q 178 -45 172 -51 q 192 -39 183 -39 q 207 -45 201 -39 q 213 -61 213 -51 l 213 -87 l 172 -87 l 172 -61 m 236 169 l 236 131 l 182 150 l 236 169 z "},"ą":{"ha":436,"x_min":139,"x_max":297,"o":"m 174 -183 l 293 -183 l 293 -217 l 174 -217 l 174 -258 l 143 -258 l 143 -142 l 174 -142 l 174 -183 m 139 588 q 162 530 139 553 q 218 507 185 507 q 274 530 251 507 q 297 588 297 553 q 274 645 297 622 q 218 668 251 668 q 162 645 185 668 q 139 588 139 622 m 293 -119 l 293 -87 l 242 -87 l 242 -65 l 293 -36 l 293 0 l 236 -33 q 193 -6 222 -6 q 157 -20 171 -6 q 143 -58 143 -35 l 143 -119 l 293 -119 m 143 56 l 293 56 l 293 22 l 143 22 l 143 56 m 293 75 l 293 110 l 265 119 l 265 179 l 293 190 l 293 226 l 143 165 l 143 133 l 293 75 m 293 244 l 293 336 l 264 336 l 264 278 l 143 278 l 143 244 l 293 244 m 293 403 l 293 435 l 236 435 l 236 488 l 206 488 l 206 435 l 174 435 l 174 493 l 143 493 l 143 403 l 293 403 m 293 693 l 293 725 l 199 725 l 293 794 l 293 821 l 143 821 l 143 789 l 235 789 l 143 724 l 143 693 l 293 693 m 174 843 l 174 885 l 293 885 l 293 918 l 174 918 l 174 960 l 143 960 l 143 843 l 174 843 m 171 588 q 184 622 171 608 q 218 635 197 635 q 253 622 239 635 q 267 588 267 608 q 253 554 267 568 q 218 540 239 540 q 184 554 197 540 q 171 588 171 568 m 172 -61 q 178 -45 172 -51 q 192 -39 183 -39 q 207 -45 201 -39 q 213 -61 213 -51 l 213 -87 l 172 -87 l 172 -61 m 236 169 l 236 131 l 182 150 l 236 169 z "},"å":{"ha":436,"x_min":139,"x_max":297,"o":"m 174 -183 l 293 -183 l 293 -217 l 174 -217 l 174 -258 l 143 -258 l 143 -142 l 174 -142 l 174 -183 m 139 588 q 162 530 139 553 q 218 507 185 507 q 274 530 251 507 q 297 588 297 553 q 274 645 297 622 q 218 668 251 668 q 162 645 185 668 q 139 588 139 622 m 293 -119 l 293 -87 l 242 -87 l 242 -65 l 293 -36 l 293 0 l 236 -33 q 193 -6 222 -6 q 157 -20 171 -6 q 143 -58 143 -35 l 143 -119 l 293 -119 m 143 56 l 293 56 l 293 22 l 143 22 l 143 56 m 293 75 l 293 110 l 265 119 l 265 179 l 293 190 l 293 226 l 143 165 l 143 133 l 293 75 m 293 244 l 293 336 l 264 336 l 264 278 l 143 278 l 143 244 l 293 244 m 293 403 l 293 435 l 236 435 l 236 488 l 206 488 l 206 435 l 174 435 l 174 493 l 143 493 l 143 403 l 293 403 m 293 693 l 293 725 l 199 725 l 293 794 l 293 821 l 143 821 l 143 789 l 235 789 l 143 724 l 143 693 l 293 693 m 174 843 l 174 885 l 293 885 l 293 918 l 174 918 l 174 960 l 143 960 l 143 843 l 174 843 m 171 588 q 184 622 171 608 q 218 635 197 635 q 253 622 239 635 q 267 588 267 608 q 253 554 267 568 q 218 540 239 540 q 184 554 197 540 q 171 588 171 568 m 172 -61 q 178 -45 172 -51 q 192 -39 183 -39 q 207 -45 201 -39 q 213 -61 213 -51 l 213 -87 l 172 -87 l 172 -61 m 236 169 l 236 131 l 182 150 l 236 169 z "},"ã":{"ha":436,"x_min":139,"x_max":297,"o":"m 174 -183 l 293 -183 l 293 -217 l 174 -217 l 174 -258 l 143 -258 l 143 -142 l 174 -142 l 174 -183 m 139 588 q 162 530 139 553 q 218 507 185 507 q 274 530 251 507 q 297 588 297 553 q 274 645 297 622 q 218 668 251 668 q 162 645 185 668 q 139 588 139 622 m 293 -119 l 293 -87 l 242 -87 l 242 -65 l 293 -36 l 293 0 l 236 -33 q 193 -6 222 -6 q 157 -20 171 -6 q 143 -58 143 -35 l 143 -119 l 293 -119 m 143 56 l 293 56 l 293 22 l 143 22 l 143 56 m 293 75 l 293 110 l 265 119 l 265 179 l 293 190 l 293 226 l 143 165 l 143 133 l 293 75 m 293 244 l 293 336 l 264 336 l 264 278 l 143 278 l 143 244 l 293 244 m 293 403 l 293 435 l 236 435 l 236 488 l 206 488 l 206 435 l 174 435 l 174 493 l 143 493 l 143 403 l 293 403 m 293 693 l 293 725 l 199 725 l 293 794 l 293 821 l 143 821 l 143 789 l 235 789 l 143 724 l 143 693 l 293 693 m 174 843 l 174 885 l 293 885 l 293 918 l 174 918 l 174 960 l 143 960 l 143 843 l 174 843 m 171 588 q 184 622 171 608 q 218 635 197 635 q 253 622 239 635 q 267 588 267 608 q 253 554 267 568 q 218 540 239 540 q 184 554 197 540 q 171 588 171 568 m 172 -61 q 178 -45 172 -51 q 192 -39 183 -39 q 207 -45 201 -39 q 213 -61 213 -51 l 213 -87 l 172 -87 l 172 -61 m 236 169 l 236 131 l 182 150 l 236 169 z "},"æ":{"ha":436,"x_min":139,"x_max":297,"o":"m 174 -183 l 293 -183 l 293 -217 l 174 -217 l 174 -258 l 143 -258 l 143 -142 l 174 -142 l 174 -183 m 139 588 q 162 530 139 553 q 218 507 185 507 q 274 530 251 507 q 297 588 297 553 q 274 645 297 622 q 218 668 251 668 q 162 645 185 668 q 139 588 139 622 m 293 -119 l 293 -87 l 242 -87 l 242 -65 l 293 -36 l 293 0 l 236 -33 q 193 -6 222 -6 q 157 -20 171 -6 q 143 -58 143 -35 l 143 -119 l 293 -119 m 143 56 l 293 56 l 293 22 l 143 22 l 143 56 m 293 75 l 293 110 l 265 119 l 265 179 l 293 190 l 293 226 l 143 165 l 143 133 l 293 75 m 293 244 l 293 336 l 264 336 l 264 278 l 143 278 l 143 244 l 293 244 m 293 403 l 293 435 l 236 435 l 236 488 l 206 488 l 206 435 l 174 435 l 174 493 l 143 493 l 143 403 l 293 403 m 293 693 l 293 725 l 199 725 l 293 794 l 293 821 l 143 821 l 143 789 l 235 789 l 143 724 l 143 693 l 293 693 m 174 843 l 174 885 l 293 885 l 293 918 l 174 918 l 174 960 l 143 960 l 143 843 l 174 843 m 171 588 q 184 622 171 608 q 218 635 197 635 q 253 622 239 635 q 267 588 267 608 q 253 554 267 568 q 218 540 239 540 q 184 554 197 540 q 171 588 171 568 m 172 -61 q 178 -45 172 -51 q 192 -39 183 -39 q 207 -45 201 -39 q 213 -61 213 -51 l 213 -87 l 172 -87 l 172 -61 m 236 169 l 236 131 l 182 150 l 236 169 z "},"ǽ":{"ha":436,"x_min":139,"x_max":297,"o":"m 174 -183 l 293 -183 l 293 -217 l 174 -217 l 174 -258 l 143 -258 l 143 -142 l 174 -142 l 174 -183 m 139 588 q 162 530 139 553 q 218 507 185 507 q 274 530 251 507 q 297 588 297 553 q 274 645 297 622 q 218 668 251 668 q 162 645 185 668 q 139 588 139 622 m 293 -119 l 293 -87 l 242 -87 l 242 -65 l 293 -36 l 293 0 l 236 -33 q 193 -6 222 -6 q 157 -20 171 -6 q 143 -58 143 -35 l 143 -119 l 293 -119 m 143 56 l 293 56 l 293 22 l 143 22 l 143 56 m 293 75 l 293 110 l 265 119 l 265 179 l 293 190 l 293 226 l 143 165 l 143 133 l 293 75 m 293 244 l 293 336 l 264 336 l 264 278 l 143 278 l 143 244 l 293 244 m 293 403 l 293 435 l 236 435 l 236 488 l 206 488 l 206 435 l 174 435 l 174 493 l 143 493 l 143 403 l 293 403 m 293 693 l 293 725 l 199 725 l 293 794 l 293 821 l 143 821 l 143 789 l 235 789 l 143 724 l 143 693 l 293 693 m 174 843 l 174 885 l 293 885 l 293 918 l 174 918 l 174 960 l 143 960 l 143 843 l 174 843 m 171 588 q 184 622 171 608 q 218 635 197 635 q 253 622 239 635 q 267 588 267 608 q 253 554 267 568 q 218 540 239 540 q 184 554 197 540 q 171 588 171 568 m 172 -61 q 178 -45 172 -51 q 192 -39 183 -39 q 207 -45 201 -39 q 213 -61 213 -51 l 213 -87 l 172 -87 l 172 -61 m 236 169 l 236 131 l 182 150 l 236 169 z "},"b":{"ha":946,"x_min":56,"x_max":924,"o":"m 578 -14 q 363 58 450 -14 l 353 0 l 56 0 l 56 972 l 406 972 l 406 707 q 578 750 483 750 q 758 703 679 750 q 880 569 836 656 q 924 368 924 482 q 880 167 924 254 q 758 33 836 81 q 578 -14 679 -14 m 396 368 q 422 292 396 321 q 492 264 449 264 q 561 292 535 264 q 588 368 588 321 q 562 444 588 415 q 492 472 536 472 q 422 444 447 472 q 396 368 396 415 z "},"c":{"ha":875,"x_min":19,"x_max":860,"o":"m 443 -19 q 221 28 317 -19 q 72 165 125 76 q 19 368 19 253 q 72 572 19 483 q 221 708 125 660 q 443 756 317 756 q 651 713 560 756 q 797 591 742 669 q 860 408 851 513 l 546 408 q 508 456 533 439 q 451 472 483 472 q 382 444 408 472 q 356 368 356 415 q 382 292 356 321 q 451 264 408 264 q 510 281 485 264 q 546 329 536 299 l 860 329 q 797 145 851 224 q 651 24 743 67 q 443 -19 560 -19 z "},"ć":{"ha":436,"x_min":139,"x_max":297,"o":"m 174 -183 l 293 -183 l 293 -217 l 174 -217 l 174 -258 l 143 -258 l 143 -142 l 174 -142 l 174 -183 m 139 588 q 162 530 139 553 q 218 507 185 507 q 274 530 251 507 q 297 588 297 553 q 274 645 297 622 q 218 668 251 668 q 162 645 185 668 q 139 588 139 622 m 293 -119 l 293 -87 l 242 -87 l 242 -65 l 293 -36 l 293 0 l 236 -33 q 193 -6 222 -6 q 157 -20 171 -6 q 143 -58 143 -35 l 143 -119 l 293 -119 m 143 56 l 293 56 l 293 22 l 143 22 l 143 56 m 293 75 l 293 110 l 265 119 l 265 179 l 293 190 l 293 226 l 143 165 l 143 133 l 293 75 m 293 244 l 293 336 l 264 336 l 264 278 l 143 278 l 143 244 l 293 244 m 293 403 l 293 435 l 236 435 l 236 488 l 206 488 l 206 435 l 174 435 l 174 493 l 143 493 l 143 403 l 293 403 m 293 693 l 293 725 l 199 725 l 293 794 l 293 821 l 143 821 l 143 789 l 235 789 l 143 724 l 143 693 l 293 693 m 174 843 l 174 885 l 293 885 l 293 918 l 174 918 l 174 960 l 143 960 l 143 843 l 174 843 m 171 588 q 184 622 171 608 q 218 635 197 635 q 253 622 239 635 q 267 588 267 608 q 253 554 267 568 q 218 540 239 540 q 184 554 197 540 q 171 588 171 568 m 172 -61 q 178 -45 172 -51 q 192 -39 183 -39 q 207 -45 201 -39 q 213 -61 213 -51 l 213 -87 l 172 -87 l 172 -61 m 236 169 l 236 131 l 182 150 l 236 169 z "},"č":{"ha":436,"x_min":139,"x_max":297,"o":"m 174 -183 l 293 -183 l 293 -217 l 174 -217 l 174 -258 l 143 -258 l 143 -142 l 174 -142 l 174 -183 m 139 588 q 162 530 139 553 q 218 507 185 507 q 274 530 251 507 q 297 588 297 553 q 274 645 297 622 q 218 668 251 668 q 162 645 185 668 q 139 588 139 622 m 293 -119 l 293 -87 l 242 -87 l 242 -65 l 293 -36 l 293 0 l 236 -33 q 193 -6 222 -6 q 157 -20 171 -6 q 143 -58 143 -35 l 143 -119 l 293 -119 m 143 56 l 293 56 l 293 22 l 143 22 l 143 56 m 293 75 l 293 110 l 265 119 l 265 179 l 293 190 l 293 226 l 143 165 l 143 133 l 293 75 m 293 244 l 293 336 l 264 336 l 264 278 l 143 278 l 143 244 l 293 244 m 293 403 l 293 435 l 236 435 l 236 488 l 206 488 l 206 435 l 174 435 l 174 493 l 143 493 l 143 403 l 293 403 m 293 693 l 293 725 l 199 725 l 293 794 l 293 821 l 143 821 l 143 789 l 235 789 l 143 724 l 143 693 l 293 693 m 174 843 l 174 885 l 293 885 l 293 918 l 174 918 l 174 960 l 143 960 l 143 843 l 174 843 m 171 588 q 184 622 171 608 q 218 635 197 635 q 253 622 239 635 q 267 588 267 608 q 253 554 267 568 q 218 540 239 540 q 184 554 197 540 q 171 588 171 568 m 172 -61 q 178 -45 172 -51 q 192 -39 183 -39 q 207 -45 201 -39 q 213 -61 213 -51 l 213 -87 l 172 -87 l 172 -61 m 236 169 l 236 131 l 182 150 l 236 169 z "},"ç":{"ha":436,"x_min":139,"x_max":297,"o":"m 174 -183 l 293 -183 l 293 -217 l 174 -217 l 174 -258 l 143 -258 l 143 -142 l 174 -142 l 174 -183 m 139 588 q 162 530 139 553 q 218 507 185 507 q 274 530 251 507 q 297 588 297 553 q 274 645 297 622 q 218 668 251 668 q 162 645 185 668 q 139 588 139 622 m 293 -119 l 293 -87 l 242 -87 l 242 -65 l 293 -36 l 293 0 l 236 -33 q 193 -6 222 -6 q 157 -20 171 -6 q 143 -58 143 -35 l 143 -119 l 293 -119 m 143 56 l 293 56 l 293 22 l 143 22 l 143 56 m 293 75 l 293 110 l 265 119 l 265 179 l 293 190 l 293 226 l 143 165 l 143 133 l 293 75 m 293 244 l 293 336 l 264 336 l 264 278 l 143 278 l 143 244 l 293 244 m 293 403 l 293 435 l 236 435 l 236 488 l 206 488 l 206 435 l 174 435 l 174 493 l 143 493 l 143 403 l 293 403 m 293 693 l 293 725 l 199 725 l 293 794 l 293 821 l 143 821 l 143 789 l 235 789 l 143 724 l 143 693 l 293 693 m 174 843 l 174 885 l 293 885 l 293 918 l 174 918 l 174 960 l 143 960 l 143 843 l 174 843 m 171 588 q 184 622 171 608 q 218 635 197 635 q 253 622 239 635 q 267 588 267 608 q 253 554 267 568 q 218 540 239 540 q 184 554 197 540 q 171 588 171 568 m 172 -61 q 178 -45 172 -51 q 192 -39 183 -39 q 207 -45 201 -39 q 213 -61 213 -51 l 213 -87 l 172 -87 l 172 -61 m 236 169 l 236 131 l 182 150 l 236 169 z "},"ĉ":{"ha":436,"x_min":139,"x_max":297,"o":"m 174 -183 l 293 -183 l 293 -217 l 174 -217 l 174 -258 l 143 -258 l 143 -142 l 174 -142 l 174 -183 m 139 588 q 162 530 139 553 q 218 507 185 507 q 274 530 251 507 q 297 588 297 553 q 274 645 297 622 q 218 668 251 668 q 162 645 185 668 q 139 588 139 622 m 293 -119 l 293 -87 l 242 -87 l 242 -65 l 293 -36 l 293 0 l 236 -33 q 193 -6 222 -6 q 157 -20 171 -6 q 143 -58 143 -35 l 143 -119 l 293 -119 m 143 56 l 293 56 l 293 22 l 143 22 l 143 56 m 293 75 l 293 110 l 265 119 l 265 179 l 293 190 l 293 226 l 143 165 l 143 133 l 293 75 m 293 244 l 293 336 l 264 336 l 264 278 l 143 278 l 143 244 l 293 244 m 293 403 l 293 435 l 236 435 l 236 488 l 206 488 l 206 435 l 174 435 l 174 493 l 143 493 l 143 403 l 293 403 m 293 693 l 293 725 l 199 725 l 293 794 l 293 821 l 143 821 l 143 789 l 235 789 l 143 724 l 143 693 l 293 693 m 174 843 l 174 885 l 293 885 l 293 918 l 174 918 l 174 960 l 143 960 l 143 843 l 174 843 m 171 588 q 184 622 171 608 q 218 635 197 635 q 253 622 239 635 q 267 588 267 608 q 253 554 267 568 q 218 540 239 540 q 184 554 197 540 q 171 588 171 568 m 172 -61 q 178 -45 172 -51 q 192 -39 183 -39 q 207 -45 201 -39 q 213 -61 213 -51 l 213 -87 l 172 -87 l 172 -61 m 236 169 l 236 131 l 182 150 l 236 169 z "},"ċ":{"ha":436,"x_min":139,"x_max":297,"o":"m 174 -183 l 293 -183 l 293 -217 l 174 -217 l 174 -258 l 143 -258 l 143 -142 l 174 -142 l 174 -183 m 139 588 q 162 530 139 553 q 218 507 185 507 q 274 530 251 507 q 297 588 297 553 q 274 645 297 622 q 218 668 251 668 q 162 645 185 668 q 139 588 139 622 m 293 -119 l 293 -87 l 242 -87 l 242 -65 l 293 -36 l 293 0 l 236 -33 q 193 -6 222 -6 q 157 -20 171 -6 q 143 -58 143 -35 l 143 -119 l 293 -119 m 143 56 l 293 56 l 293 22 l 143 22 l 143 56 m 293 75 l 293 110 l 265 119 l 265 179 l 293 190 l 293 226 l 143 165 l 143 133 l 293 75 m 293 244 l 293 336 l 264 336 l 264 278 l 143 278 l 143 244 l 293 244 m 293 403 l 293 435 l 236 435 l 236 488 l 206 488 l 206 435 l 174 435 l 174 493 l 143 493 l 143 403 l 293 403 m 293 693 l 293 725 l 199 725 l 293 794 l 293 821 l 143 821 l 143 789 l 235 789 l 143 724 l 143 693 l 293 693 m 174 843 l 174 885 l 293 885 l 293 918 l 174 918 l 174 960 l 143 960 l 143 843 l 174 843 m 171 588 q 184 622 171 608 q 218 635 197 635 q 253 622 239 635 q 267 588 267 608 q 253 554 267 568 q 218 540 239 540 q 184 554 197 540 q 171 588 171 568 m 172 -61 q 178 -45 172 -51 q 192 -39 183 -39 q 207 -45 201 -39 q 213 -61 213 -51 l 213 -87 l 172 -87 l 172 -61 m 236 169 l 236 131 l 182 150 l 236 169 z "},"d":{"ha":946,"x_min":22,"x_max":890,"o":"m 368 -14 q 188 33 267 -14 q 66 167 110 81 q 22 368 22 254 q 66 569 22 482 q 188 703 110 656 q 368 750 267 750 q 540 707 463 750 l 540 972 l 890 972 l 890 0 l 593 0 l 583 58 q 368 -14 496 -14 m 358 368 q 385 292 358 321 q 454 264 411 264 q 524 292 497 264 q 550 368 550 321 q 524 444 550 415 q 454 472 499 472 q 384 444 410 472 q 358 368 358 415 z "},"ð":{"ha":436,"x_min":139,"x_max":297,"o":"m 174 -183 l 293 -183 l 293 -217 l 174 -217 l 174 -258 l 143 -258 l 143 -142 l 174 -142 l 174 -183 m 139 588 q 162 530 139 553 q 218 507 185 507 q 274 530 251 507 q 297 588 297 553 q 274 645 297 622 q 218 668 251 668 q 162 645 185 668 q 139 588 139 622 m 293 -119 l 293 -87 l 242 -87 l 242 -65 l 293 -36 l 293 0 l 236 -33 q 193 -6 222 -6 q 157 -20 171 -6 q 143 -58 143 -35 l 143 -119 l 293 -119 m 143 56 l 293 56 l 293 22 l 143 22 l 143 56 m 293 75 l 293 110 l 265 119 l 265 179 l 293 190 l 293 226 l 143 165 l 143 133 l 293 75 m 293 244 l 293 336 l 264 336 l 264 278 l 143 278 l 143 244 l 293 244 m 293 403 l 293 435 l 236 435 l 236 488 l 206 488 l 206 435 l 174 435 l 174 493 l 143 493 l 143 403 l 293 403 m 293 693 l 293 725 l 199 725 l 293 794 l 293 821 l 143 821 l 143 789 l 235 789 l 143 724 l 143 693 l 293 693 m 174 843 l 174 885 l 293 885 l 293 918 l 174 918 l 174 960 l 143 960 l 143 843 l 174 843 m 171 588 q 184 622 171 608 q 218 635 197 635 q 253 622 239 635 q 267 588 267 608 q 253 554 267 568 q 218 540 239 540 q 184 554 197 540 q 171 588 171 568 m 172 -61 q 178 -45 172 -51 q 192 -39 183 -39 q 207 -45 201 -39 q 213 -61 213 -51 l 213 -87 l 172 -87 l 172 -61 m 236 169 l 236 131 l 182 150 l 236 169 z "},"ď":{"ha":436,"x_min":139,"x_max":297,"o":"m 174 -183 l 293 -183 l 293 -217 l 174 -217 l 174 -258 l 143 -258 l 143 -142 l 174 -142 l 174 -183 m 139 588 q 162 530 139 553 q 218 507 185 507 q 274 530 251 507 q 297 588 297 553 q 274 645 297 622 q 218 668 251 668 q 162 645 185 668 q 139 588 139 622 m 293 -119 l 293 -87 l 242 -87 l 242 -65 l 293 -36 l 293 0 l 236 -33 q 193 -6 222 -6 q 157 -20 171 -6 q 143 -58 143 -35 l 143 -119 l 293 -119 m 143 56 l 293 56 l 293 22 l 143 22 l 143 56 m 293 75 l 293 110 l 265 119 l 265 179 l 293 190 l 293 226 l 143 165 l 143 133 l 293 75 m 293 244 l 293 336 l 264 336 l 264 278 l 143 278 l 143 244 l 293 244 m 293 403 l 293 435 l 236 435 l 236 488 l 206 488 l 206 435 l 174 435 l 174 493 l 143 493 l 143 403 l 293 403 m 293 693 l 293 725 l 199 725 l 293 794 l 293 821 l 143 821 l 143 789 l 235 789 l 143 724 l 143 693 l 293 693 m 174 843 l 174 885 l 293 885 l 293 918 l 174 918 l 174 960 l 143 960 l 143 843 l 174 843 m 171 588 q 184 622 171 608 q 218 635 197 635 q 253 622 239 635 q 267 588 267 608 q 253 554 267 568 q 218 540 239 540 q 184 554 197 540 q 171 588 171 568 m 172 -61 q 178 -45 172 -51 q 192 -39 183 -39 q 207 -45 201 -39 q 213 -61 213 -51 l 213 -87 l 172 -87 l 172 -61 m 236 169 l 236 131 l 182 150 l 236 169 z "},"đ":{"ha":436,"x_min":139,"x_max":297,"o":"m 174 -183 l 293 -183 l 293 -217 l 174 -217 l 174 -258 l 143 -258 l 143 -142 l 174 -142 l 174 -183 m 139 588 q 162 530 139 553 q 218 507 185 507 q 274 530 251 507 q 297 588 297 553 q 274 645 297 622 q 218 668 251 668 q 162 645 185 668 q 139 588 139 622 m 293 -119 l 293 -87 l 242 -87 l 242 -65 l 293 -36 l 293 0 l 236 -33 q 193 -6 222 -6 q 157 -20 171 -6 q 143 -58 143 -35 l 143 -119 l 293 -119 m 143 56 l 293 56 l 293 22 l 143 22 l 143 56 m 293 75 l 293 110 l 265 119 l 265 179 l 293 190 l 293 226 l 143 165 l 143 133 l 293 75 m 293 244 l 293 336 l 264 336 l 264 278 l 143 278 l 143 244 l 293 244 m 293 403 l 293 435 l 236 435 l 236 488 l 206 488 l 206 435 l 174 435 l 174 493 l 143 493 l 143 403 l 293 403 m 293 693 l 293 725 l 199 725 l 293 794 l 293 821 l 143 821 l 143 789 l 235 789 l 143 724 l 143 693 l 293 693 m 174 843 l 174 885 l 293 885 l 293 918 l 174 918 l 174 960 l 143 960 l 143 843 l 174 843 m 171 588 q 184 622 171 608 q 218 635 197 635 q 253 622 239 635 q 267 588 267 608 q 253 554 267 568 q 218 540 239 540 q 184 554 197 540 q 171 588 171 568 m 172 -61 q 178 -45 172 -51 q 192 -39 183 -39 q 207 -45 201 -39 q 213 -61 213 -51 l 213 -87 l 172 -87 l 172 -61 m 236 169 l 236 131 l 182 150 l 236 169 z "},"e":{"ha":886,"x_min":19,"x_max":868,"o":"m 443 -19 q 221 28 317 -19 q 72 165 125 76 q 19 368 19 253 q 72 572 19 483 q 221 708 125 660 q 443 756 317 756 q 663 709 565 756 q 814 577 760 663 q 868 382 868 492 q 861 306 868 350 l 338 306 q 450 218 361 218 q 546 256 508 218 l 850 256 q 702 52 810 124 q 443 -19 594 -19 m 563 442 q 524 501 551 479 q 456 522 496 522 q 340 442 364 522 l 563 442 z "},"é":{"ha":436,"x_min":139,"x_max":297,"o":"m 174 -183 l 293 -183 l 293 -217 l 174 -217 l 174 -258 l 143 -258 l 143 -142 l 174 -142 l 174 -183 m 139 588 q 162 530 139 553 q 218 507 185 507 q 274 530 251 507 q 297 588 297 553 q 274 645 297 622 q 218 668 251 668 q 162 645 185 668 q 139 588 139 622 m 293 -119 l 293 -87 l 242 -87 l 242 -65 l 293 -36 l 293 0 l 236 -33 q 193 -6 222 -6 q 157 -20 171 -6 q 143 -58 143 -35 l 143 -119 l 293 -119 m 143 56 l 293 56 l 293 22 l 143 22 l 143 56 m 293 75 l 293 110 l 265 119 l 265 179 l 293 190 l 293 226 l 143 165 l 143 133 l 293 75 m 293 244 l 293 336 l 264 336 l 264 278 l 143 278 l 143 244 l 293 244 m 293 403 l 293 435 l 236 435 l 236 488 l 206 488 l 206 435 l 174 435 l 174 493 l 143 493 l 143 403 l 293 403 m 293 693 l 293 725 l 199 725 l 293 794 l 293 821 l 143 821 l 143 789 l 235 789 l 143 724 l 143 693 l 293 693 m 174 843 l 174 885 l 293 885 l 293 918 l 174 918 l 174 960 l 143 960 l 143 843 l 174 843 m 171 588 q 184 622 171 608 q 218 635 197 635 q 253 622 239 635 q 267 588 267 608 q 253 554 267 568 q 218 540 239 540 q 184 554 197 540 q 171 588 171 568 m 172 -61 q 178 -45 172 -51 q 192 -39 183 -39 q 207 -45 201 -39 q 213 -61 213 -51 l 213 -87 l 172 -87 l 172 -61 m 236 169 l 236 131 l 182 150 l 236 169 z "},"ĕ":{"ha":436,"x_min":139,"x_max":297,"o":"m 174 -183 l 293 -183 l 293 -217 l 174 -217 l 174 -258 l 143 -258 l 143 -142 l 174 -142 l 174 -183 m 139 588 q 162 530 139 553 q 218 507 185 507 q 274 530 251 507 q 297 588 297 553 q 274 645 297 622 q 218 668 251 668 q 162 645 185 668 q 139 588 139 622 m 293 -119 l 293 -87 l 242 -87 l 242 -65 l 293 -36 l 293 0 l 236 -33 q 193 -6 222 -6 q 157 -20 171 -6 q 143 -58 143 -35 l 143 -119 l 293 -119 m 143 56 l 293 56 l 293 22 l 143 22 l 143 56 m 293 75 l 293 110 l 265 119 l 265 179 l 293 190 l 293 226 l 143 165 l 143 133 l 293 75 m 293 244 l 293 336 l 264 336 l 264 278 l 143 278 l 143 244 l 293 244 m 293 403 l 293 435 l 236 435 l 236 488 l 206 488 l 206 435 l 174 435 l 174 493 l 143 493 l 143 403 l 293 403 m 293 693 l 293 725 l 199 725 l 293 794 l 293 821 l 143 821 l 143 789 l 235 789 l 143 724 l 143 693 l 293 693 m 174 843 l 174 885 l 293 885 l 293 918 l 174 918 l 174 960 l 143 960 l 143 843 l 174 843 m 171 588 q 184 622 171 608 q 218 635 197 635 q 253 622 239 635 q 267 588 267 608 q 253 554 267 568 q 218 540 239 540 q 184 554 197 540 q 171 588 171 568 m 172 -61 q 178 -45 172 -51 q 192 -39 183 -39 q 207 -45 201 -39 q 213 -61 213 -51 l 213 -87 l 172 -87 l 172 -61 m 236 169 l 236 131 l 182 150 l 236 169 z "},"ě":{"ha":436,"x_min":139,"x_max":297,"o":"m 174 -183 l 293 -183 l 293 -217 l 174 -217 l 174 -258 l 143 -258 l 143 -142 l 174 -142 l 174 -183 m 139 588 q 162 530 139 553 q 218 507 185 507 q 274 530 251 507 q 297 588 297 553 q 274 645 297 622 q 218 668 251 668 q 162 645 185 668 q 139 588 139 622 m 293 -119 l 293 -87 l 242 -87 l 242 -65 l 293 -36 l 293 0 l 236 -33 q 193 -6 222 -6 q 157 -20 171 -6 q 143 -58 143 -35 l 143 -119 l 293 -119 m 143 56 l 293 56 l 293 22 l 143 22 l 143 56 m 293 75 l 293 110 l 265 119 l 265 179 l 293 190 l 293 226 l 143 165 l 143 133 l 293 75 m 293 244 l 293 336 l 264 336 l 264 278 l 143 278 l 143 244 l 293 244 m 293 403 l 293 435 l 236 435 l 236 488 l 206 488 l 206 435 l 174 435 l 174 493 l 143 493 l 143 403 l 293 403 m 293 693 l 293 725 l 199 725 l 293 794 l 293 821 l 143 821 l 143 789 l 235 789 l 143 724 l 143 693 l 293 693 m 174 843 l 174 885 l 293 885 l 293 918 l 174 918 l 174 960 l 143 960 l 143 843 l 174 843 m 171 588 q 184 622 171 608 q 218 635 197 635 q 253 622 239 635 q 267 588 267 608 q 253 554 267 568 q 218 540 239 540 q 184 554 197 540 q 171 588 171 568 m 172 -61 q 178 -45 172 -51 q 192 -39 183 -39 q 207 -45 201 -39 q 213 -61 213 -51 l 213 -87 l 172 -87 l 172 -61 m 236 169 l 236 131 l 182 150 l 236 169 z "},"ê":{"ha":436,"x_min":139,"x_max":297,"o":"m 174 -183 l 293 -183 l 293 -217 l 174 -217 l 174 -258 l 143 -258 l 143 -142 l 174 -142 l 174 -183 m 139 588 q 162 530 139 553 q 218 507 185 507 q 274 530 251 507 q 297 588 297 553 q 274 645 297 622 q 218 668 251 668 q 162 645 185 668 q 139 588 139 622 m 293 -119 l 293 -87 l 242 -87 l 242 -65 l 293 -36 l 293 0 l 236 -33 q 193 -6 222 -6 q 157 -20 171 -6 q 143 -58 143 -35 l 143 -119 l 293 -119 m 143 56 l 293 56 l 293 22 l 143 22 l 143 56 m 293 75 l 293 110 l 265 119 l 265 179 l 293 190 l 293 226 l 143 165 l 143 133 l 293 75 m 293 244 l 293 336 l 264 336 l 264 278 l 143 278 l 143 244 l 293 244 m 293 403 l 293 435 l 236 435 l 236 488 l 206 488 l 206 435 l 174 435 l 174 493 l 143 493 l 143 403 l 293 403 m 293 693 l 293 725 l 199 725 l 293 794 l 293 821 l 143 821 l 143 789 l 235 789 l 143 724 l 143 693 l 293 693 m 174 843 l 174 885 l 293 885 l 293 918 l 174 918 l 174 960 l 143 960 l 143 843 l 174 843 m 171 588 q 184 622 171 608 q 218 635 197 635 q 253 622 239 635 q 267 588 267 608 q 253 554 267 568 q 218 540 239 540 q 184 554 197 540 q 171 588 171 568 m 172 -61 q 178 -45 172 -51 q 192 -39 183 -39 q 207 -45 201 -39 q 213 -61 213 -51 l 213 -87 l 172 -87 l 172 -61 m 236 169 l 236 131 l 182 150 l 236 169 z "},"ë":{"ha":436,"x_min":139,"x_max":297,"o":"m 174 -183 l 293 -183 l 293 -217 l 174 -217 l 174 -258 l 143 -258 l 143 -142 l 174 -142 l 174 -183 m 139 588 q 162 530 139 553 q 218 507 185 507 q 274 530 251 507 q 297 588 297 553 q 274 645 297 622 q 218 668 251 668 q 162 645 185 668 q 139 588 139 622 m 293 -119 l 293 -87 l 242 -87 l 242 -65 l 293 -36 l 293 0 l 236 -33 q 193 -6 222 -6 q 157 -20 171 -6 q 143 -58 143 -35 l 143 -119 l 293 -119 m 143 56 l 293 56 l 293 22 l 143 22 l 143 56 m 293 75 l 293 110 l 265 119 l 265 179 l 293 190 l 293 226 l 143 165 l 143 133 l 293 75 m 293 244 l 293 336 l 264 336 l 264 278 l 143 278 l 143 244 l 293 244 m 293 403 l 293 435 l 236 435 l 236 488 l 206 488 l 206 435 l 174 435 l 174 493 l 143 493 l 143 403 l 293 403 m 293 693 l 293 725 l 199 725 l 293 794 l 293 821 l 143 821 l 143 789 l 235 789 l 143 724 l 143 693 l 293 693 m 174 843 l 174 885 l 293 885 l 293 918 l 174 918 l 174 960 l 143 960 l 143 843 l 174 843 m 171 588 q 184 622 171 608 q 218 635 197 635 q 253 622 239 635 q 267 588 267 608 q 253 554 267 568 q 218 540 239 540 q 184 554 197 540 q 171 588 171 568 m 172 -61 q 178 -45 172 -51 q 192 -39 183 -39 q 207 -45 201 -39 q 213 -61 213 -51 l 213 -87 l 172 -87 l 172 -61 m 236 169 l 236 131 l 182 150 l 236 169 z "},"ė":{"ha":436,"x_min":139,"x_max":297,"o":"m 174 -183 l 293 -183 l 293 -217 l 174 -217 l 174 -258 l 143 -258 l 143 -142 l 174 -142 l 174 -183 m 139 588 q 162 530 139 553 q 218 507 185 507 q 274 530 251 507 q 297 588 297 553 q 274 645 297 622 q 218 668 251 668 q 162 645 185 668 q 139 588 139 622 m 293 -119 l 293 -87 l 242 -87 l 242 -65 l 293 -36 l 293 0 l 236 -33 q 193 -6 222 -6 q 157 -20 171 -6 q 143 -58 143 -35 l 143 -119 l 293 -119 m 143 56 l 293 56 l 293 22 l 143 22 l 143 56 m 293 75 l 293 110 l 265 119 l 265 179 l 293 190 l 293 226 l 143 165 l 143 133 l 293 75 m 293 244 l 293 336 l 264 336 l 264 278 l 143 278 l 143 244 l 293 244 m 293 403 l 293 435 l 236 435 l 236 488 l 206 488 l 206 435 l 174 435 l 174 493 l 143 493 l 143 403 l 293 403 m 293 693 l 293 725 l 199 725 l 293 794 l 293 821 l 143 821 l 143 789 l 235 789 l 143 724 l 143 693 l 293 693 m 174 843 l 174 885 l 293 885 l 293 918 l 174 918 l 174 960 l 143 960 l 143 843 l 174 843 m 171 588 q 184 622 171 608 q 218 635 197 635 q 253 622 239 635 q 267 588 267 608 q 253 554 267 568 q 218 540 239 540 q 184 554 197 540 q 171 588 171 568 m 172 -61 q 178 -45 172 -51 q 192 -39 183 -39 q 207 -45 201 -39 q 213 -61 213 -51 l 213 -87 l 172 -87 l 172 -61 m 236 169 l 236 131 l 182 150 l 236 169 z "},"è":{"ha":436,"x_min":139,"x_max":297,"o":"m 174 -183 l 293 -183 l 293 -217 l 174 -217 l 174 -258 l 143 -258 l 143 -142 l 174 -142 l 174 -183 m 139 588 q 162 530 139 553 q 218 507 185 507 q 274 530 251 507 q 297 588 297 553 q 274 645 297 622 q 218 668 251 668 q 162 645 185 668 q 139 588 139 622 m 293 -119 l 293 -87 l 242 -87 l 242 -65 l 293 -36 l 293 0 l 236 -33 q 193 -6 222 -6 q 157 -20 171 -6 q 143 -58 143 -35 l 143 -119 l 293 -119 m 143 56 l 293 56 l 293 22 l 143 22 l 143 56 m 293 75 l 293 110 l 265 119 l 265 179 l 293 190 l 293 226 l 143 165 l 143 133 l 293 75 m 293 244 l 293 336 l 264 336 l 264 278 l 143 278 l 143 244 l 293 244 m 293 403 l 293 435 l 236 435 l 236 488 l 206 488 l 206 435 l 174 435 l 174 493 l 143 493 l 143 403 l 293 403 m 293 693 l 293 725 l 199 725 l 293 794 l 293 821 l 143 821 l 143 789 l 235 789 l 143 724 l 143 693 l 293 693 m 174 843 l 174 885 l 293 885 l 293 918 l 174 918 l 174 960 l 143 960 l 143 843 l 174 843 m 171 588 q 184 622 171 608 q 218 635 197 635 q 253 622 239 635 q 267 588 267 608 q 253 554 267 568 q 218 540 239 540 q 184 554 197 540 q 171 588 171 568 m 172 -61 q 178 -45 172 -51 q 192 -39 183 -39 q 207 -45 201 -39 q 213 -61 213 -51 l 213 -87 l 172 -87 l 172 -61 m 236 169 l 236 131 l 182 150 l 236 169 z "},"ē":{"ha":436,"x_min":139,"x_max":297,"o":"m 174 -183 l 293 -183 l 293 -217 l 174 -217 l 174 -258 l 143 -258 l 143 -142 l 174 -142 l 174 -183 m 139 588 q 162 530 139 553 q 218 507 185 507 q 274 530 251 507 q 297 588 297 553 q 274 645 297 622 q 218 668 251 668 q 162 645 185 668 q 139 588 139 622 m 293 -119 l 293 -87 l 242 -87 l 242 -65 l 293 -36 l 293 0 l 236 -33 q 193 -6 222 -6 q 157 -20 171 -6 q 143 -58 143 -35 l 143 -119 l 293 -119 m 143 56 l 293 56 l 293 22 l 143 22 l 143 56 m 293 75 l 293 110 l 265 119 l 265 179 l 293 190 l 293 226 l 143 165 l 143 133 l 293 75 m 293 244 l 293 336 l 264 336 l 264 278 l 143 278 l 143 244 l 293 244 m 293 403 l 293 435 l 236 435 l 236 488 l 206 488 l 206 435 l 174 435 l 174 493 l 143 493 l 143 403 l 293 403 m 293 693 l 293 725 l 199 725 l 293 794 l 293 821 l 143 821 l 143 789 l 235 789 l 143 724 l 143 693 l 293 693 m 174 843 l 174 885 l 293 885 l 293 918 l 174 918 l 174 960 l 143 960 l 143 843 l 174 843 m 171 588 q 184 622 171 608 q 218 635 197 635 q 253 622 239 635 q 267 588 267 608 q 253 554 267 568 q 218 540 239 540 q 184 554 197 540 q 171 588 171 568 m 172 -61 q 178 -45 172 -51 q 192 -39 183 -39 q 207 -45 201 -39 q 213 -61 213 -51 l 213 -87 l 172 -87 l 172 -61 m 236 169 l 236 131 l 182 150 l 236 169 z "},"ę":{"ha":436,"x_min":139,"x_max":297,"o":"m 174 -183 l 293 -183 l 293 -217 l 174 -217 l 174 -258 l 143 -258 l 143 -142 l 174 -142 l 174 -183 m 139 588 q 162 530 139 553 q 218 507 185 507 q 274 530 251 507 q 297 588 297 553 q 274 645 297 622 q 218 668 251 668 q 162 645 185 668 q 139 588 139 622 m 293 -119 l 293 -87 l 242 -87 l 242 -65 l 293 -36 l 293 0 l 236 -33 q 193 -6 222 -6 q 157 -20 171 -6 q 143 -58 143 -35 l 143 -119 l 293 -119 m 143 56 l 293 56 l 293 22 l 143 22 l 143 56 m 293 75 l 293 110 l 265 119 l 265 179 l 293 190 l 293 226 l 143 165 l 143 133 l 293 75 m 293 244 l 293 336 l 264 336 l 264 278 l 143 278 l 143 244 l 293 244 m 293 403 l 293 435 l 236 435 l 236 488 l 206 488 l 206 435 l 174 435 l 174 493 l 143 493 l 143 403 l 293 403 m 293 693 l 293 725 l 199 725 l 293 794 l 293 821 l 143 821 l 143 789 l 235 789 l 143 724 l 143 693 l 293 693 m 174 843 l 174 885 l 293 885 l 293 918 l 174 918 l 174 960 l 143 960 l 143 843 l 174 843 m 171 588 q 184 622 171 608 q 218 635 197 635 q 253 622 239 635 q 267 588 267 608 q 253 554 267 568 q 218 540 239 540 q 184 554 197 540 q 171 588 171 568 m 172 -61 q 178 -45 172 -51 q 192 -39 183 -39 q 207 -45 201 -39 q 213 -61 213 -51 l 213 -87 l 172 -87 l 172 -61 m 236 169 l 236 131 l 182 150 l 236 169 z "},"ẽ":{"ha":436,"x_min":139,"x_max":297,"o":"m 174 -183 l 293 -183 l 293 -217 l 174 -217 l 174 -258 l 143 -258 l 143 -142 l 174 -142 l 174 -183 m 139 588 q 162 530 139 553 q 218 507 185 507 q 274 530 251 507 q 297 588 297 553 q 274 645 297 622 q 218 668 251 668 q 162 645 185 668 q 139 588 139 622 m 293 -119 l 293 -87 l 242 -87 l 242 -65 l 293 -36 l 293 0 l 236 -33 q 193 -6 222 -6 q 157 -20 171 -6 q 143 -58 143 -35 l 143 -119 l 293 -119 m 143 56 l 293 56 l 293 22 l 143 22 l 143 56 m 293 75 l 293 110 l 265 119 l 265 179 l 293 190 l 293 226 l 143 165 l 143 133 l 293 75 m 293 244 l 293 336 l 264 336 l 264 278 l 143 278 l 143 244 l 293 244 m 293 403 l 293 435 l 236 435 l 236 488 l 206 488 l 206 435 l 174 435 l 174 493 l 143 493 l 143 403 l 293 403 m 293 693 l 293 725 l 199 725 l 293 794 l 293 821 l 143 821 l 143 789 l 235 789 l 143 724 l 143 693 l 293 693 m 174 843 l 174 885 l 293 885 l 293 918 l 174 918 l 174 960 l 143 960 l 143 843 l 174 843 m 171 588 q 184 622 171 608 q 218 635 197 635 q 253 622 239 635 q 267 588 267 608 q 253 554 267 568 q 218 540 239 540 q 184 554 197 540 q 171 588 171 568 m 172 -61 q 178 -45 172 -51 q 192 -39 183 -39 q 207 -45 201 -39 q 213 -61 213 -51 l 213 -87 l 172 -87 l 172 -61 m 236 169 l 236 131 l 182 150 l 236 169 z "},"ə":{"ha":436,"x_min":139,"x_max":297,"o":"m 174 -183 l 293 -183 l 293 -217 l 174 -217 l 174 -258 l 143 -258 l 143 -142 l 174 -142 l 174 -183 m 139 588 q 162 530 139 553 q 218 507 185 507 q 274 530 251 507 q 297 588 297 553 q 274 645 297 622 q 218 668 251 668 q 162 645 185 668 q 139 588 139 622 m 293 -119 l 293 -87 l 242 -87 l 242 -65 l 293 -36 l 293 0 l 236 -33 q 193 -6 222 -6 q 157 -20 171 -6 q 143 -58 143 -35 l 143 -119 l 293 -119 m 143 56 l 293 56 l 293 22 l 143 22 l 143 56 m 293 75 l 293 110 l 265 119 l 265 179 l 293 190 l 293 226 l 143 165 l 143 133 l 293 75 m 293 244 l 293 336 l 264 336 l 264 278 l 143 278 l 143 244 l 293 244 m 293 403 l 293 435 l 236 435 l 236 488 l 206 488 l 206 435 l 174 435 l 174 493 l 143 493 l 143 403 l 293 403 m 293 693 l 293 725 l 199 725 l 293 794 l 293 821 l 143 821 l 143 789 l 235 789 l 143 724 l 143 693 l 293 693 m 174 843 l 174 885 l 293 885 l 293 918 l 174 918 l 174 960 l 143 960 l 143 843 l 174 843 m 171 588 q 184 622 171 608 q 218 635 197 635 q 253 622 239 635 q 267 588 267 608 q 253 554 267 568 q 218 540 239 540 q 184 554 197 540 q 171 588 171 568 m 172 -61 q 178 -45 172 -51 q 192 -39 183 -39 q 207 -45 201 -39 q 213 -61 213 -51 l 213 -87 l 172 -87 l 172 -61 m 236 169 l 236 131 l 182 150 l 236 169 z "},"f":{"ha":631,"x_min":24,"x_max":610,"o":"m 125 733 q 208 935 125 872 q 453 997 292 997 q 610 986 533 997 l 610 781 q 547 786 578 786 q 485 766 504 786 q 465 706 465 746 l 606 706 l 606 453 l 475 453 l 475 0 l 125 0 l 125 453 l 24 453 l 24 711 l 125 711 l 125 733 z "},"g":{"ha":943,"x_min":22,"x_max":888,"o":"m 451 -275 q 169 -204 275 -275 q 49 18 63 -133 l 369 18 q 395 -18 376 -7 q 451 -29 414 -29 q 515 -7 492 -29 q 538 57 538 15 l 538 89 q 368 50 463 50 q 188 94 267 50 q 66 215 110 138 q 22 393 22 293 q 66 581 22 499 q 188 710 110 664 q 368 756 267 756 q 585 686 493 756 l 593 736 l 888 736 l 888 117 q 774 -178 888 -82 q 451 -275 660 -275 m 358 383 q 384 315 358 342 q 451 289 410 289 q 519 315 493 289 q 544 383 544 342 q 519 451 544 425 q 451 478 493 478 q 384 451 410 478 q 358 383 358 425 z "},"ğ":{"ha":436,"x_min":139,"x_max":297,"o":"m 174 -183 l 293 -183 l 293 -217 l 174 -217 l 174 -258 l 143 -258 l 143 -142 l 174 -142 l 174 -183 m 139 588 q 162 530 139 553 q 218 507 185 507 q 274 530 251 507 q 297 588 297 553 q 274 645 297 622 q 218 668 251 668 q 162 645 185 668 q 139 588 139 622 m 293 -119 l 293 -87 l 242 -87 l 242 -65 l 293 -36 l 293 0 l 236 -33 q 193 -6 222 -6 q 157 -20 171 -6 q 143 -58 143 -35 l 143 -119 l 293 -119 m 143 56 l 293 56 l 293 22 l 143 22 l 143 56 m 293 75 l 293 110 l 265 119 l 265 179 l 293 190 l 293 226 l 143 165 l 143 133 l 293 75 m 293 244 l 293 336 l 264 336 l 264 278 l 143 278 l 143 244 l 293 244 m 293 403 l 293 435 l 236 435 l 236 488 l 206 488 l 206 435 l 174 435 l 174 493 l 143 493 l 143 403 l 293 403 m 293 693 l 293 725 l 199 725 l 293 794 l 293 821 l 143 821 l 143 789 l 235 789 l 143 724 l 143 693 l 293 693 m 174 843 l 174 885 l 293 885 l 293 918 l 174 918 l 174 960 l 143 960 l 143 843 l 174 843 m 171 588 q 184 622 171 608 q 218 635 197 635 q 253 622 239 635 q 267 588 267 608 q 253 554 267 568 q 218 540 239 540 q 184 554 197 540 q 171 588 171 568 m 172 -61 q 178 -45 172 -51 q 192 -39 183 -39 q 207 -45 201 -39 q 213 -61 213 -51 l 213 -87 l 172 -87 l 172 -61 m 236 169 l 236 131 l 182 150 l 236 169 z "},"ǧ":{"ha":436,"x_min":139,"x_max":297,"o":"m 174 -183 l 293 -183 l 293 -217 l 174 -217 l 174 -258 l 143 -258 l 143 -142 l 174 -142 l 174 -183 m 139 588 q 162 530 139 553 q 218 507 185 507 q 274 530 251 507 q 297 588 297 553 q 274 645 297 622 q 218 668 251 668 q 162 645 185 668 q 139 588 139 622 m 293 -119 l 293 -87 l 242 -87 l 242 -65 l 293 -36 l 293 0 l 236 -33 q 193 -6 222 -6 q 157 -20 171 -6 q 143 -58 143 -35 l 143 -119 l 293 -119 m 143 56 l 293 56 l 293 22 l 143 22 l 143 56 m 293 75 l 293 110 l 265 119 l 265 179 l 293 190 l 293 226 l 143 165 l 143 133 l 293 75 m 293 244 l 293 336 l 264 336 l 264 278 l 143 278 l 143 244 l 293 244 m 293 403 l 293 435 l 236 435 l 236 488 l 206 488 l 206 435 l 174 435 l 174 493 l 143 493 l 143 403 l 293 403 m 293 693 l 293 725 l 199 725 l 293 794 l 293 821 l 143 821 l 143 789 l 235 789 l 143 724 l 143 693 l 293 693 m 174 843 l 174 885 l 293 885 l 293 918 l 174 918 l 174 960 l 143 960 l 143 843 l 174 843 m 171 588 q 184 622 171 608 q 218 635 197 635 q 253 622 239 635 q 267 588 267 608 q 253 554 267 568 q 218 540 239 540 q 184 554 197 540 q 171 588 171 568 m 172 -61 q 178 -45 172 -51 q 192 -39 183 -39 q 207 -45 201 -39 q 213 -61 213 -51 l 213 -87 l 172 -87 l 172 -61 m 236 169 l 236 131 l 182 150 l 236 169 z "},"ĝ":{"ha":436,"x_min":139,"x_max":297,"o":"m 174 -183 l 293 -183 l 293 -217 l 174 -217 l 174 -258 l 143 -258 l 143 -142 l 174 -142 l 174 -183 m 139 588 q 162 530 139 553 q 218 507 185 507 q 274 530 251 507 q 297 588 297 553 q 274 645 297 622 q 218 668 251 668 q 162 645 185 668 q 139 588 139 622 m 293 -119 l 293 -87 l 242 -87 l 242 -65 l 293 -36 l 293 0 l 236 -33 q 193 -6 222 -6 q 157 -20 171 -6 q 143 -58 143 -35 l 143 -119 l 293 -119 m 143 56 l 293 56 l 293 22 l 143 22 l 143 56 m 293 75 l 293 110 l 265 119 l 265 179 l 293 190 l 293 226 l 143 165 l 143 133 l 293 75 m 293 244 l 293 336 l 264 336 l 264 278 l 143 278 l 143 244 l 293 244 m 293 403 l 293 435 l 236 435 l 236 488 l 206 488 l 206 435 l 174 435 l 174 493 l 143 493 l 143 403 l 293 403 m 293 693 l 293 725 l 199 725 l 293 794 l 293 821 l 143 821 l 143 789 l 235 789 l 143 724 l 143 693 l 293 693 m 174 843 l 174 885 l 293 885 l 293 918 l 174 918 l 174 960 l 143 960 l 143 843 l 174 843 m 171 588 q 184 622 171 608 q 218 635 197 635 q 253 622 239 635 q 267 588 267 608 q 253 554 267 568 q 218 540 239 540 q 184 554 197 540 q 171 588 171 568 m 172 -61 q 178 -45 172 -51 q 192 -39 183 -39 q 207 -45 201 -39 q 213 -61 213 -51 l 213 -87 l 172 -87 l 172 -61 m 236 169 l 236 131 l 182 150 l 236 169 z "},"ģ":{"ha":436,"x_min":139,"x_max":297,"o":"m 174 -183 l 293 -183 l 293 -217 l 174 -217 l 174 -258 l 143 -258 l 143 -142 l 174 -142 l 174 -183 m 139 588 q 162 530 139 553 q 218 507 185 507 q 274 530 251 507 q 297 588 297 553 q 274 645 297 622 q 218 668 251 668 q 162 645 185 668 q 139 588 139 622 m 293 -119 l 293 -87 l 242 -87 l 242 -65 l 293 -36 l 293 0 l 236 -33 q 193 -6 222 -6 q 157 -20 171 -6 q 143 -58 143 -35 l 143 -119 l 293 -119 m 143 56 l 293 56 l 293 22 l 143 22 l 143 56 m 293 75 l 293 110 l 265 119 l 265 179 l 293 190 l 293 226 l 143 165 l 143 133 l 293 75 m 293 244 l 293 336 l 264 336 l 264 278 l 143 278 l 143 244 l 293 244 m 293 403 l 293 435 l 236 435 l 236 488 l 206 488 l 206 435 l 174 435 l 174 493 l 143 493 l 143 403 l 293 403 m 293 693 l 293 725 l 199 725 l 293 794 l 293 821 l 143 821 l 143 789 l 235 789 l 143 724 l 143 693 l 293 693 m 174 843 l 174 885 l 293 885 l 293 918 l 174 918 l 174 960 l 143 960 l 143 843 l 174 843 m 171 588 q 184 622 171 608 q 218 635 197 635 q 253 622 239 635 q 267 588 267 608 q 253 554 267 568 q 218 540 239 540 q 184 554 197 540 q 171 588 171 568 m 172 -61 q 178 -45 172 -51 q 192 -39 183 -39 q 207 -45 201 -39 q 213 -61 213 -51 l 213 -87 l 172 -87 l 172 -61 m 236 169 l 236 131 l 182 150 l 236 169 z "},"ġ":{"ha":436,"x_min":139,"x_max":297,"o":"m 174 -183 l 293 -183 l 293 -217 l 174 -217 l 174 -258 l 143 -258 l 143 -142 l 174 -142 l 174 -183 m 139 588 q 162 530 139 553 q 218 507 185 507 q 274 530 251 507 q 297 588 297 553 q 274 645 297 622 q 218 668 251 668 q 162 645 185 668 q 139 588 139 622 m 293 -119 l 293 -87 l 242 -87 l 242 -65 l 293 -36 l 293 0 l 236 -33 q 193 -6 222 -6 q 157 -20 171 -6 q 143 -58 143 -35 l 143 -119 l 293 -119 m 143 56 l 293 56 l 293 22 l 143 22 l 143 56 m 293 75 l 293 110 l 265 119 l 265 179 l 293 190 l 293 226 l 143 165 l 143 133 l 293 75 m 293 244 l 293 336 l 264 336 l 264 278 l 143 278 l 143 244 l 293 244 m 293 403 l 293 435 l 236 435 l 236 488 l 206 488 l 206 435 l 174 435 l 174 493 l 143 493 l 143 403 l 293 403 m 293 693 l 293 725 l 199 725 l 293 794 l 293 821 l 143 821 l 143 789 l 235 789 l 143 724 l 143 693 l 293 693 m 174 843 l 174 885 l 293 885 l 293 918 l 174 918 l 174 960 l 143 960 l 143 843 l 174 843 m 171 588 q 184 622 171 608 q 218 635 197 635 q 253 622 239 635 q 267 588 267 608 q 253 554 267 568 q 218 540 239 540 q 184 554 197 540 q 171 588 171 568 m 172 -61 q 178 -45 172 -51 q 192 -39 183 -39 q 207 -45 201 -39 q 213 -61 213 -51 l 213 -87 l 172 -87 l 172 -61 m 236 169 l 236 131 l 182 150 l 236 169 z "},"h":{"ha":918,"x_min":56,"x_max":874,"o":"m 56 972 l 406 972 l 406 692 q 492 736 444 721 q 590 751 540 751 q 801 665 728 751 q 874 426 874 578 l 874 0 l 524 0 l 524 404 q 509 455 524 438 q 467 472 494 472 q 422 453 439 472 q 406 404 406 435 l 406 0 l 56 0 l 56 972 z "},"ħ":{"ha":436,"x_min":139,"x_max":297,"o":"m 174 -183 l 293 -183 l 293 -217 l 174 -217 l 174 -258 l 143 -258 l 143 -142 l 174 -142 l 174 -183 m 139 588 q 162 530 139 553 q 218 507 185 507 q 274 530 251 507 q 297 588 297 553 q 274 645 297 622 q 218 668 251 668 q 162 645 185 668 q 139 588 139 622 m 293 -119 l 293 -87 l 242 -87 l 242 -65 l 293 -36 l 293 0 l 236 -33 q 193 -6 222 -6 q 157 -20 171 -6 q 143 -58 143 -35 l 143 -119 l 293 -119 m 143 56 l 293 56 l 293 22 l 143 22 l 143 56 m 293 75 l 293 110 l 265 119 l 265 179 l 293 190 l 293 226 l 143 165 l 143 133 l 293 75 m 293 244 l 293 336 l 264 336 l 264 278 l 143 278 l 143 244 l 293 244 m 293 403 l 293 435 l 236 435 l 236 488 l 206 488 l 206 435 l 174 435 l 174 493 l 143 493 l 143 403 l 293 403 m 293 693 l 293 725 l 199 725 l 293 794 l 293 821 l 143 821 l 143 789 l 235 789 l 143 724 l 143 693 l 293 693 m 174 843 l 174 885 l 293 885 l 293 918 l 174 918 l 174 960 l 143 960 l 143 843 l 174 843 m 171 588 q 184 622 171 608 q 218 635 197 635 q 253 622 239 635 q 267 588 267 608 q 253 554 267 568 q 218 540 239 540 q 184 554 197 540 q 171 588 171 568 m 172 -61 q 178 -45 172 -51 q 192 -39 183 -39 q 207 -45 201 -39 q 213 -61 213 -51 l 213 -87 l 172 -87 l 172 -61 m 236 169 l 236 131 l 182 150 l 236 169 z "},"ĥ":{"ha":436,"x_min":139,"x_max":297,"o":"m 174 -183 l 293 -183 l 293 -217 l 174 -217 l 174 -258 l 143 -258 l 143 -142 l 174 -142 l 174 -183 m 139 588 q 162 530 139 553 q 218 507 185 507 q 274 530 251 507 q 297 588 297 553 q 274 645 297 622 q 218 668 251 668 q 162 645 185 668 q 139 588 139 622 m 293 -119 l 293 -87 l 242 -87 l 242 -65 l 293 -36 l 293 0 l 236 -33 q 193 -6 222 -6 q 157 -20 171 -6 q 143 -58 143 -35 l 143 -119 l 293 -119 m 143 56 l 293 56 l 293 22 l 143 22 l 143 56 m 293 75 l 293 110 l 265 119 l 265 179 l 293 190 l 293 226 l 143 165 l 143 133 l 293 75 m 293 244 l 293 336 l 264 336 l 264 278 l 143 278 l 143 244 l 293 244 m 293 403 l 293 435 l 236 435 l 236 488 l 206 488 l 206 435 l 174 435 l 174 493 l 143 493 l 143 403 l 293 403 m 293 693 l 293 725 l 199 725 l 293 794 l 293 821 l 143 821 l 143 789 l 235 789 l 143 724 l 143 693 l 293 693 m 174 843 l 174 885 l 293 885 l 293 918 l 174 918 l 174 960 l 143 960 l 143 843 l 174 843 m 171 588 q 184 622 171 608 q 218 635 197 635 q 253 622 239 635 q 267 588 267 608 q 253 554 267 568 q 218 540 239 540 q 184 554 197 540 q 171 588 171 568 m 172 -61 q 178 -45 172 -51 q 192 -39 183 -39 q 207 -45 201 -39 q 213 -61 213 -51 l 213 -87 l 172 -87 l 172 -61 m 236 169 l 236 131 l 182 150 l 236 169 z "},"i":{"ha":461,"x_min":38,"x_max":424,"o":"m 56 736 l 406 736 l 406 0 l 56 0 l 56 736 m 38 965 q 92 1088 38 1040 q 231 1136 146 1136 q 369 1088 315 1136 q 424 965 424 1040 q 369 843 424 892 q 231 794 315 794 q 92 843 146 794 q 38 965 38 892 z "},"ı":{"ha":436,"x_min":139,"x_max":297,"o":"m 174 -183 l 293 -183 l 293 -217 l 174 -217 l 174 -258 l 143 -258 l 143 -142 l 174 -142 l 174 -183 m 139 588 q 162 530 139 553 q 218 507 185 507 q 274 530 251 507 q 297 588 297 553 q 274 645 297 622 q 218 668 251 668 q 162 645 185 668 q 139 588 139 622 m 293 -119 l 293 -87 l 242 -87 l 242 -65 l 293 -36 l 293 0 l 236 -33 q 193 -6 222 -6 q 157 -20 171 -6 q 143 -58 143 -35 l 143 -119 l 293 -119 m 143 56 l 293 56 l 293 22 l 143 22 l 143 56 m 293 75 l 293 110 l 265 119 l 265 179 l 293 190 l 293 226 l 143 165 l 143 133 l 293 75 m 293 244 l 293 336 l 264 336 l 264 278 l 143 278 l 143 244 l 293 244 m 293 403 l 293 435 l 236 435 l 236 488 l 206 488 l 206 435 l 174 435 l 174 493 l 143 493 l 143 403 l 293 403 m 293 693 l 293 725 l 199 725 l 293 794 l 293 821 l 143 821 l 143 789 l 235 789 l 143 724 l 143 693 l 293 693 m 174 843 l 174 885 l 293 885 l 293 918 l 174 918 l 174 960 l 143 960 l 143 843 l 174 843 m 171 588 q 184 622 171 608 q 218 635 197 635 q 253 622 239 635 q 267 588 267 608 q 253 554 267 568 q 218 540 239 540 q 184 554 197 540 q 171 588 171 568 m 172 -61 q 178 -45 172 -51 q 192 -39 183 -39 q 207 -45 201 -39 q 213 -61 213 -51 l 213 -87 l 172 -87 l 172 -61 m 236 169 l 236 131 l 182 150 l 236 169 z "},"í":{"ha":436,"x_min":139,"x_max":297,"o":"m 174 -183 l 293 -183 l 293 -217 l 174 -217 l 174 -258 l 143 -258 l 143 -142 l 174 -142 l 174 -183 m 139 588 q 162 530 139 553 q 218 507 185 507 q 274 530 251 507 q 297 588 297 553 q 274 645 297 622 q 218 668 251 668 q 162 645 185 668 q 139 588 139 622 m 293 -119 l 293 -87 l 242 -87 l 242 -65 l 293 -36 l 293 0 l 236 -33 q 193 -6 222 -6 q 157 -20 171 -6 q 143 -58 143 -35 l 143 -119 l 293 -119 m 143 56 l 293 56 l 293 22 l 143 22 l 143 56 m 293 75 l 293 110 l 265 119 l 265 179 l 293 190 l 293 226 l 143 165 l 143 133 l 293 75 m 293 244 l 293 336 l 264 336 l 264 278 l 143 278 l 143 244 l 293 244 m 293 403 l 293 435 l 236 435 l 236 488 l 206 488 l 206 435 l 174 435 l 174 493 l 143 493 l 143 403 l 293 403 m 293 693 l 293 725 l 199 725 l 293 794 l 293 821 l 143 821 l 143 789 l 235 789 l 143 724 l 143 693 l 293 693 m 174 843 l 174 885 l 293 885 l 293 918 l 174 918 l 174 960 l 143 960 l 143 843 l 174 843 m 171 588 q 184 622 171 608 q 218 635 197 635 q 253 622 239 635 q 267 588 267 608 q 253 554 267 568 q 218 540 239 540 q 184 554 197 540 q 171 588 171 568 m 172 -61 q 178 -45 172 -51 q 192 -39 183 -39 q 207 -45 201 -39 q 213 -61 213 -51 l 213 -87 l 172 -87 l 172 -61 m 236 169 l 236 131 l 182 150 l 236 169 z "},"ĭ":{"ha":436,"x_min":139,"x_max":297,"o":"m 174 -183 l 293 -183 l 293 -217 l 174 -217 l 174 -258 l 143 -258 l 143 -142 l 174 -142 l 174 -183 m 139 588 q 162 530 139 553 q 218 507 185 507 q 274 530 251 507 q 297 588 297 553 q 274 645 297 622 q 218 668 251 668 q 162 645 185 668 q 139 588 139 622 m 293 -119 l 293 -87 l 242 -87 l 242 -65 l 293 -36 l 293 0 l 236 -33 q 193 -6 222 -6 q 157 -20 171 -6 q 143 -58 143 -35 l 143 -119 l 293 -119 m 143 56 l 293 56 l 293 22 l 143 22 l 143 56 m 293 75 l 293 110 l 265 119 l 265 179 l 293 190 l 293 226 l 143 165 l 143 133 l 293 75 m 293 244 l 293 336 l 264 336 l 264 278 l 143 278 l 143 244 l 293 244 m 293 403 l 293 435 l 236 435 l 236 488 l 206 488 l 206 435 l 174 435 l 174 493 l 143 493 l 143 403 l 293 403 m 293 693 l 293 725 l 199 725 l 293 794 l 293 821 l 143 821 l 143 789 l 235 789 l 143 724 l 143 693 l 293 693 m 174 843 l 174 885 l 293 885 l 293 918 l 174 918 l 174 960 l 143 960 l 143 843 l 174 843 m 171 588 q 184 622 171 608 q 218 635 197 635 q 253 622 239 635 q 267 588 267 608 q 253 554 267 568 q 218 540 239 540 q 184 554 197 540 q 171 588 171 568 m 172 -61 q 178 -45 172 -51 q 192 -39 183 -39 q 207 -45 201 -39 q 213 -61 213 -51 l 213 -87 l 172 -87 l 172 -61 m 236 169 l 236 131 l 182 150 l 236 169 z "}}}
